{
.appVersion = "3086";
DisplayStrings = (
"/mem-hb",
"/mem-hb/memdagesh-hb"
);
copyright = "Copyright 2021 The Mekorot Project Authors (https://github.com/googlefonts/mekorot)";
customParameters = (
{
name = panose;
value = (
0,
0,
0,
0,
0,
0,
0,
0,
0,
0
);
},
{
name = fsType;
value = (
);
},
{
name = "Disable Last Change";
value = 1;
},
{
name = "Use Typo Metrics";
value = 1;
},
{
name = "Use Line Breaks";
value = 1;
},
{
name = "Axis Mappings";
value = {
wght = {
400 = 90;
500 = 115;
600 = 135;
700 = 150;
};
};
},
{
name = "Variable Font Origin";
value = m01;
},
{
name = "Enforce Compatibility Check";
value = 0;
},
{
name = licenseURL;
value = "https://scripts.sil.org/OFL";
},
{
name = license;
value = "This Font Software is licensed under the SIL Open Font License, Version 1.1. This license is available with a FAQ at: https://scripts.sil.org/OFL";
},
{
name = Axes;
value = (
{
Name = Weight;
Tag = wght;
}
);
},
{
name = note;
value = "https://github.com/googlefonts/mekorot";
}
);
date = "2021-07-16 04:59:07 +0000";
designer = "Dr. Alan Hoenig";
designerURL = "https://ctan.org/tex-archive/language/hebrew/makor/";
disablesNiceNames = 1;
familyName = Mekorot;
fontMaster = (
{
alignmentZones = (
"{890, 10}",
"{740, 10}",
"{660, 10}",
"{560, 11}",
"{530, 10}",
"{450, 10}",
"{0, -10}",
"{-230, -10}"
);
ascender = 759;
capHeight = 660;
customParameters = (
{
name = hheaAscender;
value = 917;
},
{
name = hheaDescender;
value = -463;
},
{
name = hheaLineGap;
value = 0;
},
{
name = typoAscender;
value = 759;
},
{
name = typoDescender;
value = -241;
},
{
name = typoLineGap;
value = 522;
},
{
name = winAscent;
value = 1059;
},
{
name = winDescent;
value = 463;
},
{
name = underlinePosition;
value = -120;
},
{
name = underlineThickness;
value = 50;
},
{
name = strikeoutPosition;
value = 260;
},
{
name = strikeoutSize;
value = 50;
},
{
name = "Master Icon Glyph Name";
value = m;
}
);
descender = -241;
horizontalStems = (
55,
46
);
id = m01;
verticalStems = (
90,
80
);

glyphs = (
{
color = 5;
glyphname = "alef-hb";
layers = (
{
anchors = (
{
name = bottom;
position = "{245, 0}";
},
{
name = bottomleft;
position = "{15, 0}";
},
{
name = center;
position = "{285, 324}";
},
{
name = top;
position = "{367, 800}";
},
{
name = topleft;
position = "{7, 604}";
}
);
layerId = m01;
paths = (
{
closed = 1;
nodes = (
"70 -29 OFFCURVE",
"61 -8 OFFCURVE",
"61 11 CURVE SMOOTH",
"61 40 OFFCURVE",
"68 76 OFFCURVE",
"68 105 CURVE SMOOTH",
"68 146 OFFCURVE",
"60 219 OFFCURVE",
"60 261 CURVE SMOOTH",
"60 402 OFFCURVE",
"118 450 OFFCURVE",
"118 457 CURVE SMOOTH",
"118 462 OFFCURVE",
"113 465 OFFCURVE",
"95 467 CURVE SMOOTH",
"43 472 OFFCURVE",
"32 510 OFFCURVE",
"32.2 560 CURVE SMOOTH",
"32 588 OFFCURVE",
"34 632 OFFCURVE",
"70 632 CURVE SMOOTH",
"80 632 OFFCURVE",
"90 630 OFFCURVE",
"99 630 CURVE SMOOTH",
"105 630 OFFCURVE",
"109 635 OFFCURVE",
"109 644 CURVE SMOOTH",
"109 710 OFFCURVE",
"160 888 OFFCURVE",
"244 888 CURVE SMOOTH",
"299 888 OFFCURVE",
"336 870 OFFCURVE",
"336 833 CURVE SMOOTH",
"336 758 OFFCURVE",
"157 722 OFFCURVE",
"158.2 634.9 CURVE SMOOTH",
"158 631 OFFCURVE",
"161 629 OFFCURVE",
"165.2 629.3 CURVE SMOOTH",
"199 629 OFFCURVE",
"250 636 OFFCURVE",
"284.9 636.3 CURVE SMOOTH",
"467 636 OFFCURVE",
"501 478 OFFCURVE",
"501 362 CURVE SMOOTH",
"501 245 OFFCURVE",
"430 21 OFFCURVE",
"326 21 CURVE SMOOTH",
"293 21 OFFCURVE",
"274 35 OFFCURVE",
"274 64 CURVE SMOOTH",
"274 120 OFFCURVE",
"442 188 OFFCURVE",
"442 309 CURVE SMOOTH",
"442 419 OFFCURVE",
"402 466 OFFCURVE",
"256 466 CURVE SMOOTH",
"230 466 OFFCURVE",
"200 462 OFFCURVE",
"191 459 CURVE SMOOTH",
"175 454 OFFCURVE",
"137 400 OFFCURVE",
"137 364 CURVE SMOOTH",
"138 299 OFFCURVE",
"189 192 OFFCURVE",
"189 86 CURVE SMOOTH",
"189 28 OFFCURVE",
"122 -29 OFFCURVE",
"89 -29 CURVE SMOOTH"
);
}
);
width = 541;
},
{
anchors = (
{
name = bottom;
position = "{285, 0}";
},
{
name = bottomleft;
position = "{15, 0}";
},
{
name = center;
position = "{345, 324}";
},
{
name = top;
position = "{467, 800}";
},
{
name = topleft;
position = "{7, 604}";
}
);
layerId = m002;
paths = (
{
closed = 1;
nodes = (
"80 -29 OFFCURVE",
"61 -12 OFFCURVE",
"61 11 CURVE SMOOTH",
"61 40 OFFCURVE",
"67 77 OFFCURVE",
"67 106 CURVE SMOOTH",
"67 147 OFFCURVE",
"61 249 OFFCURVE",
"61 291 CURVE SMOOTH",
"61 412 OFFCURVE",
"118 434 OFFCURVE",
"118 447 CURVE SMOOTH",
"118 452 OFFCURVE",
"113 455 OFFCURVE",
"95 457 CURVE SMOOTH",
"44 462 OFFCURVE",
"32 498 OFFCURVE",
"32 550 CURVE SMOOTH",
"33 578 OFFCURVE",
"34 637 OFFCURVE",
"70 637 CURVE SMOOTH",
"80 637 OFFCURVE",
"90 635 OFFCURVE",
"99 635 CURVE SMOOTH",
"105 635 OFFCURVE",
"109 640 OFFCURVE",
"109 649 CURVE SMOOTH",
"109 708 OFFCURVE",
"178 888 OFFCURVE",
"284 888 CURVE SMOOTH",
"386 888 OFFCURVE",
"413 850 OFFCURVE",
"413 808 CURVE SMOOTH",
"413 720 OFFCURVE",
"227 710 OFFCURVE",
"227 650 CURVE SMOOTH",
"227 647 OFFCURVE",
"229 646 OFFCURVE",
"233 646 CURVE SMOOTH",
"247 646 OFFCURVE",
"299 654 OFFCURVE",
"334 654 CURVE SMOOTH",
"526 654 OFFCURVE",
"584 516 OFFCURVE",
"584 360 CURVE SMOOTH",
"584 153 OFFCURVE",
"483 5 OFFCURVE",
"379 5 CURVE SMOOTH",
"338 5 OFFCURVE",
"297 21 OFFCURVE",
"297 64 CURVE SMOOTH",
"297 162 OFFCURVE",
"486 149 OFFCURVE",
"486 330 CURVE SMOOTH",
"486 425 OFFCURVE",
"455 444 OFFCURVE",
"309 444 CURVE SMOOTH",
"283 444 OFFCURVE",
"245 440 OFFCURVE",
"236 437 CURVE SMOOTH",
"220 432 OFFCURVE",
"188 401 OFFCURVE",
"188 367 CURVE SMOOTH",
"188 318 OFFCURVE",
"248 202 OFFCURVE",
"248 86 CURVE SMOOTH",
"248 45 OFFCURVE",
"166 -29 OFFCURVE",
"109 -29 CURVE SMOOTH"
);
}
);
width = 625;
}
);
unicode = 05D0;
},
{
color = 5;
glyphname = "bet-hb";
layers = (
{
anchors = (
{
name = bottom;
position = "{233, 0}";
},
{
name = center;
position = "{130, 335}";
}
);
layerId = m01;
paths = (
{
closed = 1;
nodes = (
"34 -27 OFFCURVE",
"25 -20 OFFCURVE",
"25 27 CURVE SMOOTH",
"25 108 OFFCURVE",
"41 141 OFFCURVE",
"72 141 CURVE SMOOTH",
"219 141 OFFCURVE",
"347 147 OFFCURVE",
"347 196 CURVE SMOOTH",
"347 252 OFFCURVE",
"245 298 OFFCURVE",
"245 322 CURVE SMOOTH",
"245 361 OFFCURVE",
"292 431 OFFCURVE",
"292 467 CURVE SMOOTH",
"292 474 OFFCURVE",
"289 480 OFFCURVE",
"255 480 CURVE SMOOTH",
"204 480 OFFCURVE",
"191 473 OFFCURVE",
"149 473 CURVE SMOOTH",
"85 473 OFFCURVE",
"52 488 OFFCURVE",
"52 556 CURVE SMOOTH",
"52 597 OFFCURVE",
"58 624 OFFCURVE",
"58 665 CURVE SMOOTH",
"58 687 OFFCURVE",
"66 699 OFFCURVE",
"104 699 CURVE SMOOTH",
"111 699 OFFCURVE",
"113 695 OFFCURVE",
"115 684 CURVE SMOOTH",
"119 663 OFFCURVE",
"141 638 OFFCURVE",
"180 638 CURVE SMOOTH",
"195 638 OFFCURVE",
"321 640 OFFCURVE",
"376 640 CURVE SMOOTH",
"392 640 OFFCURVE",
"400 634 OFFCURVE",
"400 624 CURVE SMOOTH",
"400 582 OFFCURVE",
"351 483 OFFCURVE",
"351 457 CURVE SMOOTH",
"351 432 OFFCURVE",
"426 338 OFFCURVE",
"426 254 CURVE SMOOTH",
"426 98 OFFCURVE",
"242 -27 OFFCURVE",
"66 -27 CURVE SMOOTH"
);
}
);
width = 465;
},
{
anchors = (
{
name = bottom;
position = "{303, 0}";
},
{
name = center;
position = "{150, 335}";
}
);
layerId = m002;
paths = (
{
closed = 1;
nodes = (
"52 -27 OFFCURVE",
"24 -20 OFFCURVE",
"24 27 CURVE SMOOTH",
"24 131 OFFCURVE",
"46 175 OFFCURVE",
"85 175 CURVE SMOOTH",
"322 175 OFFCURVE",
"388 189 OFFCURVE",
"388 206 CURVE SMOOTH",
"388 243 OFFCURVE",
"268 298 OFFCURVE",
"268 322 CURVE SMOOTH",
"268 361 OFFCURVE",
"315 427 OFFCURVE",
"315 444 CURVE SMOOTH",
"315 451 OFFCURVE",
"312 457 OFFCURVE",
"296 457 CURVE SMOOTH",
"245 457 OFFCURVE",
"202 450 OFFCURVE",
"150 450 CURVE SMOOTH",
"92 450 OFFCURVE",
"50 466 OFFCURVE",
"50 534 CURVE SMOOTH",
"50 565 OFFCURVE",
"59 623 OFFCURVE",
"59 664 CURVE SMOOTH",
"59 696 OFFCURVE",
"77 706 OFFCURVE",
"145 706 CURVE SMOOTH",
"152 706 OFFCURVE",
"160 702 OFFCURVE",
"162 691 CURVE SMOOTH",
"166 670 OFFCURVE",
"182 647 OFFCURVE",
"221 647 CURVE SMOOTH",
"346 647 OFFCURVE",
"406 649 OFFCURVE",
"461 649 CURVE SMOOTH",
"477 649 OFFCURVE",
"485 643 OFFCURVE",
"485 633 CURVE SMOOTH",
"485 591 OFFCURVE",
"437 483 OFFCURVE",
"437 457 CURVE SMOOTH",
"437 432 OFFCURVE",
"510 353 OFFCURVE",
"510 259 CURVE SMOOTH",
"510 73 OFFCURVE",
"260 -27 OFFCURVE",
"84 -27 CURVE SMOOTH"
);
}
);
width = 549;
}
);
unicode = 05D1;
},
{
color = 5;
glyphname = "gimel-hb";
layers = (
{
anchors = (
{
name = bottom;
position = "{184, 0}";
},
{
name = center;
position = "{126, 315}";
}
);
layerId = m01;
paths = (
{
closed = 1;
nodes = (
"34 -15 OFFCURVE",
"-30 8 OFFCURVE",
"-30 45 CURVE SMOOTH",
"-30 56 OFFCURVE",
"15 56 OFFCURVE",
"30 111 CURVE SMOOTH",
"41 150 OFFCURVE",
"67 195 OFFCURVE",
"132 195 CURVE SMOOTH",
"201 195 OFFCURVE",
"252 147 OFFCURVE",
"270 147 CURVE SMOOTH",
"275 147 OFFCURVE",
"277 149 OFFCURVE",
"277 156 CURVE SMOOTH",
"277 213 OFFCURVE",
"267 329 OFFCURVE",
"231 397 CURVE SMOOTH",
"181 490 OFFCURVE",
"89 485 OFFCURVE",
"89 528 CURVE SMOOTH",
"89 570 OFFCURVE",
"127 662 OFFCURVE",
"169 662 CURVE SMOOTH",
"235 662 OFFCURVE",
"295 602 OFFCURVE",
"311 552 CURVE SMOOTH",
"345 445 OFFCURVE",
"334 206 OFFCURVE",
"334 32 CURVE SMOOTH",
"334 1 OFFCURVE",
"322 -7 OFFCURVE",
"287 -7 CURVE SMOOTH",
"280 -7 OFFCURVE",
"275 -3 OFFCURVE",
"275 10 CURVE SMOOTH",
"275 42 OFFCURVE",
"278 65 OFFCURVE",
"278 79 CURVE SMOOTH",
"278 100 OFFCURVE",
"265 108 OFFCURVE",
"239 108 CURVE SMOOTH",
"166 108 OFFCURVE",
"176 -15 OFFCURVE",
"74 -15 CURVE SMOOTH"
);
}
);
width = 402;
},
{
anchors = (
{
name = bottom;
position = "{254, 0}";
},
{
name = center;
position = "{170, 357}";
}
);
layerId = m002;
paths = (
{
closed = 1;
nodes = (
"42 -15 OFFCURVE",
"-6 32 OFFCURVE",
"-6 69 CURVE SMOOTH",
"-6 82 OFFCURVE",
"35 94 OFFCURVE",
"54 131 CURVE SMOOTH",
"77 177 OFFCURVE",
"108 237 OFFCURVE",
"187 237 CURVE SMOOTH",
"267 237 OFFCURVE",
"322 202 OFFCURVE",
"338 202 CURVE SMOOTH",
"343 202 OFFCURVE",
"345 205 OFFCURVE",
"345 212 CURVE SMOOTH",
"345 269 OFFCURVE",
"330 337 OFFCURVE",
"301 397 CURVE SMOOTH",
"253 496 OFFCURVE",
"122 489 OFFCURVE",
"122 545 CURVE SMOOTH",
"122 599 OFFCURVE",
"177 704 OFFCURVE",
"239 704 CURVE SMOOTH",
"345 704 OFFCURVE",
"444 601 OFFCURVE",
"444 450 CURVE SMOOTH",
"444 337 OFFCURVE",
"440 206 OFFCURVE",
"440 32 CURVE SMOOTH",
"440 0 OFFCURVE",
"400 -7 OFFCURVE",
"357 -7 CURVE SMOOTH",
"346 -7 OFFCURVE",
"341 4 OFFCURVE",
"341 19 CURVE SMOOTH",
"341 51 OFFCURVE",
"345 65 OFFCURVE",
"345 79 CURVE SMOOTH",
"345 100 OFFCURVE",
"341 104 OFFCURVE",
"327 104 CURVE SMOOTH",
"254 104 OFFCURVE",
"280 -15 OFFCURVE",
"98 -15 CURVE SMOOTH"
);
}
);
width = 510;
}
);
unicode = 05D2;
},
{
color = 5;
glyphname = "dalet-hb";
layers = (
{
anchors = (
{
name = bottom;
position = "{288, 0}";
},
{
name = center;
position = "{182, 348}";
}
);
layerId = m01;
paths = (
{
closed = 1;
nodes = (
"258 -29 OFFCURVE",
"199 37 OFFCURVE",
"199 71 CURVE SMOOTH",
"199 156 OFFCURVE",
"371 380 OFFCURVE",
"371 459.9 CURVE SMOOTH",
"371 470 OFFCURVE",
"363 476 OFFCURVE",
"347 476 CURVE SMOOTH",
"276 476 OFFCURVE",
"155 464 OFFCURVE",
"123 464 CURVE SMOOTH",
"66 464 OFFCURVE",
"28 480 OFFCURVE",
"28 545 CURVE SMOOTH",
"28 660 OFFCURVE",
"45 694 OFFCURVE",
"59 694 CURVE SMOOTH",
"73 694 OFFCURVE",
"90 690 OFFCURVE",
"93 680 CURVE SMOOTH",
"99 660 OFFCURVE",
"109 634 OFFCURVE",
"164.5 633.5 CURVE SMOOTH",
"177 633 OFFCURVE",
"415 639 OFFCURVE",
"448 639 CURVE SMOOTH",
"470 639 OFFCURVE",
"479 620 OFFCURVE",
"478.8 585.2 CURVE SMOOTH",
"479 515 OFFCURVE",
"426 502 OFFCURVE",
"426 470 CURVE SMOOTH",
"426 457 OFFCURVE",
"430 441 OFFCURVE",
"430 429 CURVE SMOOTH",
"430 349 OFFCURVE",
"348 -29 OFFCURVE",
"302 -29 CURVE SMOOTH"
);
}
);
width = 501;
},
{
anchors = (
{
name = bottom;
position = "{288, 0}";
},
{
name = center;
position = "{182, 318}";
}
);
layerId = m002;
paths = (
{
closed = 1;
nodes = (
"278 -29 OFFCURVE",
"210 38 OFFCURVE",
"210 82 CURVE SMOOTH",
"210 174 OFFCURVE",
"400 394 OFFCURVE",
"400 434 CURVE SMOOTH",
"400 444 OFFCURVE",
"392 450 OFFCURVE",
"376 450 CURVE SMOOTH",
"305 450 OFFCURVE",
"215 440 OFFCURVE",
"143 440 CURVE SMOOTH",
"54 440 OFFCURVE",
"30 480 OFFCURVE",
"30 545 CURVE SMOOTH",
"30 670 OFFCURVE",
"50 694 OFFCURVE",
"67 694 CURVE SMOOTH",
"101 694 OFFCURVE",
"126 695 OFFCURVE",
"131 683 CURVE SMOOTH",
"139 665 OFFCURVE",
"159 648 OFFCURVE",
"215 648 CURVE SMOOTH",
"307 648 OFFCURVE",
"429 655 OFFCURVE",
"522 655 CURVE SMOOTH",
"544 655 OFFCURVE",
"563 633 OFFCURVE",
"563 583 CURVE SMOOTH",
"563 515 OFFCURVE",
"511 484 OFFCURVE",
"511 470 CURVE SMOOTH",
"511 457 OFFCURVE",
"515 441 OFFCURVE",
"515 429 CURVE SMOOTH",
"515 369 OFFCURVE",
"428 -29 OFFCURVE",
"352 -29 CURVE SMOOTH"
);
}
);
width = 585;
}
);
unicode = 05D3;
},
{
color = 5;
glyphname = "he-hb";
layers = (
{
anchors = (
{
name = bottom;
position = "{291, 0}";
},
{
name = center;
position = "{309, 328}";
}
);
layerId = m01;
paths = (
{
closed = 1;
nodes = (
"133 -29 OFFCURVE",
"57 121 OFFCURVE",
"57 282 CURVE SMOOTH",
"57 347 OFFCURVE",
"64 355 OFFCURVE",
"81 355 CURVE SMOOTH",
"103 355 OFFCURVE",
"106 348 OFFCURVE",
"108 336 CURVE SMOOTH",
"124 259 OFFCURVE",
"159 199 OFFCURVE",
"218 181 CURVE SMOOTH",
"312 152 OFFCURVE",
"321 139 OFFCURVE",
"321 68 CURVE SMOOTH",
"321 -6 OFFCURVE",
"314 -29 OFFCURVE",
"274 -29 CURVE SMOOTH"
);
},
{
closed = 1;
nodes = (
"446 105 OFFCURVE",
"422 119 OFFCURVE",
"422 145 CURVE SMOOTH",
"422 191 OFFCURVE",
"483 222 OFFCURVE",
"483 324 CURVE SMOOTH",
"483 435 OFFCURVE",
"396 468 OFFCURVE",
"283 468 CURVE SMOOTH",
"245 468 OFFCURVE",
"184 462 OFFCURVE",
"144 462 CURVE SMOOTH",
"47 462 OFFCURVE",
"46 520 OFFCURVE",
"46 568 CURVE SMOOTH",
"46 633 OFFCURVE",
"58 692 OFFCURVE",
"81 692 CURVE SMOOTH",
"101 692 OFFCURVE",
"112 687 OFFCURVE",
"114 676 CURVE SMOOTH",
"122 636 OFFCURVE",
"172 628 OFFCURVE",
"208 628 CURVE SMOOTH",
"242 628 OFFCURVE",
"281 634 OFFCURVE",
"316 634 CURVE SMOOTH",
"483 634 OFFCURVE",
"538 495 OFFCURVE",
"538 333 CURVE SMOOTH",
"538 265 OFFCURVE",
"519 105 OFFCURVE",
"475 105 CURVE SMOOTH"
);
}
);
width = 580;
},
{
anchors = (
{
name = bottom;
position = "{331, 0}";
},
{
name = center;
position = "{349, 318}";
}
);
layerId = m002;
paths = (
{
closed = 1;
nodes = (
"141 -29 OFFCURVE",
"57 131 OFFCURVE",
"57 272 CURVE SMOOTH",
"57 379 OFFCURVE",
"66 400 OFFCURVE",
"93 400 CURVE SMOOTH",
"133 400 OFFCURVE",
"144 393 OFFCURVE",
"148 375 CURVE SMOOTH",
"171 273 OFFCURVE",
"213 231 OFFCURVE",
"270 217 CURVE SMOOTH",
"361 195 OFFCURVE",
"388 172 OFFCURVE",
"388 98 CURVE SMOOTH",
"388 4 OFFCURVE",
"366 -29 OFFCURVE",
"326 -29 CURVE SMOOTH"
);
},
{
closed = 1;
nodes = (
"490 84 OFFCURVE",
"456 109 OFFCURVE",
"456 145 CURVE SMOOTH",
"456 191 OFFCURVE",
"523 227 OFFCURVE",
"523 329 CURVE SMOOTH",
"523 400 OFFCURVE",
"471 450 OFFCURVE",
"368 450 CURVE SMOOTH",
"320 450 OFFCURVE",
"242 442 OFFCURVE",
"166 442 CURVE SMOOTH",
"69 442 OFFCURVE",
"46 520 OFFCURVE",
"46 568 CURVE SMOOTH",
"46 660 OFFCURVE",
"66 710 OFFCURVE",
"94 710 CURVE SMOOTH",
"134 710 OFFCURVE",
"147 707 OFFCURVE",
"158 680 CURVE SMOOTH",
"169 653 OFFCURVE",
"206 650 OFFCURVE",
"232 650 CURVE SMOOTH",
"266 650 OFFCURVE",
"321 660 OFFCURVE",
"376 660 CURVE SMOOTH",
"543 660 OFFCURVE",
"622 532 OFFCURVE",
"622 361 CURVE SMOOTH",
"622 193 OFFCURVE",
"591 84 OFFCURVE",
"539 84 CURVE SMOOTH"
);
}
);
width = 664;
}
);
unicode = 05D4;
},
{
color = 5;
glyphname = "vav-hb";
layers = (
{
anchors = (
{
name = bottom;
position = "{184, 0}";
},
{
name = bottomleft;
position = "{100, 0}";
},
{
name = center;
position = "{77, 270}";
},
{
name = top;
position = "{115, 610}";
},
{
name = topleft;
position = "{106, 630}";
}
);
layerId = m01;
paths = (
{
closed = 1;
nodes = (
"176 -17 OFFCURVE",
"171 -11 OFFCURVE",
"171 0 CURVE SMOOTH",
"171 59 OFFCURVE",
"178 110 OFFCURVE",
"178 203 CURVE SMOOTH",
"178 459 OFFCURVE",
"22 466 OFFCURVE",
"22 513 CURVE SMOOTH",
"22 561 OFFCURVE",
"59 656 OFFCURVE",
"106 656 CURVE SMOOTH",
"194 656 OFFCURVE",
"248 530 OFFCURVE",
"248 460 CURVE SMOOTH",
"248 286 OFFCURVE",
"230 21 OFFCURVE",
"223 4 CURVE SMOOTH",
"218 -7 OFFCURVE",
"202 -17 OFFCURVE",
"184 -17 CURVE SMOOTH"
);
}
);
width = 308;
},
{
anchors = (
{
name = bottom;
position = "{234, 0}";
},
{
name = bottomleft;
position = "{150, 0}";
},
{
name = center;
position = "{97, 270}";
},
{
name = top;
position = "{135, 610}";
},
{
name = topleft;
position = "{126, 660}";
}
);
layerId = m002;
paths = (
{
closed = 1;
nodes = (
"207 -17 OFFCURVE",
"202 -9 OFFCURVE",
"202 0 CURVE SMOOTH",
"202 79 OFFCURVE",
"218 166 OFFCURVE",
"218 242 CURVE SMOOTH",
"218 438 OFFCURVE",
"22 465 OFFCURVE",
"22 525 CURVE SMOOTH",
"22 602 OFFCURVE",
"71 691 OFFCURVE",
"126 691 CURVE SMOOTH",
"268 691 OFFCURVE",
"332 592 OFFCURVE",
"332 450 CURVE SMOOTH",
"332 276 OFFCURVE",
"308 31 OFFCURVE",
"300 10 CURVE SMOOTH",
"293 -8 OFFCURVE",
"268 -17 OFFCURVE",
"215 -17 CURVE SMOOTH"
);
}
);
width = 392;
}
);
unicode = 05D5;
},
{
color = 5;
glyphname = "zayin-hb";
layers = (
{
anchors = (
{
name = bottom;
position = "{117, 0}";
},
{
name = bottomleft;
position = "{7, 0}";
},
{
name = center;
position = "{0, 254}";
},
{
name = top;
position = "{194, 690}";
},
{
name = topleft;
position = "{67, 690}";
}
);
layerId = m01;
paths = (
{
closed = 1;
nodes = (
"91 -28 OFFCURVE",
"81 -24 OFFCURVE",
"81 -12 CURVE SMOOTH",
"81 15 OFFCURVE",
"92 116 OFFCURVE",
"92 165 CURVE SMOOTH",
"92 411 OFFCURVE",
"45 483 OFFCURVE",
"45 542 CURVE SMOOTH",
"45 587 OFFCURVE",
"138 652 OFFCURVE",
"198 652 CURVE SMOOTH",
"217 652 OFFCURVE",
"242 561 OFFCURVE",
"242 530 CURVE SMOOTH",
"242 457 OFFCURVE",
"148 425 OFFCURVE",
"148 370 CURVE SMOOTH",
"148 344 OFFCURVE",
"175 300 OFFCURVE",
"175 211 CURVE SMOOTH",
"175 167 OFFCURVE",
"153 -28 OFFCURVE",
"106 -28 CURVE SMOOTH"
);
}
);
width = 270;
},
{
anchors = (
{
name = bottom;
position = "{197, 0}";
},
{
name = bottomleft;
position = "{87, 0}";
},
{
name = center;
position = "{-10, 254}";
},
{
name = top;
position = "{274, 690}";
},
{
name = topleft;
position = "{147, 690}";
}
);
layerId = m002;
paths = (
{
closed = 1;
nodes = (
"102 -27 OFFCURVE",
"81 -20 OFFCURVE",
"81 0 CURVE SMOOTH",
"81 27 OFFCURVE",
"92 116 OFFCURVE",
"92 165 CURVE SMOOTH",
"92 411 OFFCURVE",
"45 505 OFFCURVE",
"45 560 CURVE SMOOTH",
"45 608 OFFCURVE",
"130 694 OFFCURVE",
"242 694 CURVE SMOOTH",
"290 694 OFFCURVE",
"326 590 OFFCURVE",
"326 551 CURVE SMOOTH",
"326 462 OFFCURVE",
"206 429 OFFCURVE",
"206 387 CURVE SMOOTH",
"206 361 OFFCURVE",
"249 313 OFFCURVE",
"249 214 CURVE SMOOTH",
"249 140 OFFCURVE",
"168 -27 OFFCURVE",
"127 -27 CURVE SMOOTH"
);
}
);
width = 354;
}
);
unicode = 05D6;
},
{
color = 5;
glyphname = "het-hb";
layers = (
{
anchors = (
{
name = bottom;
position = "{257, 0}";
}
);
layerId = m01;
paths = (
{
closed = 1;
nodes = (
"80 -29 OFFCURVE",
"60 -13 OFFCURVE",
"60.2 7.7 CURVE SMOOTH",
"61 51 OFFCURVE",
"71 339 OFFCURVE",
"80.5 380.8 CURVE SMOOTH",
"86.8 408.8 OFFCURVE",
"113 459 OFFCURVE",
"113 468 CURVE SMOOTH",
"112 478 OFFCURVE",
"68 487 OFFCURVE",
"60 504 CURVE SMOOTH",
"56 514 OFFCURVE",
"53 536 OFFCURVE",
"53 556 CURVE SMOOTH",
"53 605 OFFCURVE",
"60 696 OFFCURVE",
"79 696 CURVE SMOOTH",
"98 696 OFFCURVE",
"111 693 OFFCURVE",
"113 690 CURVE SMOOTH",
"119 683 OFFCURVE",
"132 654 OFFCURVE",
"150 649 CURVE SMOOTH",
"170 643 OFFCURVE",
"203 640 OFFCURVE",
"300 640 CURVE SMOOTH",
"456 640 OFFCURVE",
"508 522 OFFCURVE",
"508 366 CURVE SMOOTH",
"508 211 OFFCURVE",
"450 22 OFFCURVE",
"314 22 CURVE SMOOTH",
"294 22 OFFCURVE",
"279 38 OFFCURVE",
"279 62 CURVE SMOOTH",
"279 95 OFFCURVE",
"325 114 OFFCURVE",
"351 129 CURVE SMOOTH",
"406 162 OFFCURVE",
"450 243 OFFCURVE",
"450.1 329.7 CURVE SMOOTH",
"450 432 OFFCURVE",
"400 466 OFFCURVE",
"336 466 CURVE SMOOTH",
"297 466 OFFCURVE",
"239 458 OFFCURVE",
"191 458 CURVE SMOOTH",
"164 458 OFFCURVE",
"147 407 OFFCURVE",
"147.7 380.1 CURVE SMOOTH",
"148 354 OFFCURVE",
"200 122 OFFCURVE",
"199.5 83.3 CURVE SMOOTH",
"200 35 OFFCURVE",
"132 -29 OFFCURVE",
"94 -29 CURVE SMOOTH"
);
}
);
width = 541;
},
{
anchors = (
{
name = bottom;
position = "{257, 0}";
}
);
layerId = m002;
paths = (
{
closed = 1;
nodes = (
"100 -32 OFFCURVE",
"58 -6 OFFCURVE",
"58 15 CURVE SMOOTH",
"59 58 OFFCURVE",
"71 339 OFFCURVE",
"80.5 380.8 CURVE SMOOTH",
"86.8 408.8 OFFCURVE",
"102 438 OFFCURVE",
"102 447 CURVE SMOOTH",
"102 457 OFFCURVE",
"72 476 OFFCURVE",
"65 493 CURVE SMOOTH",
"59 507 OFFCURVE",
"55 528 OFFCURVE",
"55 556 CURVE SMOOTH",
"55 660 OFFCURVE",
"71 699 OFFCURVE",
"87 699 CURVE SMOOTH",
"123 699 OFFCURVE",
"146 695 OFFCURVE",
"154 690 CURVE SMOOTH",
"162 685 OFFCURVE",
"169 667 OFFCURVE",
"187 661 CURVE SMOOTH",
"210 654 OFFCURVE",
"249 662 OFFCURVE",
"300 662 CURVE SMOOTH",
"523 662 OFFCURVE",
"592 572 OFFCURVE",
"592 365 CURVE SMOOTH",
"592 140 OFFCURVE",
"492 0 OFFCURVE",
"356 0 CURVE SMOOTH",
"330 0 OFFCURVE",
"298 38 OFFCURVE",
"298 62 CURVE SMOOTH",
"298 95 OFFCURVE",
"321 116 OFFCURVE",
"363 134 CURVE SMOOTH",
"420 158 OFFCURVE",
"491 213 OFFCURVE",
"491 330 CURVE SMOOTH",
"491 432 OFFCURVE",
"422 451 OFFCURVE",
"364 451 CURVE SMOOTH",
"338 451 OFFCURVE",
"266 442 OFFCURVE",
"234 442 CURVE SMOOTH",
"208 442 OFFCURVE",
"198 404 OFFCURVE",
"198 380 CURVE SMOOTH",
"198 354 OFFCURVE",
"254 122 OFFCURVE",
"254 83 CURVE SMOOTH",
"254 35 OFFCURVE",
"152 -32 OFFCURVE",
"114 -32 CURVE SMOOTH"
);
}
);
width = 625;
},
{
anchors = (
{
name = bottom;
position = "{257, 0}";
}
);
associatedMasterId = m002;
layerId = "3588E518-06B8-44B1-8B26-B3CEB0B6D22A";
name = "Jul 22, 21, 23:40";
paths = (
{
closed = 1;
nodes = (
"169 670 LINE",
"169 670 LINE",
"168 671 OFFCURVE",
"162 682 OFFCURVE",
"153 691 OFFCURVE",
"147 694 QCURVE SMOOTH",
"139 698 OFFCURVE",
"129 698 QCURVE SMOOTH",
"123 698 LINE SMOOTH",
"122 698 OFFCURVE",
"106 699 OFFCURVE",
"102 699 QCURVE SMOOTH",
"91 699 OFFCURVE",
"85 696 QCURVE",
"70 692 OFFCURVE",
"66 674 QCURVE",
"66 672 OFFCURVE",
"66 665 QCURVE",
"65 662 OFFCURVE",
"60 624 OFFCURVE",
"59 614 QCURVE SMOOTH",
"55 569 OFFCURVE",
"55 546 QCURVE SMOOTH",
"55 527 OFFCURVE",
"55 517 QCURVE",
"56 515 OFFCURVE",
"56 501 OFFCURVE",
"58 489 OFFCURVE",
"61 484 QCURVE",
"61 484 OFFCURVE",
"77 467 OFFCURVE",
"98 447 OFFCURVE",
"105 444 QCURVE",
"85 403 OFFCURVE",
"81 384 QCURVE SMOOTH",
"77 368 OFFCURVE",
"74 305 QCURVE SMOOTH",
"71 279 OFFCURVE",
"67 182 OFFCURVE",
"65 161 QCURVE SMOOTH",
"64 146 OFFCURVE",
"63 88 OFFCURVE",
"62 74 QCURVE SMOOTH",
"62 61 OFFCURVE",
"62 37 QCURVE SMOOTH",
"62 36 OFFCURVE",
"60 28 OFFCURVE",
"60 24 QCURVE SMOOTH",
"60 18 OFFCURVE",
"62 16 QCURVE",
"67 -7 OFFCURVE",
"84 -20 QCURVE",
"93 -29 OFFCURVE",
"106 -32 QCURVE SMOOTH",
"107 -32 OFFCURVE",
"113 -33 OFFCURVE",
"113 -33 QCURVE",
"116 -33 OFFCURVE",
"141 -27 QCURVE",
"193 -9 OFFCURVE",
"232 42 QCURVE SMOOTH",
"247 62 OFFCURVE",
"254 83 OFFCURVE",
"254 97 QCURVE SMOOTH",
"254 108 OFFCURVE",
"248 146 QCURVE SMOOTH",
"245 167 OFFCURVE",
"235 211 OFFCURVE",
"219 268 OFFCURVE",
"216 280 QCURVE SMOOTH",
"214 288 OFFCURVE",
"204 350 OFFCURVE",
"198 368 QCURVE SMOOTH",
"196 375 OFFCURVE",
"196 383 QCURVE SMOOTH",
"196 401 OFFCURVE",
"211 435 QCURVE SMOOTH",
"212 437 OFFCURVE",
"214 444 OFFCURVE",
"215 446 QCURVE",
"218 446 LINE SMOOTH",
"240 444 OFFCURVE",
"253 444 QCURVE SMOOTH",
"266 444 LINE SMOOTH",
"299 447 OFFCURVE",
"338 447 QCURVE SMOOTH",
"381 447 OFFCURVE",
"406 442 QCURVE SMOOTH",
"445 436 OFFCURVE",
"464 418 QCURVE SMOOTH",
"485 398 OFFCURVE",
"490 355 QCURVE SMOOTH",
"491 346 OFFCURVE",
"491 330 QCURVE SMOOTH",
"491 267 OFFCURVE",
"461 216 QCURVE SMOOTH",
"430 168 OFFCURVE",
"391 146 QCURVE",
"386 144 OFFCURVE",
"347 126 OFFCURVE",
"326 114 OFFCURVE",
"302 87 OFFCURVE",
"299 71 QCURVE SMOOTH",
"299 70 OFFCURVE",
"298 63 OFFCURVE",
"298 62 QCURVE SMOOTH",
"298 50 OFFCURVE",
"305 39 QCURVE SMOOTH",
"307 35 OFFCURVE",
"309 33 QCURVE SMOOTH",
"310 32 OFFCURVE",
"314 25 OFFCURVE",
"316 22 QCURVE SMOOTH",
"323 13 OFFCURVE",
"336 6 QCURVE SMOOTH",
"344 1 OFFCURVE",
"356 1 QCURVE SMOOTH",
"360 1 OFFCURVE",
"368 2 OFFCURVE",
"369 2 QCURVE SMOOTH",
"401 5 OFFCURVE",
"424 13 QCURVE SMOOTH",
"503 41 OFFCURVE",
"550 143 QCURVE SMOOTH",
"592 233 OFFCURVE",
"592 346 QCURVE SMOOTH",
"592 423 OFFCURVE",
"572 494 QCURVE SMOOTH",
"546 584 OFFCURVE",
"504 620 QCURVE SMOOTH",
"473 646 OFFCURVE",
"407 654 QCURVE SMOOTH",
"381 657 OFFCURVE",
"345 657 QCURVE SMOOTH",
"332 657 OFFCURVE",
"283 657 OFFCURVE",
"271 657 QCURVE SMOOTH",
"232 657 OFFCURVE",
"202 659 QCURVE",
"175 664 OFFCURVE",
"169 670 QCURVE",
"169 670 LINE",
"169 670 LINE"
);
},
{
closed = 1;
nodes = (
"169 670 LINE"
);
}
);
visible = 1;
width = 625;
},
{
anchors = (
{
name = bottom;
position = "{257, 0}";
}
);
associatedMasterId = m01;
layerId = "5341A84A-B732-4955-BA4D-D9E94868F177";
name = "Aug 19, 21, 12:54";
paths = (
{
closed = 1;
nodes = (
"80 -29 OFFCURVE",
"60 -13 OFFCURVE",
"60.2 7.7 CURVE SMOOTH",
"61 51 OFFCURVE",
"71 339 OFFCURVE",
"80.5 380.8 CURVE SMOOTH",
"86.8 408.8 OFFCURVE",
"113 452 OFFCURVE",
"112.7 460.6 CURVE SMOOTH",
"112 471 OFFCURVE",
"68 480 OFFCURVE",
"60 497 CURVE SMOOTH",
"56 507 OFFCURVE",
"53 536 OFFCURVE",
"53 556 CURVE SMOOTH",
"53 610 OFFCURVE",
"66 687 OFFCURVE",
"70 691 CURVE SMOOTH",
"74 695 OFFCURVE",
"87 696 OFFCURVE",
"94 696 CURVE SMOOTH",
"98 696 OFFCURVE",
"110 695 OFFCURVE",
"113 692 CURVE SMOOTH",
"120 685 OFFCURVE",
"128 655 OFFCURVE",
"146 648 CURVE SMOOTH",
"167 640 OFFCURVE",
"196 636 OFFCURVE",
"299.6 636.3 CURVE SMOOTH",
"349 636 OFFCURVE",
"383 630 OFFCURVE",
"415 613 CURVE SMOOTH",
"472 583 OFFCURVE",
"508 453 OFFCURVE",
"508 366 CURVE SMOOTH",
"508 211 OFFCURVE",
"450 22 OFFCURVE",
"314 22 CURVE SMOOTH",
"294 22 OFFCURVE",
"279 38 OFFCURVE",
"279 62 CURVE SMOOTH",
"279 95 OFFCURVE",
"325 114 OFFCURVE",
"351 129 CURVE SMOOTH",
"406 162 OFFCURVE",
"450 243 OFFCURVE",
"450.1 329.7 CURVE SMOOTH",
"450 432 OFFCURVE",
"402 468 OFFCURVE",
"314 468 CURVE SMOOTH",
"295 468 OFFCURVE",
"263 465 OFFCURVE",
"241 465 CURVE SMOOTH",
"227 465 OFFCURVE",
"208 468 OFFCURVE",
"191 468 CURVE SMOOTH",
"181 468 OFFCURVE",
"174 463 OFFCURVE",
"171 458 CURVE SMOOTH",
"163 447 OFFCURVE",
"147 402 OFFCURVE",
"147.7 380.1 CURVE SMOOTH",
"148 354 OFFCURVE",
"200 122 OFFCURVE",
"199.5 83.3 CURVE SMOOTH",
"200 35 OFFCURVE",
"132 -29 OFFCURVE",
"94 -29 CURVE SMOOTH"
);
}
);
visible = 1;
width = 541;
}
);
unicode = 05D7;
},
{
color = 5;
glyphname = "tet-hb";
layers = (
{
anchors = (
{
name = bottom;
position = "{384, 0}";
},
{
name = center;
position = "{364, 327}";
}
);
layerId = m01;
paths = (
{
closed = 1;
nodes = (
"141 -103 OFFCURVE",
"126 -99 OFFCURVE",
"126 -90 CURVE SMOOTH",
"126 -71 OFFCURVE",
"160 32 OFFCURVE",
"160 189 CURVE SMOOTH",
"159 496 OFFCURVE",
"26 501 OFFCURVE",
"26 541 CURVE SMOOTH",
"26 589 OFFCURVE",
"77 673 OFFCURVE",
"122 673 CURVE SMOOTH",
"150 673 OFFCURVE",
"205 540 OFFCURVE",
"213 364 CURVE SMOOTH",
"221 180 OFFCURVE",
"226 163 OFFCURVE",
"231 157 CURVE SMOOTH",
"239 148 OFFCURVE",
"277 141 OFFCURVE",
"333 141 CURVE SMOOTH",
"468 142 OFFCURVE",
"529 239 OFFCURVE",
"529 324 CURVE SMOOTH",
"529 437 OFFCURVE",
"438 497 OFFCURVE",
"379 497 CURVE SMOOTH",
"331 497 OFFCURVE",
"296 466 OFFCURVE",
"279 466 CURVE SMOOTH",
"268 466 OFFCURVE",
"260 492 OFFCURVE",
"260 505 CURVE SMOOTH",
"260 519 OFFCURVE",
"381 676 OFFCURVE",
"403 676 CURVE SMOOTH",
"519 676 OFFCURVE",
"586 480 OFFCURVE",
"586 341 CURVE SMOOTH",
"586 159 OFFCURVE",
"499 -24 OFFCURVE",
"308 -24 CURVE SMOOTH",
"245 -24 OFFCURVE",
"217 -7 OFFCURVE",
"205 -7 CURVE SMOOTH",
"195 -7 OFFCURVE",
"187 -103 OFFCURVE",
"170 -103 CURVE SMOOTH"
);
}
);
width = 600;
},
{
anchors = (
{
name = bottom;
position = "{384, -60}";
},
{
name = center;
position = "{444, 337}";
}
);
layerId = m002;
paths = (
{
closed = 1;
nodes = (
"145 -103 OFFCURVE",
"123 -98 OFFCURVE",
"123 -77 CURVE SMOOTH",
"123 -28 OFFCURVE",
"182 24 OFFCURVE",
"182 189 CURVE SMOOTH",
"182 443 OFFCURVE",
"27 484 OFFCURVE",
"27 534 CURVE SMOOTH",
"27 582 OFFCURVE",
"107 708 OFFCURVE",
"162 708 CURVE SMOOTH",
"213 708 OFFCURVE",
"283 626 OFFCURVE",
"291 450 CURVE SMOOTH",
"301 224 OFFCURVE",
"306 203 OFFCURVE",
"311 197 CURVE SMOOTH",
"319 188 OFFCURVE",
"357 181 OFFCURVE",
"413 181 CURVE SMOOTH",
"548 182 OFFCURVE",
"614 263 OFFCURVE",
"614 348 CURVE SMOOTH",
"614 461 OFFCURVE",
"533 500 OFFCURVE",
"474 500 CURVE SMOOTH",
"429 500 OFFCURVE",
"409 485 OFFCURVE",
"379 485 CURVE SMOOTH",
"363 485 OFFCURVE",
"337 518 OFFCURVE",
"337 541 CURVE SMOOTH",
"337 575 OFFCURVE",
"453 713 OFFCURVE",
"497 713 CURVE SMOOTH",
"624 713 OFFCURVE",
"710 540 OFFCURVE",
"710 371 CURVE SMOOTH",
"710 89 OFFCURVE",
"579 -24 OFFCURVE",
"378 -24 CURVE SMOOTH",
"322 -24 OFFCURVE",
"303 -10 OFFCURVE",
"274 -10 CURVE SMOOTH",
"245 -10 OFFCURVE",
"245 -103 OFFCURVE",
"196 -103 CURVE SMOOTH"
);
}
);
width = 745;
}
);
unicode = 05D8;
},
{
color = 5;
glyphname = "yod-hb";
layers = (
{
anchors = (
{
name = bottom;
position = "{95, 0}";
},
{
name = center;
position = "{45, 368}";
}
);
layerId = m01;
paths = (
{
closed = 1;
nodes = (
"118 241 OFFCURVE",
"101 258 OFFCURVE",
"101 269 CURVE SMOOTH",
"101 287 OFFCURVE",
"174 339 OFFCURVE",
"174 401 CURVE SMOOTH",
"174 426 OFFCURVE",
"163 434 OFFCURVE",
"135 445 CURVE SMOOTH",
"66 472 OFFCURVE",
"20 488 OFFCURVE",
"20 557 CURVE SMOOTH",
"20 613 OFFCURVE",
"46 669 OFFCURVE",
"59 679 CURVE SMOOTH",
"65 684 OFFCURVE",
"77 687 OFFCURVE",
"86 687 CURVE SMOOTH",
"92 687 OFFCURVE",
"96 684 OFFCURVE",
"96 676 CURVE SMOOTH",
"96 644 OFFCURVE",
"120 622 OFFCURVE",
"182 599 CURVE SMOOTH",
"235 579 OFFCURVE",
"260 545 OFFCURVE",
"260 502 CURVE SMOOTH",
"260 362 OFFCURVE",
"154 241 OFFCURVE",
"133 241 CURVE SMOOTH"
);
}
);
width = 270;
},
{
anchors = (
{
name = bottom;
position = "{95, 0}";
},
{
name = center;
position = "{25, 348}";
}
);
layerId = m002;
paths = (
{
closed = 1;
nodes = (
"136 214 OFFCURVE",
"106 244 OFFCURVE",
"106 260 CURVE SMOOTH",
"106 279 OFFCURVE",
"202 339 OFFCURVE",
"202 391 CURVE SMOOTH",
"202 416 OFFCURVE",
"183 425 OFFCURVE",
"124 436 CURVE SMOOTH",
"53 449 OFFCURVE",
"20 478 OFFCURVE",
"20 547 CURVE SMOOTH",
"20 592 OFFCURVE",
"46 660 OFFCURVE",
"54 672 CURVE SMOOTH",
"60 681 OFFCURVE",
"69 688 OFFCURVE",
"133 688 CURVE SMOOTH",
"141 688 OFFCURVE",
"146 685 OFFCURVE",
"146 670 CURVE SMOOTH",
"146 635 OFFCURVE",
"164 621 OFFCURVE",
"241 601 CURVE SMOOTH",
"305 584 OFFCURVE",
"342 549 OFFCURVE",
"342 488 CURVE SMOOTH",
"342 323 OFFCURVE",
"190 214 OFFCURVE",
"152 214 CURVE SMOOTH"
);
}
);
width = 354;
},
{
anchors = (
{
name = bottom;
position = "{95, 0}";
},
{
name = center;
position = "{45, 368}";
}
);
associatedMasterId = m002;
layerId = "7A1A5EB3-0B3B-46B6-9B2B-B8307F44015A";
name = "Aug 19, 21, 14:16";
paths = (
{
closed = 1;
nodes = (
"60 684 OFFCURVE",
"125 688 OFFCURVE",
"139 688 CURVE SMOOTH",
"144 688 OFFCURVE",
"146 684 OFFCURVE",
"146 679 CURVE SMOOTH",
"146 644 OFFCURVE",
"164 625 OFFCURVE",
"241 601 CURVE SMOOTH",
"305 581 OFFCURVE",
"342 544 OFFCURVE",
"342 502 CURVE SMOOTH",
"342 303 OFFCURVE",
"170 214 OFFCURVE",
"152 214 CURVE SMOOTH",
"142 214 OFFCURVE",
"98 254 OFFCURVE",
"98 270 CURVE SMOOTH",
"98 279 OFFCURVE",
"105 290 OFFCURVE",
"119 301 CURVE SMOOTH",
"145 321 OFFCURVE",
"202 365 OFFCURVE",
"202 401 CURVE SMOOTH",
"202 416 OFFCURVE",
"183 425 OFFCURVE",
"124 436 CURVE SMOOTH",
"53 449 OFFCURVE",
"20 478 OFFCURVE",
"20 547 CURVE SMOOTH",
"20 592 OFFCURVE",
"47 665 OFFCURVE",
"55 677 CURVE SMOOTH"
);
}
);
visible = 1;
width = 354;
},
{
anchors = (
{
name = bottom;
position = "{95, 0}";
},
{
name = center;
position = "{45, 368}";
}
);
associatedMasterId = m01;
layerId = "D37A13EF-882D-40B5-AA22-2585687E03E0";
name = "Aug 19, 21, 14:16";
paths = (
{
closed = 1;
nodes = (
"60 684 OFFCURVE",
"75 688 OFFCURVE",
"89 688 CURVE SMOOTH",
"94 688 OFFCURVE",
"96 684 OFFCURVE",
"96 679 CURVE SMOOTH",
"96 644 OFFCURVE",
"109 626 OFFCURVE",
"201 591 CURVE SMOOTH",
"235 578 OFFCURVE",
"258 544 OFFCURVE",
"258 502 CURVE SMOOTH",
"258 353 OFFCURVE",
"148 241 OFFCURVE",
"130 241 CURVE SMOOTH",
"120 241 OFFCURVE",
"101 258 OFFCURVE",
"101 269 CURVE SMOOTH",
"101 276 OFFCURVE",
"110 284 OFFCURVE",
"124 301 CURVE SMOOTH",
"145 326 OFFCURVE",
"174 365 OFFCURVE",
"174 401 CURVE SMOOTH",
"174 426 OFFCURVE",
"163 434 OFFCURVE",
"135 445 CURVE SMOOTH",
"66 472 OFFCURVE",
"20 488 OFFCURVE",
"20 557 CURVE SMOOTH",
"20 602 OFFCURVE",
"47 665 OFFCURVE",
"55 677 CURVE SMOOTH"
);
}
);
visible = 1;
width = 270;
}
);
unicode = 05D9;
},
{
color = 5;
glyphname = "kafFinal-hb";
layers = (
{
anchors = (
{
name = bottom;
position = "{232, -317}";
},
{
name = center;
position = "{155, 317}";
}
);
layerId = m01;
paths = (
{
closed = 1;
nodes = (
"289 -342 OFFCURVE",
"277 -327 OFFCURVE",
"277 -298 CURVE SMOOTH",
"277 -247 OFFCURVE",
"272 -57 OFFCURVE",
"272 124 CURVE SMOOTH",
"272 381 OFFCURVE",
"329 438 OFFCURVE",
"329 457 CURVE SMOOTH",
"329 465 OFFCURVE",
"326 470 OFFCURVE",
"318 470 CURVE SMOOTH",
"303 470 OFFCURVE",
"169 454 OFFCURVE",
"110 454 CURVE SMOOTH",
"51 454 OFFCURVE",
"25 495 OFFCURVE",
"25 558 CURVE SMOOTH",
"25 594 OFFCURVE",
"35 667 OFFCURVE",
"39 677 CURVE SMOOTH",
"43 686 OFFCURVE",
"63 694 OFFCURVE",
"75 694 CURVE SMOOTH",
"84 694 OFFCURVE",
"90 691 OFFCURVE",
"93 680 CURVE SMOOTH",
"97 665 OFFCURVE",
"114 628 OFFCURVE",
"195 628 CURVE SMOOTH",
"220 628 OFFCURVE",
"258 634 OFFCURVE",
"289 634 CURVE SMOOTH",
"377 634 OFFCURVE",
"406 572 OFFCURVE",
"406 509 CURVE SMOOTH",
"406 440 OFFCURVE",
"370 373 OFFCURVE",
"370 295 CURVE SMOOTH",
"370 219 OFFCURVE",
"424 -104 OFFCURVE",
"424 -200 CURVE SMOOTH",
"424 -260 OFFCURVE",
"367 -342 OFFCURVE",
"309 -342 CURVE SMOOTH"
);
}
);
width = 465;
},
{
anchors = (
{
name = bottom;
position = "{122, 283}";
},
{
name = center;
position = "{125, 300}";
}
);
associatedMasterId = m01;
layerId = "7D567AD8-DBA6-4E10-84D9-7E6D2FFA8F96";
name = "May 12, 21, 11:09";
paths = (
{
closed = 1;
nodes = (
"147 468.3 LINE SMOOTH",
"135.1 468.3 OFFCURVE",
"123.2 467.6 OFFCURVE",
"111.3 467.6 CURVE SMOOTH",
"92.4 467.6 OFFCURVE",
"73.5 469.7 OFFCURVE",
"57.4 480.9 CURVE SMOOTH",
"28.7 499.8 OFFCURVE",
"28 525 OFFCURVE",
"28 556.5 CURVE SMOOTH",
"28 557.9 LINE SMOOTH",
"28 583.1 OFFCURVE",
"29.4 607.6 OFFCURVE",
"32.2 632.8 CURVE SMOOTH",
"33.6 645.4 OFFCURVE",
"35 658 OFFCURVE",
"37.1 670.6 CURVE SMOOTH",
"37.1 674.8 OFFCURVE",
"37.1 682.5 OFFCURVE",
"39.9 686 CURVE SMOOTH",
"42 688.8 OFFCURVE",
"49 688.1 OFFCURVE",
"52.5 688.8 CURVE SMOOTH",
"64.4 690.2 OFFCURVE",
"76 692 OFFCURVE",
"88.2 694.4 CURVE",
"96 641 OFFCURVE",
"149.1 627.9 OFFCURVE",
"194.6 627.9 CURVE SMOOTH",
"222.6 627.9 OFFCURVE",
"254.8 633.5 OFFCURVE",
"285.6 633.5 CURVE SMOOTH",
"316.4 633.5 OFFCURVE",
"346.5 627.9 OFFCURVE",
"370.3 605.5 CURVE SMOOTH",
"378.7 597.8 OFFCURVE",
"385 588 OFFCURVE",
"390.6 578.2 CURVE SMOOTH",
"396.9 567 OFFCURVE",
"400.4 553.7 OFFCURVE",
"403.2 540.4 CURVE SMOOTH",
"405.3 529.9 OFFCURVE",
"406 519.4 OFFCURVE",
"406 508.9 CURVE SMOOTH",
"406 440.3 OFFCURVE",
"370.3 373.1 OFFCURVE",
"370.3 303.8 CURVE SMOOTH",
"370.3 295.4 LINE SMOOTH",
"370 240 OFFCURVE",
"380.8 185.5 OFFCURVE",
"387.8 130.2 CURVE SMOOTH",
"394.1 74.9 OFFCURVE",
"400.4 18.9 OFFCURVE",
"407.4 -37.1 CURVE SMOOTH",
"412.3 -74.2 OFFCURVE",
"416.5 -110.6 OFFCURVE",
"420 -147.7 CURVE SMOOTH",
"421.4 -163.1 OFFCURVE",
"424.2 -178.5 OFFCURVE",
"424.2 -193.2 CURVE SMOOTH",
"424.2 -195.3 OFFCURVE",
"424.2 -197.4 OFFCURVE",
"424.2 -199.5 CURVE SMOOTH",
"422.1 -242.2 OFFCURVE",
"403.2 -280 OFFCURVE",
"373.1 -310.1 CURVE SMOOTH",
"354.2 -329 OFFCURVE",
"336 -341.6 OFFCURVE",
"309 -342 CURVE SMOOTH",
"305.2 -341.6 LINE SMOOTH",
"290 -342 OFFCURVE",
"284.9 -309.4 OFFCURVE",
"284.2 -297.5 CURVE SMOOTH",
"283.5 -290.5 OFFCURVE",
"283.5 -283.5 OFFCURVE",
"283.5 -277.2 CURVE SMOOTH",
"283.5 -264.6 OFFCURVE",
"284.2 -251.3 OFFCURVE",
"284.2 -239.4 CURVE SMOOTH",
"284.2 -208.6 OFFCURVE",
"282.8 -177.8 OFFCURVE",
"282.8 -147 CURVE SMOOTH",
"282.8 -61.6 OFFCURVE",
"282.1 23.1 OFFCURVE",
"282.1 107.8 CURVE SMOOTH",
"282.1 123.9 LINE SMOOTH",
"282.1 207.9 OFFCURVE",
"282.8 291.2 OFFCURVE",
"302.4 374.5 CURVE SMOOTH",
"310.1 407.4 OFFCURVE",
"322.7 437.5 OFFCURVE",
"335.3 468.3 CURVE"
);
}
);
width = 465;
},
{
anchors = (
{
name = bottom;
position = "{262, -317}";
},
{
name = center;
position = "{162, 284}";
}
);
layerId = m002;
paths = (
{
closed = 1;
nodes = (
"346 -342 OFFCURVE",
"317 -327 OFFCURVE",
"317 -298 CURVE SMOOTH",
"317 -97 OFFCURVE",
"297 3 OFFCURVE",
"297 124 CURVE SMOOTH",
"297 271 OFFCURVE",
"359 418 OFFCURVE",
"359 437 CURVE SMOOTH",
"359 445 OFFCURVE",
"356 450 OFFCURVE",
"348 450 CURVE SMOOTH",
"213 450 OFFCURVE",
"149 430 OFFCURVE",
"110 430 CURVE SMOOTH",
"51 430 OFFCURVE",
"28 495 OFFCURVE",
"28 558 CURVE SMOOTH",
"28 594 OFFCURVE",
"35 667 OFFCURVE",
"39 677 CURVE SMOOTH",
"43 686 OFFCURVE",
"113 704 OFFCURVE",
"125 704 CURVE SMOOTH",
"134 704 OFFCURVE",
"140 701 OFFCURVE",
"143 690 CURVE SMOOTH",
"147 675 OFFCURVE",
"154 648 OFFCURVE",
"235 648 CURVE SMOOTH",
"260 648 OFFCURVE",
"338 654 OFFCURVE",
"369 654 CURVE SMOOTH",
"457 654 OFFCURVE",
"489 582 OFFCURVE",
"489 519 CURVE SMOOTH",
"489 450 OFFCURVE",
"453 383 OFFCURVE",
"453 305 CURVE SMOOTH",
"453 229 OFFCURVE",
"508 -84 OFFCURVE",
"508 -180 CURVE SMOOTH",
"508 -240 OFFCURVE",
"447 -342 OFFCURVE",
"369 -342 CURVE SMOOTH"
);
}
);
width = 549;
},
{
anchors = (
{
name = bottom;
position = "{232, -317}";
},
{
name = center;
position = "{154, 317}";
}
);
associatedMasterId = m002;
layerId = "43D9D259-383D-4778-9F8E-A7256B6C5100";
name = "Jul 23, 21, 01:19";
paths = (
{
closed = 1;
nodes = (
"343 382 QCURVE SMOOTH",
"331 333 OFFCURVE",
"312 155 OFFCURVE",
"309 136 QCURVE SMOOTH",
"309 135 LINE",
"309 120 LINE SMOOTH",
"309 79 OFFCURVE",
"310 -85 OFFCURVE",
"310 -126 QCURVE SMOOTH",
"310 -141 OFFCURVE",
"312 -203 OFFCURVE",
"312 -218 QCURVE SMOOTH",
"312 -224 OFFCURVE",
"310 -249 OFFCURVE",
"310 -256 QCURVE SMOOTH",
"310 -263 OFFCURVE",
"312 -279 QCURVE SMOOTH",
"315 -312 OFFCURVE",
"330 -328 QCURVE SMOOTH",
"339 -337 OFFCURVE",
"358 -341 QCURVE",
"359 -342 OFFCURVE",
"361 -342 QCURVE SMOOTH",
"365 -342 LINE SMOOTH",
"413 -342 OFFCURVE",
"451 -304 QCURVE SMOOTH",
"504 -251 OFFCURVE",
"508 -179 QCURVE SMOOTH",
"508 -178 OFFCURVE",
"508 -172 QCURVE SMOOTH",
"508 -169 OFFCURVE",
"504 -125 QCURVE SMOOTH",
"499 -69 OFFCURVE",
"491 -13 QCURVE SMOOTH",
"484 41 OFFCURVE",
"472 148 QCURVE SMOOTH",
"457 266 OFFCURVE",
"454 307 QCURVE SMOOTH",
"454 314 LINE SMOOTH",
"454 345 OFFCURVE",
"490 478 OFFCURVE",
"490 513 QCURVE SMOOTH",
"490 529 OFFCURVE",
"486 547 QCURVE",
"483 573 OFFCURVE",
"472 591 QCURVE SMOOTH",
"460 611 OFFCURVE",
"448 622 QCURVE SMOOTH",
"412 654 OFFCURVE",
"346 654 QCURVE SMOOTH",
"328 654 OFFCURVE",
"254 649 OFFCURVE",
"239 649 QCURVE SMOOTH",
"141 649 OFFCURVE",
"133 685 QCURVE SMOOTH",
"130 701 LINE",
"106 697 LINE",
"71 693 LINE SMOOTH",
"65 693 OFFCURVE",
"62 692 QCURVE SMOOTH",
"57 691 OFFCURVE",
"46 686 QCURVE",
"45 685 LINE",
"45 685 OFFCURVE",
"40 680 OFFCURVE",
"40 678 QCURVE",
"39 677 OFFCURVE",
"37 665 QCURVE SMOOTH",
"36 661 OFFCURVE",
"33 641 OFFCURVE",
"32 635 QCURVE SMOOTH",
"28 604 OFFCURVE",
"28 558 QCURVE SMOOTH",
"28 556 LINE SMOOTH",
"28 523 OFFCURVE",
"42 480 OFFCURVE",
"66 463 QCURVE SMOOTH",
"91 447 OFFCURVE",
"136 447 QCURVE SMOOTH",
"145 447 OFFCURVE",
"174 447 OFFCURVE",
"180 447 QCURVE SMOOTH",
"366 447 LINE",
"349 409 OFFCURVE"
);
}
);
visible = 1;
width = 549;
}
);
unicode = 05DA;
},
{
color = 5;
glyphname = "kaf-hb";
layers = (
{
anchors = (
{
name = bottom;
position = "{206, 0}";
},
{
name = center;
position = "{192, 329}";
}
);
layerId = m01;
paths = (
{
closed = 1;
nodes = (
"30 -17 OFFCURVE",
"23 -4 OFFCURVE",
"23 54 CURVE SMOOTH",
"23 123 OFFCURVE",
"26 160 OFFCURVE",
"99 160 CURVE SMOOTH",
"206 160 OFFCURVE",
"358 195 OFFCURVE",
"358 346 CURVE SMOOTH",
"358 431 OFFCURVE",
"315 477 OFFCURVE",
"230 477 CURVE SMOOTH",
"202 477 OFFCURVE",
"166 471 OFFCURVE",
"137 471 CURVE SMOOTH",
"72 471 OFFCURVE",
"18 477 OFFCURVE",
"15 571 CURVE SMOOTH",
"14 620 OFFCURVE",
"29 689 OFFCURVE",
"35 698 CURVE SMOOTH",
"40 706 OFFCURVE",
"60 708 OFFCURVE",
"73 708 CURVE SMOOTH",
"78 708 OFFCURVE",
"84 705 OFFCURVE",
"86 695 CURVE SMOOTH",
"93 653 OFFCURVE",
"137 642 OFFCURVE",
"165 642 CURVE SMOOTH",
"194 642 OFFCURVE",
"220 645 OFFCURVE",
"239 645 CURVE SMOOTH",
"362 645 OFFCURVE",
"415 525 OFFCURVE",
"415 368 CURVE SMOOTH",
"415 193 OFFCURVE",
"325 -17 OFFCURVE",
"63 -17 CURVE SMOOTH"
);
}
);
width = 465;
},
{
anchors = (
{
name = bottom;
position = "{256, 0}";
},
{
name = center;
position = "{242, 329}";
}
);
layerId = m002;
paths = (
{
closed = 1;
nodes = (
"42 -17 OFFCURVE",
"23 6 OFFCURVE",
"23 74 CURVE SMOOTH",
"23 145 OFFCURVE",
"39 191 OFFCURVE",
"105 191 CURVE SMOOTH",
"190 191 OFFCURVE",
"398 195 OFFCURVE",
"398 346 CURVE SMOOTH",
"398 431 OFFCURVE",
"345 450 OFFCURVE",
"230 450 CURVE SMOOTH",
"202 450 OFFCURVE",
"165 444 OFFCURVE",
"126 444 CURVE SMOOTH",
"61 444 OFFCURVE",
"15 477 OFFCURVE",
"15 571 CURVE SMOOTH",
"15 620 OFFCURVE",
"34 685 OFFCURVE",
"41 694 CURVE SMOOTH",
"46 700 OFFCURVE",
"70 708 OFFCURVE",
"113 708 CURVE SMOOTH",
"119 708 OFFCURVE",
"126 701 OFFCURVE",
"128 691 CURVE SMOOTH",
"136 653 OFFCURVE",
"167 643 OFFCURVE",
"205 643 CURVE SMOOTH",
"245 643 OFFCURVE",
"280 648 OFFCURVE",
"309 648 CURVE SMOOTH",
"432 648 OFFCURVE",
"499 525 OFFCURVE",
"499 368 CURVE SMOOTH",
"499 163 OFFCURVE",
"387 -17 OFFCURVE",
"80 -17 CURVE SMOOTH"
);
}
);
width = 549;
}
);
unicode = 05DB;
},
{
color = 5;
glyphname = "lamed-hb";
layers = (
{
anchors = (
{
name = bottom;
position = "{125, 0}";
},
{
name = center;
position = "{138, 306}";
}
);
layerId = m01;
paths = (
{
closed = 1;
nodes = (
"29 -40 OFFCURVE",
"22 -23 OFFCURVE",
"22 17 CURVE SMOOTH",
"22 108 OFFCURVE",
"35 145 OFFCURVE",
"75 145 CURVE SMOOTH",
"153 145 OFFCURVE",
"278 211 OFFCURVE",
"278 315 CURVE SMOOTH",
"277 392 OFFCURVE",
"219 425 OFFCURVE",
"147 458 CURVE SMOOTH",
"116 471 OFFCURVE",
"70 482 OFFCURVE",
"70 531 CURVE SMOOTH",
"70 544 OFFCURVE",
"82 720 OFFCURVE",
"82 774 CURVE SMOOTH",
"82 849 OFFCURVE",
"0 853 OFFCURVE",
"0 905 CURVE SMOOTH",
"0 934 OFFCURVE",
"12 1000 OFFCURVE",
"43 1000 CURVE SMOOTH",
"74 1000 OFFCURVE",
"176 952 OFFCURVE",
"176 900 CURVE SMOOTH",
"176 831 OFFCURVE",
"145 748 OFFCURVE",
"145 663 CURVE SMOOTH",
"145 656 OFFCURVE",
"149 653 OFFCURVE",
"162 648 CURVE SMOOTH",
"300 594 OFFCURVE",
"337 480 OFFCURVE",
"337 349 CURVE SMOOTH",
"336 145 OFFCURVE",
"200 -39 OFFCURVE",
"56 -40 CURVE SMOOTH"
);
}
);
width = 387;
},
{
anchors = (
{
name = bottom;
position = "{195, 0}";
},
{
name = center;
position = "{166, 318}";
}
);
layerId = m002;
paths = (
{
closed = 1;
nodes = (
"33 -40 OFFCURVE",
"22 -13 OFFCURVE",
"22 27 CURVE SMOOTH",
"22 103 OFFCURVE",
"35 185 OFFCURVE",
"83 185 CURVE SMOOTH",
"159 185 OFFCURVE",
"318 221 OFFCURVE",
"318 315 CURVE SMOOTH",
"318 392 OFFCURVE",
"219 415 OFFCURVE",
"147 448 CURVE SMOOTH",
"116 461 OFFCURVE",
"71 474 OFFCURVE",
"71 521 CURVE SMOOTH",
"71 594 OFFCURVE",
"83 700 OFFCURVE",
"83 754 CURVE SMOOTH",
"83 830 OFFCURVE",
"0 830 OFFCURVE",
"0 895 CURVE SMOOTH",
"0 951 OFFCURVE",
"16 1000 OFFCURVE",
"58 1000 CURVE SMOOTH",
"89 1000 OFFCURVE",
"243 952 OFFCURVE",
"243 892 CURVE SMOOTH",
"243 809 OFFCURVE",
"208 692 OFFCURVE",
"208 669 CURVE SMOOTH",
"208 652 OFFCURVE",
"216 647 OFFCURVE",
"229 643 CURVE SMOOTH",
"361 601 OFFCURVE",
"422 500 OFFCURVE",
"422 349 CURVE SMOOTH",
"422 145 OFFCURVE",
"294 -40 OFFCURVE",
"60 -40 CURVE SMOOTH"
);
}
);
width = 471;
},
{
anchors = (
{
name = bottom;
position = "{125, 0}";
},
{
name = center;
position = "{138, 306}";
}
);
associatedMasterId = m01;
layerId = "F92608EF-FDD0-4559-ABD9-B09E0C4E1DBA";
name = "Aug 19, 21, 15:36";
paths = (
{
closed = 1;
nodes = (
"29 -40 OFFCURVE",
"22 -23 OFFCURVE",
"21.7 16.8 CURVE SMOOTH",
"22 39 OFFCURVE",
"34 112 OFFCURVE",
"41 125 CURVE SMOOTH",
"49 140 OFFCURVE",
"65 143 OFFCURVE",
"79.8 145.6 CURVE SMOOTH",
"188 163 OFFCURVE",
"279 211 OFFCURVE",
"278.6 315 CURVE SMOOTH",
"278 392 OFFCURVE",
"219 425 OFFCURVE",
"147 457.8 CURVE SMOOTH",
"116 471 OFFCURVE",
"71 482 OFFCURVE",
"71.4 531.3 CURVE SMOOTH",
"71 544 OFFCURVE",
"82 720 OFFCURVE",
"83.3 774.2 CURVE SMOOTH",
"84 815 OFFCURVE",
"65 834 OFFCURVE",
"32.2 863.8 CURVE SMOOTH",
"23.8 870.1 OFFCURVE",
"2 884 OFFCURVE",
"1.4 895.3 CURVE SMOOTH",
"1 920 OFFCURVE",
"9 939 OFFCURVE",
"14 969 CURVE SMOOTH",
"17 986 OFFCURVE",
"22 1000 OFFCURVE",
"48.3 1000.3 CURVE SMOOTH",
"79 1001 OFFCURVE",
"176 952 OFFCURVE",
"176 921 CURVE SMOOTH",
"176 889 OFFCURVE",
"155 751 OFFCURVE",
"146 684 CURVE SMOOTH",
"145 677 OFFCURVE",
"145 668 OFFCURVE",
"145 663 CURVE SMOOTH",
"145 656 OFFCURVE",
"149 653 OFFCURVE",
"162 648 CURVE SMOOTH",
"300 594 OFFCURVE",
"337 480 OFFCURVE",
"336.7 348.6 CURVE SMOOTH",
"336 145 OFFCURVE",
"200 -39 OFFCURVE",
"56 -39.9 CURVE SMOOTH"
);
}
);
visible = 1;
width = 387;
},
{
anchors = (
{
name = bottom;
position = "{195, 0}";
},
{
name = center;
position = "{166, 318}";
}
);
associatedMasterId = m002;
layerId = "C3760595-393A-43CC-B028-181324E87228";
name = "Aug 19, 21, 15:36";
paths = (
{
closed = 1;
nodes = (
"33 -40 OFFCURVE",
"22 -13 OFFCURVE",
"22 27 CURVE SMOOTH",
"22 49 OFFCURVE",
"41 143 OFFCURVE",
"48 156 CURVE SMOOTH",
"56 171 OFFCURVE",
"77 182 OFFCURVE",
"92 185 CURVE SMOOTH",
"200 206 OFFCURVE",
"318 221 OFFCURVE",
"318 315 CURVE SMOOTH",
"318 392 OFFCURVE",
"219 415 OFFCURVE",
"147 448 CURVE SMOOTH",
"116 461 OFFCURVE",
"71 472 OFFCURVE",
"71 521 CURVE SMOOTH",
"71 594 OFFCURVE",
"83 700 OFFCURVE",
"83 754 CURVE SMOOTH",
"84 795 OFFCURVE",
"65 816 OFFCURVE",
"32 836 CURVE SMOOTH",
"23 841 OFFCURVE",
"1 874 OFFCURVE",
"1.4 895.3 CURVE SMOOTH",
"2 920 OFFCURVE",
"9 939 OFFCURVE",
"14 969 CURVE SMOOTH",
"17 986 OFFCURVE",
"32 1000 OFFCURVE",
"58 1000 CURVE SMOOTH",
"89 1001 OFFCURVE",
"243 952 OFFCURVE",
"243 921 CURVE SMOOTH",
"243 859 OFFCURVE",
"220 751 OFFCURVE",
"211 684 CURVE SMOOTH",
"210 677 OFFCURVE",
"208 662 OFFCURVE",
"208 657 CURVE SMOOTH",
"208 650 OFFCURVE",
"216 648 OFFCURVE",
"229 644 CURVE SMOOTH",
"361 602 OFFCURVE",
"422 500 OFFCURVE",
"422 349 CURVE SMOOTH",
"422 145 OFFCURVE",
"294 -40 OFFCURVE",
"60 -40 CURVE SMOOTH"
);
}
);
visible = 1;
width = 471;
}
);
unicode = 05DC;
},
{
color = 5;
glyphname = "memFinal-hb";
layers = (
{
anchors = (
{
name = bottom;
position = "{306, 0}";
}
);
layerId = m01;
paths = (
{
closed = 1;
nodes = (
"125 416 OFFCURVE",
"125 318 CURVE SMOOTH",
"125 223 OFFCURVE",
"164 142 OFFCURVE",
"321 142 CURVE SMOOTH",
"405 142 OFFCURVE",
"499 212 OFFCURVE",
"499.1 294 CURVE SMOOTH",
"499 412 OFFCURVE",
"446 460 OFFCURVE",
"333 460 CURVE SMOOTH",
"163 460 OFFCURVE"
);
},
{
closed = 1;
nodes = (
"130 -31 OFFCURVE",
"42 102 OFFCURVE",
"42 260.4 CURVE SMOOTH",
"42 404 OFFCURVE",
"109 442 OFFCURVE",
"109 461 CURVE SMOOTH",
"109 479 OFFCURVE",
"48 480 OFFCURVE",
"48 559 CURVE SMOOTH",
"48 616 OFFCURVE",
"59 667 OFFCURVE",
"70 684 CURVE SMOOTH",
"75 692 OFFCURVE",
"89 700 OFFCURVE",
"107 700 CURVE SMOOTH",
"112 700 OFFCURVE",
"121 698 OFFCURVE",
"125 681 CURVE SMOOTH",
"134 640 OFFCURVE",
"152 635 OFFCURVE",
"235 635 CURVE SMOOTH",
"278 635 OFFCURVE",
"308 639 OFFCURVE",
"366 639 CURVE SMOOTH",
"474 639 OFFCURVE",
"550 510 OFFCURVE",
"550 341 CURVE SMOOTH",
"550 189 OFFCURVE",
"497 -31 OFFCURVE",
"279 -31 CURVE SMOOTH"
);
}
);
width = 580;
},
{
anchors = (
{
name = bottom;
position = "{306, 0}";
}
);
layerId = m002;
paths = (
{
closed = 1;
nodes = (
"175 436 OFFCURVE",
"175 328 CURVE SMOOTH",
"175 228 OFFCURVE",
"244 162 OFFCURVE",
"351 162 CURVE SMOOTH",
"455 162 OFFCURVE",
"539 242 OFFCURVE",
"539 324 CURVE SMOOTH",
"539 439 OFFCURVE",
"466 460 OFFCURVE",
"353 460 CURVE SMOOTH",
"223 460 OFFCURVE"
);
},
{
closed = 1;
nodes = (
"140 -31 OFFCURVE",
"41 102 OFFCURVE",
"41 260 CURVE SMOOTH",
"41 394 OFFCURVE",
"104 431 OFFCURVE",
"104 450 CURVE SMOOTH",
"104 468 OFFCURVE",
"50 480 OFFCURVE",
"50 539 CURVE SMOOTH",
"50 606 OFFCURVE",
"58 665 OFFCURVE",
"73 680 CURVE SMOOTH",
"80 687 OFFCURVE",
"112 705 OFFCURVE",
"137 705 CURVE SMOOTH",
"148 705 OFFCURVE",
"153 699 OFFCURVE",
"163 683 CURVE SMOOTH",
"178 660 OFFCURVE",
"212 656 OFFCURVE",
"275 656 CURVE SMOOTH",
"338 656 OFFCURVE",
"368 664 OFFCURVE",
"426 664 CURVE SMOOTH",
"534 664 OFFCURVE",
"634 540 OFFCURVE",
"634 371 CURVE SMOOTH",
"634 119 OFFCURVE",
"537 -31 OFFCURVE",
"319 -31 CURVE SMOOTH"
);
}
);
width = 664;
},
{
anchors = (
{
name = bottom;
position = "{306, 0}";
}
);
associatedMasterId = m01;
layerId = "B85B09D9-08DC-4525-9013-1864F2DBB83C";
name = "Aug 19, 21, 18:49";
paths = (
{
closed = 1;
nodes = (
"114 698 OFFCURVE",
"115 698 QCURVE SMOOTH",
"71 694 LINE",
"73 692 OFFCURVE"
);
},
{
closed = 1;
nodes = (
"59 624 LINE",
"71 694 LINE"
);
},
{
closed = 1;
nodes = (
"281 470 QCURVE",
"333 470 LINE",
"398 464 LINE",
"442 454 LINE",
"476 414 LINE",
"495 368 LINE",
"499 294 LINE",
"482 237 LINE",
"451 195 LINE",
"400 162 LINE",
"350 141 LINE",
"306 143 LINE",
"241 151 LINE",
"234 154 OFFCURVE",
"230 156 QCURVE SMOOTH",
"218 163 OFFCURVE",
"211 165 QCURVE SMOOTH",
"202 168 OFFCURVE",
"199 170 QCURVE SMOOTH",
"193 174 OFFCURVE",
"187 181 QCURVE SMOOTH",
"174 193 OFFCURVE",
"167 200 QCURVE SMOOTH",
"157 210 LINE",
"127 262 LINE",
"125 326 LINE",
"136 391 LINE",
"149 439 OFFCURVE",
"192 462 QCURVE SMOOTH",
"236 485 OFFCURVE"
);
},
{
closed = 1;
nodes = (
"52 581 OFFCURVE",
"50 567 QCURVE SMOOTH",
"46 539 OFFCURVE",
"65 491 OFFCURVE",
"88 479 QCURVE SMOOTH",
"100 472 OFFCURVE",
"120 468 QCURVE",
"113 458 OFFCURVE",
"79 413 OFFCURVE",
"72 400 QCURVE SMOOTH",
"38 338 OFFCURVE",
"42 260 QCURVE SMOOTH",
"47 152 OFFCURVE",
"84 88 QCURVE SMOOTH",
"119 26 OFFCURVE",
"172 -3 QCURVE SMOOTH",
"229 -35 OFFCURVE",
"375 -26 OFFCURVE",
"427 14 QCURVE SMOOTH",
"517 84 OFFCURVE",
"541 232 QCURVE SMOOTH",
"559 337 OFFCURVE",
"542 432 QCURVE SMOOTH",
"530 502 OFFCURVE",
"495 559 QCURVE SMOOTH",
"471 599 OFFCURVE",
"440 617 QCURVE SMOOTH",
"414 630 OFFCURVE",
"356 635 QCURVE SMOOTH",
"350 636 OFFCURVE",
"291 634 OFFCURVE",
"286 634 QCURVE SMOOTH",
"231 633 OFFCURVE",
"175 640 QCURVE SMOOTH",
"149 643 OFFCURVE",
"115 673 OFFCURVE",
"115 698 QCURVE",
"71 694 LINE",
"69 670 OFFCURVE"
);
}
);
width = 580;
},
{
anchors = (
{
name = bottom;
position = "{306, 0}";
}
);
associatedMasterId = m002;
layerId = "9096A4A6-97DD-4E4A-B8A2-C39BB9621E97";
name = "Aug 19, 21, 19:05";
paths = (
{
closed = 1;
nodes = (
"314 454 QCURVE SMOOTH",
"318 453 LINE",
"378 453 LINE",
"448 447 LINE",
"488 438 LINE",
"518 406 LINE",
"536 366 LINE",
"540 300 LINE",
"524 251 LINE",
"494 214 LINE",
"443 184 LINE",
"394 165 LINE",
"351 167 LINE",
"283 175 LINE",
"282 176 OFFCURVE",
"277 178 OFFCURVE",
"276 178 QCURVE",
"274 179 OFFCURVE",
"256 187 OFFCURVE",
"251 188 QCURVE SMOOTH",
"246 190 OFFCURVE",
"242 192 QCURVE SMOOTH",
"239 193 OFFCURVE",
"234 198 QCURVE SMOOTH",
"225 206 OFFCURVE",
"210 219 QCURVE SMOOTH",
"204 223 OFFCURVE",
"202 226 QCURVE SMOOTH",
"174 272 LINE",
"172 328 LINE",
"183 390 LINE",
"194 428 OFFCURVE",
"234 447 QCURVE SMOOTH",
"255 458 OFFCURVE",
"284 458 QCURVE SMOOTH",
"300 458 OFFCURVE"
);
},
{
closed = 1;
nodes = (
"160 706 LINE",
"136 705 LINE",
"135 705 LINE",
"135 705 OFFCURVE",
"122 704 QCURVE SMOOTH",
"99 701 LINE",
"89 709 LINE",
"81 700 LINE",
"72 699 LINE",
"71 689 LINE",
"62 678 LINE",
"70 672 LINE",
"68 653 OFFCURVE",
"53 580 OFFCURVE",
"50 563 QCURVE SMOOTH",
"49 550 OFFCURVE",
"49 544 QCURVE SMOOTH",
"49 482 OFFCURVE",
"100 458 QCURVE",
"102 456 OFFCURVE",
"106 455 QCURVE",
"80 420 OFFCURVE",
"74 410 QCURVE SMOOTH",
"41 352 OFFCURVE",
"41 279 QCURVE SMOOTH",
"41 276 OFFCURVE",
"42 269 OFFCURVE",
"42 267 QCURVE SMOOTH",
"47 159 OFFCURVE",
"87 93 QCURVE SMOOTH",
"124 31 OFFCURVE",
"189 -1 QCURVE SMOOTH",
"253 -32 OFFCURVE",
"327 -32 QCURVE SMOOTH",
"427 -31 OFFCURVE",
"498 17 QCURVE SMOOTH",
"598 87 OFFCURVE",
"625 243 QCURVE SMOOTH",
"634 299 OFFCURVE",
"634 349 QCURVE SMOOTH",
"634 397 OFFCURVE",
"626 444 QCURVE SMOOTH",
"613 514 OFFCURVE",
"576 575 QCURVE SMOOTH",
"547 621 OFFCURVE",
"508 639 QCURVE SMOOTH",
"473 656 OFFCURVE",
"406 659 QCURVE SMOOTH",
"398 659 OFFCURVE",
"384 659 QCURVE SMOOTH",
"374 659 OFFCURVE",
"335 658 OFFCURVE",
"326 658 QCURVE SMOOTH",
"316 658 LINE SMOOTH",
"259 658 OFFCURVE",
"206 662 QCURVE SMOOTH",
"163 666 OFFCURVE",
"160 686 QCURVE",
"167 699 LINE",
"160 701 LINE"
);
}
);
visible = 1;
width = 664;
}
);
unicode = 05DD;
},
{
color = 5;
glyphname = "mem-hb";
layers = (
{
anchors = (
{
name = bottom;
position = "{309, 0}";
},
{
name = center;
position = "{368, 295}";
}
);
layerId = m01;
paths = (
{
closed = 1;
nodes = (
"43 -32 OFFCURVE",
"24 -11 OFFCURVE",
"24 20 CURVE SMOOTH",
"24 42 OFFCURVE",
"32 57 OFFCURVE",
"50 72 CURVE SMOOTH",
"153 159 OFFCURVE",
"164 218 OFFCURVE",
"164 297 CURVE SMOOTH",
"164 471 OFFCURVE",
"45 487 OFFCURVE",
"45 533 CURVE SMOOTH",
"45 563 OFFCURVE",
"89 655 OFFCURVE",
"126 655 CURVE SMOOTH",
"200 655 OFFCURVE",
"218 514 OFFCURVE",
"235 514 CURVE SMOOTH",
"246 514 OFFCURVE",
"261 545 OFFCURVE",
"311 618 CURVE SMOOTH",
"321 632 OFFCURVE",
"347 657 OFFCURVE",
"385 657 CURVE SMOOTH",
"509 657 OFFCURVE",
"571 562 OFFCURVE",
"571 359 CURVE SMOOTH",
"571 121 OFFCURVE",
"458 -19 OFFCURVE",
"343 -19 CURVE SMOOTH",
"315 -19 OFFCURVE",
"295 0 OFFCURVE",
"295 38 CURVE SMOOTH",
"295 65 OFFCURVE",
"316 89 OFFCURVE",
"344 97 CURVE SMOOTH",
"458 129 OFFCURVE",
"509 184 OFFCURVE",
"509 295 CURVE SMOOTH",
"509 395 OFFCURVE",
"440 472 OFFCURVE",
"348 472 CURVE SMOOTH",
"274 472 OFFCURVE",
"241 459 OFFCURVE",
"241 425 CURVE SMOOTH",
"241 299 OFFCURVE",
"227 -32 OFFCURVE",
"90 -32 CURVE SMOOTH"
);
}
);
width = 619;
},
{
anchors = (
{
name = bottom;
position = "{309, 0}";
},
{
name = center;
position = "{449, 305}";
}
);
layerId = m002;
paths = (
{
closed = 1;
nodes = (
"65 -31 OFFCURVE",
"24 -15 OFFCURVE",
"24 38 CURVE SMOOTH",
"24 66 OFFCURVE",
"35 96 OFFCURVE",
"75 122 CURVE SMOOTH",
"169 182 OFFCURVE",
"198 228 OFFCURVE",
"198 297 CURVE SMOOTH",
"198 450 OFFCURVE",
"45 460 OFFCURVE",
"45 533 CURVE SMOOTH",
"45 573 OFFCURVE",
"86 670 OFFCURVE",
"170 670 CURVE SMOOTH",
"267 670 OFFCURVE",
"278 549 OFFCURVE",
"300 549 CURVE SMOOTH",
"316 549 OFFCURVE",
"335 590 OFFCURVE",
"370 638 CURVE SMOOTH",
"386 660 OFFCURVE",
"415 675 OFFCURVE",
"455 675 CURVE SMOOTH",
"649 675 OFFCURVE",
"697 502 OFFCURVE",
"697 359 CURVE SMOOTH",
"697 146 OFFCURVE",
"598 -19 OFFCURVE",
"434 -19 CURVE SMOOTH",
"359 -19 OFFCURVE",
"338 17 OFFCURVE",
"338 52 CURVE SMOOTH",
"338 92 OFFCURVE",
"357 118 OFFCURVE",
"395 128 CURVE SMOOTH",
"468 147 OFFCURVE",
"595 182 OFFCURVE",
"595 295 CURVE SMOOTH",
"595 395 OFFCURVE",
"526 450 OFFCURVE",
"434 450 CURVE SMOOTH",
"340 450 OFFCURVE",
"316 433 OFFCURVE",
"316 400 CURVE SMOOTH",
"316 215 OFFCURVE",
"250 -31 OFFCURVE",
"105 -31 CURVE SMOOTH"
);
}
);
width = 745;
}
);
unicode = 05DE;
},
{
color = 5;
glyphname = "nunFinal-hb";
layers = (
{
anchors = (
{
name = bottom;
position = "{166, -310}";
}
);
layerId = m01;
paths = (
{
closed = 1;
nodes = (
"120 -332 OFFCURVE",
"114 -309 OFFCURVE",
"114 -286 CURVE SMOOTH",
"112.7 189 LINE SMOOTH",
"112 343 OFFCURVE",
"183 402 OFFCURVE",
"183 427 CURVE SMOOTH",
"183 440 OFFCURVE",
"175 444 OFFCURVE",
"112 471 CURVE SMOOTH",
"53 496 OFFCURVE",
"39 526 OFFCURVE",
"39 572 CURVE SMOOTH",
"39 625 OFFCURVE",
"49 679 OFFCURVE",
"66 702 CURVE SMOOTH",
"70 708 OFFCURVE",
"95 712 OFFCURVE",
"102 712 CURVE SMOOTH",
"109 712 OFFCURVE",
"110 710 OFFCURVE",
"114 699 CURVE SMOOTH",
"127 659 OFFCURVE",
"182 641 OFFCURVE",
"217 610 CURVE SMOOTH",
"245 586 OFFCURVE",
"249 568 OFFCURVE",
"248.5 532.7 CURVE SMOOTH",
"249 450 OFFCURVE",
"203 320 OFFCURVE",
"203.7 233.8 CURVE SMOOTH",
"204 180 OFFCURVE",
"255 -69 OFFCURVE",
"254.8 -192.5 CURVE SMOOTH",
"255 -246 OFFCURVE",
"198 -332 OFFCURVE",
"142 -332 CURVE SMOOTH"
);
}
);
width = 308;
},
{
associatedMasterId = m01;
layerId = "F972E7E2-4949-4DFA-8FAA-FEEE73A794F4";
name = "May 12, 21, 15:12";
paths = (
{
closed = 1;
nodes = (
"165.9 443.8 OFFCURVE",
"149.1 452.9 OFFCURVE",
"132.3 461.3 CURVE SMOOTH",
"102.9 474.6 OFFCURVE",
"67.9 489.3 OFFCURVE",
"51.8 519.4 CURVE SMOOTH",
"42.7 535.5 OFFCURVE",
"42 550.9 OFFCURVE",
"40.6 568.4 CURVE SMOOTH",
"40.6 575.4 OFFCURVE",
"39.9 581.7 OFFCURVE",
"39.9 588.7 CURVE SMOOTH",
"39.9 613.9 OFFCURVE",
"43.4 639.1 OFFCURVE",
"49 662.9 CURVE SMOOTH",
"51.8 674.1 OFFCURVE",
"55.3 684.6 OFFCURVE",
"59.5 695.1 CURVE SMOOTH",
"60.9 698.6 OFFCURVE",
"62.3 704.2 OFFCURVE",
"65.8 707 CURVE SMOOTH",
"69.3 709.1 OFFCURVE",
"74.9 708.4 OFFCURVE",
"78.4 709.1 CURVE SMOOTH",
"89.6 710.5 OFFCURVE",
"100 712 OFFCURVE",
"110.6 711.9 CURVE",
"118 659 OFFCURVE",
"182 641.2 OFFCURVE",
"217 610.4 CURVE SMOOTH",
"227.5 601.3 OFFCURVE",
"240.8 588 OFFCURVE",
"244.3 573.3 CURVE SMOOTH",
"247.8 560.7 OFFCURVE",
"248.5 546.7 OFFCURVE",
"248.5 532.7 CURVE SMOOTH",
"248.5 504 OFFCURVE",
"243.6 474.6 OFFCURVE",
"238.7 448 CURVE SMOOTH",
"226.8 382.2 OFFCURVE",
"207.2 315.7 OFFCURVE",
"204.4 249.2 CURVE SMOOTH",
"203.7 243.6 OFFCURVE",
"203.7 238.7 OFFCURVE",
"203.7 233.8 CURVE SMOOTH",
"203.7 215.6 OFFCURVE",
"205.1 197.4 OFFCURVE",
"207.9 179.9 CURVE SMOOTH",
"210.7 165.2 OFFCURVE",
"214.9 151.9 OFFCURVE",
"216.3 137.2 CURVE SMOOTH",
"224.7 63.7 OFFCURVE",
"234.5 -9.1 OFFCURVE",
"242.2 -82.6 CURVE SMOOTH",
"245.7 -117.6 OFFCURVE",
"253.4 -152.6 OFFCURVE",
"254.8 -187.6 CURVE SMOOTH",
"254.8 -189 OFFCURVE",
"254.8 -191.1 OFFCURVE",
"254.8 -192.5 CURVE SMOOTH",
"254.8 -233.1 OFFCURVE",
"231.7 -271.6 OFFCURVE",
"204.4 -299.6 CURVE SMOOTH",
"195.3 -308.7 OFFCURVE",
"184.8 -319.2 OFFCURVE",
"172.9 -324.8 CURVE SMOOTH",
"162.4 -330.4 OFFCURVE",
"148.4 -331.8 OFFCURVE",
"137.2 -331.8 CURVE SMOOTH",
"135.8 -331.8 OFFCURVE",
"134.4 -331.8 OFFCURVE",
"133 -331.8 CURVE SMOOTH",
"129.5 -331.8 OFFCURVE",
"126.7 -331.1 OFFCURVE",
"123.9 -328.3 CURVE SMOOTH",
"115.5 -319.2 OFFCURVE",
"114.8 -301 OFFCURVE",
"114.8 -286.3 CURVE SMOOTH",
"114.8 -282.1 OFFCURVE",
"114.8 -278.6 OFFCURVE",
"114.8 -275.1 CURVE SMOOTH",
"114.8 -231.7 OFFCURVE",
"113.4 -189 OFFCURVE",
"113.4 -145.6 CURVE SMOOTH",
"113.4 113.4 LINE SMOOTH",
"113.4 138.6 OFFCURVE",
"112.7 163.8 OFFCURVE",
"112.7 189 CURVE SMOOTH",
"112.7 217 OFFCURVE",
"114.1 244.3 OFFCURVE",
"119 272.3 CURVE SMOOTH",
"130.2 331.1 OFFCURVE",
"163.8 380.8 OFFCURVE",
"182.7 436.8 CURVE"
);
}
);
width = 308;
},
{
anchors = (
{
name = bottom;
position = "{166, -310}";
}
);
layerId = m002;
paths = (
{
closed = 1;
nodes = (
"120 -332 OFFCURVE",
"114 -309 OFFCURVE",
"114 -286 CURVE SMOOTH",
"112.7 189 LINE SMOOTH",
"112 343 OFFCURVE",
"183 402 OFFCURVE",
"183 427 CURVE SMOOTH",
"183 440 OFFCURVE",
"175 444 OFFCURVE",
"112 471 CURVE SMOOTH",
"53 496 OFFCURVE",
"39 526 OFFCURVE",
"39 572 CURVE SMOOTH",
"39 625 OFFCURVE",
"49 679 OFFCURVE",
"66 702 CURVE SMOOTH",
"70 708 OFFCURVE",
"95 712 OFFCURVE",
"102 712 CURVE SMOOTH",
"109 712 OFFCURVE",
"110 710 OFFCURVE",
"114 699 CURVE SMOOTH",
"127 659 OFFCURVE",
"182 641 OFFCURVE",
"217 610 CURVE SMOOTH",
"245 586 OFFCURVE",
"249 568 OFFCURVE",
"248.5 532.7 CURVE SMOOTH",
"249 450 OFFCURVE",
"203 320 OFFCURVE",
"203.7 233.8 CURVE SMOOTH",
"204 180 OFFCURVE",
"255 -69 OFFCURVE",
"254.8 -192.5 CURVE SMOOTH",
"255 -246 OFFCURVE",
"198 -332 OFFCURVE",
"142 -332 CURVE SMOOTH"
);
}
);
width = 308;
}
);
unicode = 05DF;
},
{
color = 5;
glyphname = "nun-hb";
layers = (
{
anchors = (
{
name = bottom;
position = "{170, 0}";
},
{
name = center;
position = "{104, 317}";
}
);
layerId = m01;
paths = (
{
closed = 1;
nodes = (
"23 -38 OFFCURVE",
"15 -13 OFFCURVE",
"15 0 CURVE SMOOTH",
"15 21 OFFCURVE",
"27 119 OFFCURVE",
"35 132 CURVE SMOOTH",
"39 139 OFFCURVE",
"51 144 OFFCURVE",
"62 147 CURVE SMOOTH",
"155 173 OFFCURVE",
"244 203 OFFCURVE",
"244 330 CURVE SMOOTH",
"244 419 OFFCURVE",
"186 446 OFFCURVE",
"88 481 CURVE SMOOTH",
"63 490 OFFCURVE",
"52 501 OFFCURVE",
"52 520 CURVE SMOOTH",
"52 568 OFFCURVE",
"83 621 OFFCURVE",
"106 640 CURVE SMOOTH",
"116 648 OFFCURVE",
"134 652 OFFCURVE",
"155 652 CURVE SMOOTH",
"182 652 OFFCURVE",
"238 618 OFFCURVE",
"266 560 CURVE SMOOTH",
"290 509 OFFCURVE",
"298 439 OFFCURVE",
"298 363 CURVE SMOOTH",
"298 299 OFFCURVE",
"291 222 OFFCURVE",
"262 159 CURVE SMOOTH",
"216 59 OFFCURVE",
"132 -38 OFFCURVE",
"42 -38 CURVE SMOOTH"
);
}
);
width = 347;
},
{
anchors = (
{
name = center;
position = "{81, 318}";
}
);
associatedMasterId = m01;
layerId = "85E84D20-5B2E-44A6-85C2-3E22B9AE03EC";
name = "May 12, 21, 15:21";
paths = (
{
closed = 1;
nodes = (
"160.3 651.7 OFFCURVE",
"160.3 651.7 OFFCURVE",
"161 651.7 CURVE SMOOTH",
"175.7 651.7 OFFCURVE",
"196 637 OFFCURVE",
"207.2 629.3 CURVE SMOOTH",
"261.1 592.9 OFFCURVE",
"280.7 536.2 OFFCURVE",
"289.8 474.6 CURVE SMOOTH",
"294.7 438.2 OFFCURVE",
"297 401 OFFCURVE",
"297.5 363.3 CURVE SMOOTH",
"298 249 OFFCURVE",
"270.9 133.7 OFFCURVE",
"193.2 47.6 CURVE SMOOTH",
"161.7 11.9 OFFCURVE",
"116.9 -24.5 OFFCURVE",
"69.3 -32.9 CURVE SMOOTH",
"60.9 -34.3 OFFCURVE",
"52.5 -37.8 OFFCURVE",
"44.1 -37.8 CURVE SMOOTH",
"42.7 -37.8 OFFCURVE",
"42 -37.8 OFFCURVE",
"40.6 -37.8 CURVE SMOOTH",
"22.4 -35.7 OFFCURVE",
"18.9 -13.3 OFFCURVE",
"17.5 2.1 CURVE SMOOTH",
"16.8 6.3 OFFCURVE",
"16.8 10.5 OFFCURVE",
"16.8 14.7 CURVE SMOOTH",
"16.8 39.2 OFFCURVE",
"23.1 63.7 OFFCURVE",
"25.2 88.2 CURVE SMOOTH",
"26.6 102.9 OFFCURVE",
"28 122.5 OFFCURVE",
"35.7 135.1 CURVE SMOOTH",
"42 143.5 OFFCURVE",
"51.8 144.9 OFFCURVE",
"61.6 147 CURVE SMOOTH",
"79.8 152.6 OFFCURVE",
"98.7 157.5 OFFCURVE",
"116.9 164.5 CURVE SMOOTH",
"154.7 178.5 OFFCURVE",
"195.3 196.7 OFFCURVE",
"217.7 232.4 CURVE SMOOTH",
"232 255 OFFCURVE",
"244 299 OFFCURVE",
"243.6 330.4 CURVE SMOOTH",
"243.6 357.7 OFFCURVE",
"237.3 385 OFFCURVE",
"221.2 406.7 CURVE SMOOTH",
"205.8 426.3 OFFCURVE",
"185.5 440.3 OFFCURVE",
"163.1 449.4 CURVE SMOOTH",
"137.9 460.6 OFFCURVE",
"110.6 469.7 OFFCURVE",
"85.4 482.3 CURVE SMOOTH",
"77.7 486.5 OFFCURVE",
"63.7 490.7 OFFCURVE",
"58.1 499.1 CURVE SMOOTH",
"53.9 505.4 OFFCURVE",
"53.2 515.2 OFFCURVE",
"52.5 522.9 CURVE SMOOTH",
"51.8 525.7 OFFCURVE",
"51.8 528.5 OFFCURVE",
"51.8 532 CURVE SMOOTH",
"51.8 561.4 OFFCURVE",
"69.3 592.2 OFFCURVE",
"86.1 615.3 CURVE SMOOTH",
"92.4 624.4 OFFCURVE",
"98.7 637 OFFCURVE",
"107.8 643.3 CURVE SMOOTH",
"122.5 652.4 OFFCURVE",
"142.8 650.3 OFFCURVE",
"159.6 651.7 CURVE SMOOTH"
);
}
);
width = 347;
},
{
anchors = (
{
name = bottom;
position = "{170, 0}";
},
{
name = center;
position = "{104, 317}";
}
);
layerId = m002;
paths = (
{
closed = 1;
nodes = (
"23 -38 OFFCURVE",
"15 -13 OFFCURVE",
"15 0 CURVE SMOOTH",
"15 21 OFFCURVE",
"27 119 OFFCURVE",
"35 132 CURVE SMOOTH",
"39 139 OFFCURVE",
"51 144 OFFCURVE",
"62 147 CURVE SMOOTH",
"155 173 OFFCURVE",
"244 203 OFFCURVE",
"244 330 CURVE SMOOTH",
"244 419 OFFCURVE",
"186 446 OFFCURVE",
"88 481 CURVE SMOOTH",
"63 490 OFFCURVE",
"52 501 OFFCURVE",
"52 520 CURVE SMOOTH",
"52 568 OFFCURVE",
"83 621 OFFCURVE",
"106 640 CURVE SMOOTH",
"116 648 OFFCURVE",
"134 652 OFFCURVE",
"155 652 CURVE SMOOTH",
"182 652 OFFCURVE",
"238 618 OFFCURVE",
"266 560 CURVE SMOOTH",
"290 509 OFFCURVE",
"298 439 OFFCURVE",
"298 363 CURVE SMOOTH",
"298 299 OFFCURVE",
"291 222 OFFCURVE",
"262 159 CURVE SMOOTH",
"216 59 OFFCURVE",
"132 -38 OFFCURVE",
"42 -38 CURVE SMOOTH"
);
}
);
width = 347;
}
);
unicode = 05E0;
},
{
color = 5;
glyphname = "samekh-hb";
layers = (
{
anchors = (
{
name = bottom;
position = "{326, 0}";
},
{
name = center;
position = "{303, 303}";
}
);
layerId = m01;
paths = (
{
closed = 1;
nodes = (
"433 141 OFFCURVE",
"481 248 OFFCURVE",
"480.9 342.3 CURVE SMOOTH",
"481 446 OFFCURVE",
"429 462 OFFCURVE",
"200 462 CURVE SMOOTH",
"180 462 OFFCURVE",
"122 389 OFFCURVE",
"122 338 CURVE SMOOTH",
"122 247 OFFCURVE",
"162 140 OFFCURVE",
"327.6 140.7 CURVE SMOOTH"
);
},
{
closed = 1;
nodes = (
"40 -132 OFFCURVE",
"29 -106 OFFCURVE",
"29 -77 CURVE SMOOTH",
"29 -35 OFFCURVE",
"61 -7 OFFCURVE",
"61 297 CURVE SMOOTH",
"61 421 OFFCURVE",
"121 456 OFFCURVE",
"121 467 CURVE SMOOTH",
"121 480 OFFCURVE",
"60 488 OFFCURVE",
"60 530 CURVE SMOOTH",
"60 586 OFFCURVE",
"73 667 OFFCURVE",
"77 678 CURVE SMOOTH",
"82 692 OFFCURVE",
"102 699 OFFCURVE",
"116 699 CURVE SMOOTH",
"134 699 OFFCURVE",
"123 638 OFFCURVE",
"181 638 CURVE SMOOTH",
"236 638 OFFCURVE",
"290 645 OFFCURVE",
"329 645 CURVE SMOOTH",
"517 645 OFFCURVE",
"539 444 OFFCURVE",
"539 320.6 CURVE SMOOTH",
"539 151 OFFCURVE",
"455 -30 OFFCURVE",
"297 -32 CURVE SMOOTH",
"230 -32 OFFCURVE",
"163 10 OFFCURVE",
"140 64 CURVE SMOOTH",
"133 80 OFFCURVE",
"120 99 OFFCURVE",
"113 99 CURVE SMOOTH",
"104 99 OFFCURVE",
"102 87 OFFCURVE",
"102 77 CURVE SMOOTH",
"102 40 OFFCURVE",
"136 -39 OFFCURVE",
"136 -74 CURVE SMOOTH",
"136 -105 OFFCURVE",
"118 -132 OFFCURVE",
"76 -132 CURVE SMOOTH"
);
}
);
width = 580;
},
{
anchors = (
{
name = center;
position = "{303, 303}";
}
);
associatedMasterId = m01;
layerId = "196F75D4-B598-4791-8564-F8E607AE5824";
name = "May 12, 21, 15:33";
paths = (
{
closed = 1;
nodes = (
"168 426.3 LINE",
"151.2 396.9 LINE",
"132.3 365.4 LINE",
"121.8 338.1 LINE",
"123.9 294 LINE",
"138.6 249.9 LINE",
"163.8 203.7 LINE",
"189 178.5 LINE",
"212.1 165.9 LINE",
"233.1 153.3 LINE",
"283.5 142.8 LINE",
"327.6 140.7 LINE",
"369.6 151.2 LINE",
"409.5 170.1 LINE",
"453.6 212.1 LINE",
"474.6 264.6 LINE",
"480.9 342.3 LINE",
"476.7 386.4 LINE",
"464.1 413.7 LINE",
"438.9 441 LINE",
"405.3 457.8 LINE",
"348.6 468.3 LINE",
"279.3 466.2 LINE",
"193.2 464.1 LINE"
);
},
{
closed = 1;
nodes = (
"105 94.5 OFFCURVE",
"104.3 84 OFFCURVE",
"104.3 72.8 CURVE SMOOTH",
"104.3 41.3 OFFCURVE",
"114.1 9.1 OFFCURVE",
"122.5 -20.3 CURVE SMOOTH",
"127.4 -38.5 OFFCURVE",
"133.7 -56 OFFCURVE",
"133.7 -74.2 CURVE SMOOTH",
"133.7 -83.3 OFFCURVE",
"132.3 -91.7 OFFCURVE",
"128.8 -100.1 CURVE SMOOTH",
"119 -124.6 OFFCURVE",
"97.3 -128.1 OFFCURVE",
"74.2 -128.1 CURVE SMOOTH",
"72.1 -128.1 LINE SMOOTH",
"65.1 -128.1 OFFCURVE",
"54.6 -128.1 OFFCURVE",
"49 -123.9 CURVE SMOOTH",
"39.9 -117.6 OFFCURVE",
"35 -101.5 OFFCURVE",
"32.9 -91.7 CURVE SMOOTH",
"31.5 -84 OFFCURVE",
"30.8 -77 OFFCURVE",
"30.8 -70 CURVE SMOOTH",
"30.8 -28 OFFCURVE",
"53.2 14.7 OFFCURVE",
"56 55.3 CURVE SMOOTH",
"61.6 129.5 OFFCURVE",
"58.8 204.4 OFFCURVE",
"62.3 277.9 CURVE SMOOTH",
"63 302.4 OFFCURVE",
"61.6 327.6 OFFCURVE",
"63.7 352.1 CURVE",
"64.4 353.5 OFFCURVE",
"64.4 354.2 OFFCURVE",
"64.4 355.6 CURVE SMOOTH",
"64.4 358.4 OFFCURVE",
"63.7 361.2 OFFCURVE",
"63.7 364 CURVE SMOOTH",
"63.7 366.1 OFFCURVE",
"64.4 368.9 OFFCURVE",
"65.1 371.7 CURVE SMOOTH",
"70.7 394.1 OFFCURVE",
"91 417.2 OFFCURVE",
"105 435.4 CURVE SMOOTH",
"109.2 441 OFFCURVE",
"121.8 452.2 OFFCURVE",
"122.5 459.2 CURVE SMOOTH",
"122.5 459.9 OFFCURVE",
"122.5 459.9 OFFCURVE",
"122.5 459.9 CURVE SMOOTH",
"122.5 466.2 OFFCURVE",
"103.6 474.6 OFFCURVE",
"99.4 477.4 CURVE SMOOTH",
"79.1 488.6 OFFCURVE",
"65.8 498.4 OFFCURVE",
"60.9 522.2 CURVE SMOOTH",
"59.5 531.3 OFFCURVE",
"58.8 541.1 OFFCURVE",
"58.8 550.2 CURVE SMOOTH",
"58.8 582.4 OFFCURVE",
"67 614 OFFCURVE",
"70.7 645.4 CURVE SMOOTH",
"74.9 676.9 LINE SMOOTH",
"75 680 OFFCURVE",
"74.2 685.3 OFFCURVE",
"77 688.8 CURVE",
"88.2 699.3 OFFCURVE",
"109.2 693.7 OFFCURVE",
"122.5 697.2 CURVE",
"126.7 683.9 OFFCURVE",
"127.4 666.4 OFFCURVE",
"137.2 655.2 CURVE SMOOTH",
"150.5 641.2 OFFCURVE",
"168.7 639.8 OFFCURVE",
"186.9 638.4 CURVE SMOOTH",
"198.8 637.7 OFFCURVE",
"211.4 637.7 OFFCURVE",
"223.3 637.7 CURVE SMOOTH",
"234.5 637.7 OFFCURVE",
"245 637.7 OFFCURVE",
"255.5 637.7 CURVE SMOOTH",
"261.1 637.7 OFFCURVE",
"267.4 637.7 OFFCURVE",
"273 637.7 CURVE SMOOTH",
"345.8 637.7 OFFCURVE",
"430.5 635.6 OFFCURVE",
"478.8 575.4 CURVE SMOOTH",
"510.3 537.6 OFFCURVE",
"520.8 480.9 OFFCURVE",
"529.2 433.3 CURVE SMOOTH",
"535.5 396.9 OFFCURVE",
"539 359.1 OFFCURVE",
"539 320.6 CURVE SMOOTH",
"539 228.9 OFFCURVE",
"518.7 136.5 OFFCURVE",
"464.8 64.4 CURVE SMOOTH",
"429.8 18.2 OFFCURVE",
"384.3 -21.7 OFFCURVE",
"325.5 -30.1 CURVE SMOOTH",
"315.7 -31.5 OFFCURVE",
"306.6 -31.5 OFFCURVE",
"296.8 -31.5 CURVE SMOOTH",
"244.3 -31.5 OFFCURVE",
"197.4 -11.2 OFFCURVE",
"161.7 32.2 CURVE SMOOTH",
"152.6 43.4 OFFCURVE",
"144.2 55.3 OFFCURVE",
"137.2 67.9 CURVE SMOOTH",
"128.8 84 OFFCURVE",
"126 97.3 OFFCURVE",
"107.8 105 CURVE"
);
}
);
width = 580;
},
{
anchors = (
{
name = bottom;
position = "{326, 0}";
},
{
name = center;
position = "{303, 303}";
}
);
layerId = m002;
paths = (
{
closed = 1;
nodes = (
"433 141 OFFCURVE",
"481 248 OFFCURVE",
"480.9 342.3 CURVE SMOOTH",
"481 446 OFFCURVE",
"429 462 OFFCURVE",
"200 462 CURVE SMOOTH",
"180 462 OFFCURVE",
"122 389 OFFCURVE",
"122 338 CURVE SMOOTH",
"122 247 OFFCURVE",
"162 140 OFFCURVE",
"327.6 140.7 CURVE SMOOTH"
);
},
{
closed = 1;
nodes = (
"40 -132 OFFCURVE",
"29 -106 OFFCURVE",
"29 -77 CURVE SMOOTH",
"29 -35 OFFCURVE",
"61 -7 OFFCURVE",
"61 297 CURVE SMOOTH",
"61 421 OFFCURVE",
"121 456 OFFCURVE",
"121 467 CURVE SMOOTH",
"121 480 OFFCURVE",
"60 488 OFFCURVE",
"60 530 CURVE SMOOTH",
"60 586 OFFCURVE",
"73 667 OFFCURVE",
"77 678 CURVE SMOOTH",
"82 692 OFFCURVE",
"102 699 OFFCURVE",
"116 699 CURVE SMOOTH",
"134 699 OFFCURVE",
"123 638 OFFCURVE",
"181 638 CURVE SMOOTH",
"236 638 OFFCURVE",
"290 645 OFFCURVE",
"329 645 CURVE SMOOTH",
"517 645 OFFCURVE",
"539 444 OFFCURVE",
"539 320.6 CURVE SMOOTH",
"539 151 OFFCURVE",
"455 -30 OFFCURVE",
"297 -32 CURVE SMOOTH",
"230 -32 OFFCURVE",
"163 10 OFFCURVE",
"140 64 CURVE SMOOTH",
"133 80 OFFCURVE",
"120 99 OFFCURVE",
"113 99 CURVE SMOOTH",
"104 99 OFFCURVE",
"102 87 OFFCURVE",
"102 77 CURVE SMOOTH",
"102 40 OFFCURVE",
"136 -39 OFFCURVE",
"136 -74 CURVE SMOOTH",
"136 -105 OFFCURVE",
"118 -132 OFFCURVE",
"76 -132 CURVE SMOOTH"
);
}
);
width = 580;
}
);
unicode = 05E1;
},
{
color = 5;
glyphname = "ayin-hb";
layers = (
{
anchors = (
{
name = bottom;
position = "{276, 0}";
}
);
layerId = m01;
paths = (
{
closed = 1;
nodes = (
"36 -33 OFFCURVE",
"18 -27 OFFCURVE",
"18 24 CURVE SMOOTH",
"18 48 OFFCURVE",
"24 72 OFFCURVE",
"29 92 CURVE SMOOTH",
"33 113 OFFCURVE",
"36 141 OFFCURVE",
"56 141 CURVE SMOOTH",
"74 141 OFFCURVE",
"91 132 OFFCURVE",
"160 132 CURVE SMOOTH",
"172 132 OFFCURVE",
"178 139 OFFCURVE",
"178 151 CURVE SMOOTH",
"178 250 OFFCURVE",
"166 389 OFFCURVE",
"147 436 CURVE SMOOTH",
"137 461 OFFCURVE",
"76 483 OFFCURVE",
"76 528 CURVE SMOOTH",
"76 555 OFFCURVE",
"103 659 OFFCURVE",
"131 659 CURVE SMOOTH",
"172 659 OFFCURVE",
"242 604 OFFCURVE",
"242 566 CURVE SMOOTH",
"242 531 OFFCURVE",
"212 388 OFFCURVE",
"231 167 CURVE SMOOTH",
"233 146 OFFCURVE",
"239 140 OFFCURVE",
"261 140 CURVE SMOOTH",
"382 140 OFFCURVE",
"482 216 OFFCURVE",
"482 338 CURVE SMOOTH",
"482 417 OFFCURVE",
"427 452 OFFCURVE",
"379 461 CURVE SMOOTH",
"323 471 OFFCURVE",
"299 485 OFFCURVE",
"299 510 CURVE SMOOTH",
"299 548 OFFCURVE",
"347 658 OFFCURVE",
"386 658 CURVE SMOOTH",
"457 658 OFFCURVE",
"537 525 OFFCURVE",
"537 382 CURVE SMOOTH",
"537 121 OFFCURVE",
"384 -33 OFFCURVE",
"81 -33 CURVE SMOOTH"
);
}
);
width = 580;
},
{
associatedMasterId = m01;
layerId = "7000A208-15B8-4F9B-963D-73C913FFCF61";
name = "May 12, 21, 16:04";
paths = (
{
closed = 1;
nodes = (
"254.8 144.2 OFFCURVE",
"277.2 148.4 OFFCURVE",
"299.6 151.9 CURVE SMOOTH",
"336.7 158.9 OFFCURVE",
"376.6 166.6 OFFCURVE",
"408.1 188.3 CURVE SMOOTH",
"451.5 218.4 OFFCURVE",
"482.3 280 OFFCURVE",
"482.3 338.1 CURVE SMOOTH",
"482.3 366.1 OFFCURVE",
"474.6 394.1 OFFCURVE",
"457.8 415.8 CURVE SMOOTH",
"433.3 448.7 OFFCURVE",
"396.9 457.1 OFFCURVE",
"359.8 466.2 CURVE SMOOTH",
"345.1 469.7 OFFCURVE",
"330.4 473.9 OFFCURVE",
"317.1 480.2 CURVE SMOOTH",
"312.2 483 OFFCURVE",
"305.9 485.1 OFFCURVE",
"302.4 490 CURVE",
"300.3 494.2 OFFCURVE",
"298.9 498.4 OFFCURVE",
"298.9 503.3 CURVE SMOOTH",
"298.9 515.2 OFFCURVE",
"305.2 527.8 OFFCURVE",
"308.7 537.6 CURVE SMOOTH",
"319.9 570.5 OFFCURVE",
"329.7 607.6 OFFCURVE",
"352.1 634.9 CURVE SMOOTH",
"360.5 646.1 OFFCURVE",
"369.6 658 OFFCURVE",
"385 658.7 CURVE SMOOTH",
"385.7 658.7 OFFCURVE",
"386.4 658.7 OFFCURVE",
"387.1 658.7 CURVE SMOOTH",
"404.6 658.7 OFFCURVE",
"417.9 644.7 OFFCURVE",
"431.9 634.9 CURVE SMOOTH",
"480.2 602 OFFCURVE",
"511 543.2 OFFCURVE",
"525 487.2 CURVE SMOOTH",
"533.4 452.2 OFFCURVE",
"536.9 417.9 OFFCURVE",
"536.9 382.2 CURVE SMOOTH",
"536.9 247.8 OFFCURVE",
"482.3 95.9 OFFCURVE",
"357.7 28.7 CURVE SMOOTH",
"282.8 -11.9 OFFCURVE",
"196 -32.9 OFFCURVE",
"110.6 -32.9 CURVE SMOOTH",
"46 -33 OFFCURVE",
"18 -40 OFFCURVE",
"17.5 23.8 CURVE SMOOTH",
"17.5 47.6 OFFCURVE",
"23.8 72.1 OFFCURVE",
"28.7 92.4 CURVE SMOOTH",
"31.5 104.3 OFFCURVE",
"32.2 126 OFFCURVE",
"44.8 132.3 CURVE SMOOTH",
"46.9 133 OFFCURVE",
"49.7 133.7 OFFCURVE",
"53.2 133.7 CURVE SMOOTH",
"58.8 133.7 OFFCURVE",
"65.8 132.3 OFFCURVE",
"70.7 132.3 CURVE SMOOTH",
"86.8 132.3 OFFCURVE",
"102.2 132.3 OFFCURVE",
"117.6 132.3 CURVE SMOOTH",
"140.7 132.3 LINE SMOOTH",
"142.1 132.3 OFFCURVE",
"142.8 132.3 OFFCURVE",
"144.2 132.3 CURVE SMOOTH",
"153.3 132.3 OFFCURVE",
"170.8 132.3 OFFCURVE",
"175 138.6 CURVE",
"177.8 141.4 OFFCURVE",
"177.8 148.4 OFFCURVE",
"177.8 154.7 CURVE SMOOTH",
"177.8 158.2 OFFCURVE",
"177.8 162.4 OFFCURVE",
"177.8 165.2 CURVE SMOOTH",
"177.8 165.9 OFFCURVE",
"177.8 166.6 OFFCURVE",
"177.8 167.3 CURVE SMOOTH",
"177.8 172.2 OFFCURVE",
"178.5 177.1 OFFCURVE",
"178.5 182 CURVE SMOOTH",
"178.5 217 OFFCURVE",
"173.6 251.3 OFFCURVE",
"170.8 285.6 CURVE SMOOTH",
"168.7 322 OFFCURVE",
"165.9 357 OFFCURVE",
"158.2 392.7 CURVE SMOOTH",
"155.4 407.4 OFFCURVE",
"153.3 423.5 OFFCURVE",
"147.7 437.5 CURVE SMOOTH",
"143.5 447.3 OFFCURVE",
"129.5 455 OFFCURVE",
"121.8 462 CURVE SMOOTH",
"100.8 478.8 OFFCURVE",
"76.3 498.4 OFFCURVE",
"75.6 527.8 CURVE SMOOTH",
"75.6 528.5 OFFCURVE",
"75.6 529.2 OFFCURVE",
"75.6 529.2 CURVE SMOOTH",
"75.6 541.8 OFFCURVE",
"79.8 554.4 OFFCURVE",
"82.6 567 CURVE SMOOTH",
"88.2 588 OFFCURVE",
"93.1 609.7 OFFCURVE",
"102.9 629.3 CURVE SMOOTH",
"107.8 638.4 OFFCURVE",
"114.1 651.7 OFFCURVE",
"123.2 657.3 CURVE SMOOTH",
"125.3 658.7 OFFCURVE",
"128.8 659.4 OFFCURVE",
"132.3 659.4 CURVE SMOOTH",
"140.7 659.4 OFFCURVE",
"152.6 655.9 OFFCURVE",
"158.2 653.8 CURVE SMOOTH",
"168.7 650.3 OFFCURVE",
"177.1 643.3 OFFCURVE",
"185.5 637.7 CURVE SMOOTH",
"205.8 623 OFFCURVE",
"231.7 604.8 OFFCURVE",
"240.1 579.6 CURVE SMOOTH",
"241.5 574.7 OFFCURVE",
"242.2 570.5 OFFCURVE",
"242.2 565.6 CURVE SMOOTH",
"242.2 554.4 OFFCURVE",
"238.7 543.2 OFFCURVE",
"237.3 532 CURVE SMOOTH",
"233.8 501.9 OFFCURVE",
"230.3 472.5 OFFCURVE",
"228.2 442.4 CURVE SMOOTH",
"226.1 403.9 OFFCURVE",
"224.7 364.7 OFFCURVE",
"224.7 326.2 CURVE SMOOTH",
"224.7 264.6 OFFCURVE",
"227.5 203.7 OFFCURVE",
"232.4 142.8 CURVE"
);
}
);
width = 580;
},
{
anchors = (
{
name = bottom;
position = "{276, 0}";
}
);
layerId = m002;
paths = (
{
closed = 1;
nodes = (
"36 -33 OFFCURVE",
"18 -27 OFFCURVE",
"18 24 CURVE SMOOTH",
"18 48 OFFCURVE",
"24 72 OFFCURVE",
"29 92 CURVE SMOOTH",
"33 113 OFFCURVE",
"36 141 OFFCURVE",
"56 141 CURVE SMOOTH",
"74 141 OFFCURVE",
"91 132 OFFCURVE",
"160 132 CURVE SMOOTH",
"172 132 OFFCURVE",
"178 139 OFFCURVE",
"178 151 CURVE SMOOTH",
"178 250 OFFCURVE",
"166 389 OFFCURVE",
"147 436 CURVE SMOOTH",
"137 461 OFFCURVE",
"76 483 OFFCURVE",
"76 528 CURVE SMOOTH",
"76 555 OFFCURVE",
"103 659 OFFCURVE",
"131 659 CURVE SMOOTH",
"172 659 OFFCURVE",
"242 604 OFFCURVE",
"242 566 CURVE SMOOTH",
"242 531 OFFCURVE",
"212 388 OFFCURVE",
"231 167 CURVE SMOOTH",
"233 146 OFFCURVE",
"239 140 OFFCURVE",
"261 140 CURVE SMOOTH",
"382 140 OFFCURVE",
"482 216 OFFCURVE",
"482 338 CURVE SMOOTH",
"482 417 OFFCURVE",
"427 452 OFFCURVE",
"379 461 CURVE SMOOTH",
"323 471 OFFCURVE",
"299 485 OFFCURVE",
"299 510 CURVE SMOOTH",
"299 548 OFFCURVE",
"347 658 OFFCURVE",
"386 658 CURVE SMOOTH",
"457 658 OFFCURVE",
"537 525 OFFCURVE",
"537 382 CURVE SMOOTH",
"537 121 OFFCURVE",
"384 -33 OFFCURVE",
"81 -33 CURVE SMOOTH"
);
}
);
width = 580;
}
);
unicode = 05E2;
},
{
color = 5;
glyphname = "peFinal-hb";
layers = (
{
anchors = (
{
name = bottom;
position = "{146, 0}";
},
{
name = center;
position = "{285, 338}";
}
);
layerId = m01;
paths = (
{
closed = 1;
nodes = (
"348 -345 OFFCURVE",
"332 -328 OFFCURVE",
"332 -308 CURVE SMOOTH",
"333 -280 OFFCURVE",
"340 71 OFFCURVE",
"340 88 CURVE SMOOTH",
"340 281 OFFCURVE",
"401 344 OFFCURVE",
"401 372 CURVE SMOOTH",
"401 421 OFFCURVE",
"260 493 OFFCURVE",
"176 493 CURVE SMOOTH",
"135 493 OFFCURVE",
"104 436 OFFCURVE",
"104 396 CURVE SMOOTH",
"104 321 OFFCURVE",
"158 287 OFFCURVE",
"226 240 CURVE SMOOTH",
"243 228 OFFCURVE",
"254 196 OFFCURVE",
"254 147 CURVE SMOOTH",
"254 124 OFFCURVE",
"224 112 OFFCURVE",
"179 112 CURVE SMOOTH",
"75 112 OFFCURVE",
"38 212 OFFCURVE",
"38 319 CURVE SMOOTH",
"38 465 OFFCURVE",
"129 640 OFFCURVE",
"244 640 CURVE SMOOTH",
"334 640 OFFCURVE",
"492 566 OFFCURVE",
"492 501 CURVE SMOOTH",
"492 439 OFFCURVE",
"432 310 OFFCURVE",
"432 196 CURVE SMOOTH",
"432 81 OFFCURVE",
"476 -125 OFFCURVE",
"476 -223 CURVE SMOOTH",
"476 -278 OFFCURVE",
"393 -344 OFFCURVE",
"370 -345 CURVE SMOOTH"
);
}
);
width = 541;
},
{
anchors = (
{
name = center;
position = "{274, 308}";
}
);
associatedMasterId = m01;
layerId = "8C6F933C-5571-43C5-955C-782E1B292B83";
name = "May 12, 21, 16:42";
paths = (
{
closed = 1;
nodes = (
"348 -345 OFFCURVE",
"332 -328 OFFCURVE",
"332 -308 CURVE SMOOTH",
"333 -280 OFFCURVE",
"340.2 71.4 OFFCURVE",
"340.2 88.2 CURVE SMOOTH",
"340.2 138.6 OFFCURVE",
"341.6 189.7 OFFCURVE",
"355.6 238 CURVE SMOOTH",
"363.3 268.8 OFFCURVE",
"373.8 298.2 OFFCURVE",
"385 327.6 CURVE SMOOTH",
"389.9 338.8 OFFCURVE",
"401.1 356.3 OFFCURVE",
"401.1 368.2 CURVE SMOOTH",
"401.1 368.9 OFFCURVE",
"401.1 368.9 OFFCURVE",
"401.1 369.6 CURVE SMOOTH",
"399.7 389.9 OFFCURVE",
"379.4 408.8 OFFCURVE",
"364.7 420.7 CURVE SMOOTH",
"319.9 457.8 OFFCURVE",
"270.2 482.3 OFFCURVE",
"212.1 489.3 CURVE SMOOTH",
"201.6 490 OFFCURVE",
"188.3 492.8 OFFCURVE",
"176.4 492.8 CURVE SMOOTH",
"171.5 492.8 OFFCURVE",
"166.6 492.8 OFFCURVE",
"162.4 491.4 CURVE SMOOTH",
"147.7 485.8 OFFCURVE",
"131.6 466.9 OFFCURVE",
"122.5 455 CURVE SMOOTH",
"109.2 437.5 OFFCURVE",
"103.6 417.2 OFFCURVE",
"103.6 396.2 CURVE SMOOTH",
"103.6 373.1 OFFCURVE",
"111.3 348.6 OFFCURVE",
"123.2 328.3 CURVE SMOOTH",
"136.5 308 OFFCURVE",
"155.4 290.5 OFFCURVE",
"174.3 275.8 CURVE SMOOTH",
"193.2 260.4 OFFCURVE",
"218.4 249.9 OFFCURVE",
"233.8 230.3 CURVE SMOOTH",
"248.5 211.4 OFFCURVE",
"249.2 190.4 OFFCURVE",
"252 167.3 CURVE SMOOTH",
"252.7 161 OFFCURVE",
"254.8 152.6 OFFCURVE",
"254.8 144.9 CURVE SMOOTH",
"254.8 142.1 OFFCURVE",
"254.8 140 OFFCURVE",
"254.1 137.9 CURVE SMOOTH",
"252.7 133.7 OFFCURVE",
"247.1 130.9 OFFCURVE",
"244.3 128.8 CURVE SMOOTH",
"233.1 122.5 OFFCURVE",
"221.2 117.6 OFFCURVE",
"209.3 114.8 CURVE SMOOTH",
"199.5 112.7 OFFCURVE",
"190.4 112 OFFCURVE",
"181.3 112 CURVE SMOOTH",
"77 112 OFFCURVE",
"39 212 OFFCURVE",
"39 319 CURVE SMOOTH",
"38 398 OFFCURVE",
"58.8 471.8 OFFCURVE",
"102.2 539.7 CURVE SMOOTH",
"124.6 575.4 OFFCURVE",
"155.4 605.5 OFFCURVE",
"193.2 624.4 CURVE SMOOTH",
"205.1 630 OFFCURVE",
"219.1 637.7 OFFCURVE",
"232.4 639.1 CURVE SMOOTH",
"235.9 639.8 OFFCURVE",
"240.1 639.8 OFFCURVE",
"243.6 639.8 CURVE SMOOTH",
"258.3 639.8 OFFCURVE",
"273.7 637 OFFCURVE",
"287 634.9 CURVE SMOOTH",
"343 625.8 OFFCURVE",
"396.9 602 OFFCURVE",
"441.7 566.3 CURVE SMOOTH",
"455.7 554.4 OFFCURVE",
"469 542.5 OFFCURVE",
"480.2 527.8 CURVE SMOOTH",
"484.4 523.6 OFFCURVE",
"490 518 OFFCURVE",
"491.4 512.4 CURVE SMOOTH",
"492.1 511 OFFCURVE",
"492.1 508.9 OFFCURVE",
"492.1 506.8 CURVE SMOOTH",
"492.1 502.6 OFFCURVE",
"491.4 497.7 OFFCURVE",
"490.7 494.2 CURVE SMOOTH",
"489.3 474.6 OFFCURVE",
"484.4 455.7 OFFCURVE",
"479.5 437.5 CURVE SMOOTH",
"464.1 378 OFFCURVE",
"443.8 322 OFFCURVE",
"436.1 260.4 CURVE SMOOTH",
"432.6 238.7 OFFCURVE",
"431.9 217 OFFCURVE",
"431.9 196 CURVE SMOOTH",
"431.9 151.2 OFFCURVE",
"436.8 107.1 OFFCURVE",
"443.1 61.6 CURVE SMOOTH",
"451 -2 OFFCURVE",
"476 -158 OFFCURVE",
"476 -223.3 CURVE SMOOTH",
"476 -257 OFFCURVE",
"446 -294 OFFCURVE",
"417.2 -317.1 CURVE SMOOTH",
"405.3 -326.2 OFFCURVE",
"385.7 -344.4 OFFCURVE",
"370.3 -345.1 CURVE SMOOTH"
);
}
);
width = 541;
},
{
anchors = (
{
name = bottom;
position = "{146, 0}";
},
{
name = center;
position = "{285, 338}";
}
);
layerId = m002;
paths = (
{
closed = 1;
nodes = (
"348 -345 OFFCURVE",
"332 -328 OFFCURVE",
"332 -308 CURVE SMOOTH",
"333 -280 OFFCURVE",
"340 71 OFFCURVE",
"340 88 CURVE SMOOTH",
"340 281 OFFCURVE",
"401 344 OFFCURVE",
"401 372 CURVE SMOOTH",
"401 421 OFFCURVE",
"260 493 OFFCURVE",
"176 493 CURVE SMOOTH",
"135 493 OFFCURVE",
"104 436 OFFCURVE",
"104 396 CURVE SMOOTH",
"104 321 OFFCURVE",
"158 287 OFFCURVE",
"226 240 CURVE SMOOTH",
"243 228 OFFCURVE",
"254 196 OFFCURVE",
"254 147 CURVE SMOOTH",
"254 124 OFFCURVE",
"224 112 OFFCURVE",
"179 112 CURVE SMOOTH",
"75 112 OFFCURVE",
"38 212 OFFCURVE",
"38 319 CURVE SMOOTH",
"38 465 OFFCURVE",
"129 640 OFFCURVE",
"244 640 CURVE SMOOTH",
"334 640 OFFCURVE",
"492 566 OFFCURVE",
"492 501 CURVE SMOOTH",
"492 439 OFFCURVE",
"432 310 OFFCURVE",
"432 196 CURVE SMOOTH",
"432 81 OFFCURVE",
"476 -125 OFFCURVE",
"476 -223 CURVE SMOOTH",
"476 -278 OFFCURVE",
"393 -344 OFFCURVE",
"370 -345 CURVE SMOOTH"
);
}
);
width = 541;
}
);
unicode = 05E3;
},
{
color = 5;
glyphname = "pe-hb";
layers = (
{
anchors = (
{
name = bottom;
position = "{286, 0}";
},
{
name = center;
position = "{338, 316}";
}
);
layerId = m01;
paths = (
{
closed = 1;
nodes = (
"84 -37 OFFCURVE",
"67 -29 OFFCURVE",
"67 0 CURVE SMOOTH",
"67 106 OFFCURVE",
"79 130 OFFCURVE",
"111 130 CURVE SMOOTH",
"174 130 OFFCURVE",
"347 142 OFFCURVE",
"405 184 CURVE SMOOTH",
"462 225 OFFCURVE",
"476 284 OFFCURVE",
"475 351 CURVE SMOOTH",
"472 451 OFFCURVE",
"389 461 OFFCURVE",
"258 461 CURVE SMOOTH",
"210 461 OFFCURVE",
"167 440 OFFCURVE",
"167 391 CURVE SMOOTH",
"167 365 OFFCURVE",
"216 345 OFFCURVE",
"216 313 CURVE SMOOTH",
"216 289 OFFCURVE",
"175 221 OFFCURVE",
"130 221 CURVE SMOOTH",
"102 221 OFFCURVE",
"58 269 OFFCURVE",
"58 322 CURVE SMOOTH",
"58 361 OFFCURVE",
"88 396 OFFCURVE",
"116 428 CURVE SMOOTH",
"125 438 OFFCURVE",
"131 446 OFFCURVE",
"131 452 CURVE SMOOTH",
"131 457 OFFCURVE",
"129 464 OFFCURVE",
"118 467 CURVE SMOOTH",
"94 474 OFFCURVE",
"64 509 OFFCURVE",
"64 559 CURVE SMOOTH",
"64 586 OFFCURVE",
"79 670 OFFCURVE",
"84 676 CURVE SMOOTH",
"94 688 OFFCURVE",
"114 694 OFFCURVE",
"123 694 CURVE SMOOTH",
"131 694 OFFCURVE",
"134 690 OFFCURVE",
"136 678 CURVE SMOOTH",
"141 642 OFFCURVE",
"180 631 OFFCURVE",
"215 631 CURVE SMOOTH",
"273 631 OFFCURVE",
"356 634 OFFCURVE",
"413 615 CURVE SMOOTH",
"513 584 OFFCURVE",
"531 428 OFFCURVE",
"531 358 CURVE SMOOTH",
"531 126 OFFCURVE",
"389 -37 OFFCURVE",
"115 -37 CURVE SMOOTH"
);
}
);
width = 580;
},
{
anchors = (
{
name = center;
position = "{336, 325}";
}
);
associatedMasterId = m01;
layerId = "5E5D7B9F-DCC2-4810-8E2C-4E09EBA9363D";
name = "May 12, 21, 17:53";
paths = (
{
closed = 1;
nodes = (
"139.3 678.3 OFFCURVE",
"135.8 662.9 OFFCURVE",
"150.5 649.6 CURVE SMOOTH",
"172.9 629.3 OFFCURVE",
"207.2 632.8 OFFCURVE",
"234.5 630.7 CURVE SMOOTH",
"293.3 626.5 OFFCURVE",
"355.6 633.5 OFFCURVE",
"413 615.3 CURVE SMOOTH",
"490.7 590.8 OFFCURVE",
"517.3 496.3 OFFCURVE",
"525.7 424.2 CURVE SMOOTH",
"527.8 410.2 OFFCURVE",
"529.2 396.2 OFFCURVE",
"529.9 382.2 CURVE SMOOTH",
"529.9 374.5 OFFCURVE",
"530.6 366.1 OFFCURVE",
"530.6 358.4 CURVE SMOOTH",
"530.6 270.2 OFFCURVE",
"508.2 175.7 OFFCURVE",
"454.3 105 CURVE SMOOTH",
"413 50.4 OFFCURVE",
"344.4 7.7 OFFCURVE",
"280 -14 CURVE SMOOTH",
"240.1 -27.3 OFFCURVE",
"195.3 -37.1 OFFCURVE",
"151.9 -37.1 CURVE SMOOTH",
"140.7 -37.1 OFFCURVE",
"130.2 -37.1 OFFCURVE",
"119.7 -35.7 CURVE SMOOTH",
"105.7 -33.6 OFFCURVE",
"78.4 -35 OFFCURVE",
"70.7 -20.3 CURVE SMOOTH",
"68.6 -16.1 OFFCURVE",
"67.9 -11.2 OFFCURVE",
"67.9 -5.6 CURVE SMOOTH",
"67.9 2.8 LINE SMOOTH",
"67.9 4.9 OFFCURVE",
"67.9 6.3 OFFCURVE",
"67.9 7.7 CURVE SMOOTH",
"67.2 15.4 OFFCURVE",
"66.5 22.4 OFFCURVE",
"66.5 30.1 CURVE SMOOTH",
"66.5 51.1 OFFCURVE",
"69.3 72.8 OFFCURVE",
"74.2 93.1 CURVE SMOOTH",
"76.3 103.6 OFFCURVE",
"79.8 121.1 OFFCURVE",
"90.3 126.7 CURVE SMOOTH",
"95.2 128.8 OFFCURVE",
"102.9 129.5 OFFCURVE",
"109.9 129.5 CURVE SMOOTH",
"120.4 129.5 LINE SMOOTH",
"121.1 129.5 OFFCURVE",
"122.5 129.5 OFFCURVE",
"123.2 129.5 CURVE SMOOTH",
"142.8 130.2 OFFCURVE",
"162.4 132.3 OFFCURVE",
"182 133 CURVE SMOOTH",
"255.5 138.6 OFFCURVE",
"341.6 139.3 OFFCURVE",
"404.6 184.1 CURVE SMOOTH",
"451.5 217.7 OFFCURVE",
"475.3 272.3 OFFCURVE",
"475.3 329 CURVE SMOOTH",
"475.3 336 OFFCURVE",
"475.3 343.7 OFFCURVE",
"474.6 350.7 CURVE SMOOTH",
"471.1 385 OFFCURVE",
"457.8 420.7 OFFCURVE",
"428.4 441 CURVE SMOOTH",
"410.2 454.3 OFFCURVE",
"378 457.8 OFFCURVE",
"355.6 460.6 CURVE SMOOTH",
"333.9 464.1 OFFCURVE",
"312.2 465.5 OFFCURVE",
"290.5 465.5 CURVE SMOOTH",
"278.6 465.5 OFFCURVE",
"266 464.8 OFFCURVE",
"253.4 464.1 CURVE SMOOTH",
"240.8 462.7 OFFCURVE",
"225.4 463.4 OFFCURVE",
"214.2 458.5 CURVE SMOOTH",
"192.5 448.7 OFFCURVE",
"167 416 OFFCURVE",
"167.3 392.7 CURVE SMOOTH",
"167.3 390.6 LINE SMOOTH",
"167.3 382.2 OFFCURVE",
"173.6 373.8 OFFCURVE",
"178.5 367.5 CURVE SMOOTH",
"191.8 350.7 OFFCURVE",
"215.6 336.7 OFFCURVE",
"215.6 312.9 CURVE SMOOTH",
"215.6 312.2 OFFCURVE",
"215.6 310.8 OFFCURVE",
"215.6 310.1 CURVE SMOOTH",
"214.9 298.9 OFFCURVE",
"208.6 289.8 OFFCURVE",
"203 280 CURVE SMOOTH",
"191.1 260.4 OFFCURVE",
"177.8 237.3 OFFCURVE",
"156.8 227.5 CURVE SMOOTH",
"149.8 224 OFFCURVE",
"138.6 220.5 OFFCURVE",
"129.5 220.5 CURVE SMOOTH",
"126.7 220.5 OFFCURVE",
"123.9 220.5 OFFCURVE",
"121.8 221.9 CURVE SMOOTH",
"108.5 226.8 OFFCURVE",
"96.6 239.4 OFFCURVE",
"87.5 249.9 CURVE SMOOTH",
"70.7 270.2 OFFCURVE",
"58.8 295.4 OFFCURVE",
"58.8 322 CURVE SMOOTH",
"58.8 329.7 OFFCURVE",
"59.5 337.4 OFFCURVE",
"61.6 345.1 CURVE SMOOTH",
"66.5 361.9 OFFCURVE",
"75.6 376.6 OFFCURVE",
"86.1 390.6 CURVE SMOOTH",
"96.6 405.3 OFFCURVE",
"109.2 417.9 OFFCURVE",
"121.1 431.9 CURVE SMOOTH",
"124.6 436.1 OFFCURVE",
"133 442.4 OFFCURVE",
"133.7 448 CURVE SMOOTH",
"133.7 448.7 OFFCURVE",
"133.7 448.7 OFFCURVE",
"133.7 448.7 CURVE SMOOTH",
"133.7 459.2 OFFCURVE",
"114.8 460.6 OFFCURVE",
"107.8 464.1 CURVE SMOOTH",
"95.2 469.7 OFFCURVE",
"84.7 485.1 OFFCURVE",
"78.4 497 CURVE SMOOTH",
"67.9 515.9 OFFCURVE",
"63.7 536.9 OFFCURVE",
"63.7 558.6 CURVE SMOOTH",
"63.7 585.9 OFFCURVE",
"70 614.6 OFFCURVE",
"74.9 640.5 CURVE SMOOTH",
"77 651.7 OFFCURVE",
"79.1 662.9 OFFCURVE",
"81.2 673.4 CURVE SMOOTH",
"81.9 677.6 OFFCURVE",
"81.9 683.9 OFFCURVE",
"85.4 686.7 CURVE SMOOTH",
"88.9 690.2 OFFCURVE",
"96.6 690.2 OFFCURVE",
"100.8 690.2 CURVE SMOOTH",
"111.3 690.9 OFFCURVE",
"122.5 690.2 OFFCURVE",
"132.3 694.4 CURVE"
);
}
);
width = 580;
},
{
anchors = (
{
name = bottom;
position = "{286, 0}";
},
{
name = center;
position = "{338, 316}";
}
);
layerId = m002;
paths = (
{
closed = 1;
nodes = (
"84 -37 OFFCURVE",
"67 -29 OFFCURVE",
"67 0 CURVE SMOOTH",
"67 106 OFFCURVE",
"79 130 OFFCURVE",
"111 130 CURVE SMOOTH",
"174 130 OFFCURVE",
"347 142 OFFCURVE",
"405 184 CURVE SMOOTH",
"462 225 OFFCURVE",
"476 284 OFFCURVE",
"475 351 CURVE SMOOTH",
"472 451 OFFCURVE",
"389 461 OFFCURVE",
"258 461 CURVE SMOOTH",
"210 461 OFFCURVE",
"167 440 OFFCURVE",
"167 391 CURVE SMOOTH",
"167 365 OFFCURVE",
"216 345 OFFCURVE",
"216 313 CURVE SMOOTH",
"216 289 OFFCURVE",
"175 221 OFFCURVE",
"130 221 CURVE SMOOTH",
"102 221 OFFCURVE",
"58 269 OFFCURVE",
"58 322 CURVE SMOOTH",
"58 361 OFFCURVE",
"88 396 OFFCURVE",
"116 428 CURVE SMOOTH",
"125 438 OFFCURVE",
"131 446 OFFCURVE",
"131 452 CURVE SMOOTH",
"131 457 OFFCURVE",
"129 464 OFFCURVE",
"118 467 CURVE SMOOTH",
"94 474 OFFCURVE",
"64 509 OFFCURVE",
"64 559 CURVE SMOOTH",
"64 586 OFFCURVE",
"79 670 OFFCURVE",
"84 676 CURVE SMOOTH",
"94 688 OFFCURVE",
"114 694 OFFCURVE",
"123 694 CURVE SMOOTH",
"131 694 OFFCURVE",
"134 690 OFFCURVE",
"136 678 CURVE SMOOTH",
"141 642 OFFCURVE",
"180 631 OFFCURVE",
"215 631 CURVE SMOOTH",
"273 631 OFFCURVE",
"356 634 OFFCURVE",
"413 615 CURVE SMOOTH",
"513 584 OFFCURVE",
"531 428 OFFCURVE",
"531 358 CURVE SMOOTH",
"531 126 OFFCURVE",
"389 -37 OFFCURVE",
"115 -37 CURVE SMOOTH"
);
}
);
width = 580;
}
);
unicode = 05E4;
},
{
color = 5;
glyphname = "tsadiFinal-hb";
layers = (
{
anchors = (
{
name = bottom;
position = "{196, -300}";
}
);
layerId = m01;
paths = (
{
closed = 1;
nodes = (
"142 -340 OFFCURVE",
"125 -243 OFFCURVE",
"125 -168 CURVE SMOOTH",
"125 -58 OFFCURVE",
"198 396 OFFCURVE",
"198 449 CURVE SMOOTH",
"198 458 OFFCURVE",
"195 465 OFFCURVE",
"185 466 CURVE SMOOTH",
"118 470 OFFCURVE",
"20 489 OFFCURVE",
"20 596 CURVE SMOOTH",
"20 631 OFFCURVE",
"37 692 OFFCURVE",
"56 692 CURVE SMOOTH",
"66 692 OFFCURVE",
"96 630 OFFCURVE",
"216 630 CURVE SMOOTH",
"334 630 OFFCURVE",
"365 694 OFFCURVE",
"378 694 CURVE SMOOTH",
"384 694 OFFCURVE",
"391 682 OFFCURVE",
"391 627 CURVE SMOOTH",
"391 489 OFFCURVE",
"286 479 OFFCURVE",
"274 474 CURVE SMOOTH",
"264 470 OFFCURVE",
"260 465 OFFCURVE",
"259 458 CURVE SMOOTH",
"253 416 OFFCURVE",
"244 321 OFFCURVE",
"244 253 CURVE SMOOTH",
"244 52 OFFCURVE",
"279 25 OFFCURVE",
"279 -118 CURVE SMOOTH",
"279 -187 OFFCURVE",
"211 -341 OFFCURVE",
"179 -341 CURVE SMOOTH"
);
}
);
width = 426;
},
{
associatedMasterId = m01;
layerId = "9ECDFDD9-2BBA-47F7-ADAE-52AA663689D0";
name = "May 12, 21, 22:51";
paths = (
{
closed = 1;
nodes = (
"389.2 681.1 OFFCURVE",
"389.9 658.7 OFFCURVE",
"390.6 643.3 CURVE SMOOTH",
"391.3 637.7 OFFCURVE",
"391.3 632.1 OFFCURVE",
"391.3 626.5 CURVE SMOOTH",
"391.3 581 OFFCURVE",
"378 534.8 OFFCURVE",
"341.6 505.4 CURVE SMOOTH",
"326.2 493.5 OFFCURVE",
"308 484.4 OFFCURVE",
"289.8 478.1 CURVE SMOOTH",
"282.8 476 OFFCURVE",
"266.7 473.9 OFFCURVE",
"262.5 468.3 CURVE SMOOTH",
"256.9 460.6 OFFCURVE",
"257.6 443.1 OFFCURVE",
"256.2 433.3 CURVE SMOOTH",
"247.1 373.8 OFFCURVE",
"243.6 313.6 OFFCURVE",
"243.6 253.4 CURVE SMOOTH",
"243.6 232.4 OFFCURVE",
"244.3 210.7 OFFCURVE",
"245 189.7 CURVE SMOOTH",
"245.7 166.6 OFFCURVE",
"245 142.8 OFFCURVE",
"247.1 119.7 CURVE SMOOTH",
"249.2 100.1 OFFCURVE",
"254.8 80.5 OFFCURVE",
"258.3 61.6 CURVE SMOOTH",
"268.1 5.6 OFFCURVE",
"277.9 -51.1 OFFCURVE",
"277.9 -107.1 CURVE SMOOTH",
"277.9 -117.6 OFFCURVE",
"277.9 -127.4 OFFCURVE",
"277.2 -137.2 CURVE SMOOTH",
"275.8 -160.3 OFFCURVE",
"267.4 -182 OFFCURVE",
"259.7 -203 CURVE SMOOTH",
"249.2 -231.7 OFFCURVE",
"237.3 -260.4 OFFCURVE",
"224 -287.7 CURVE SMOOTH",
"217.7 -300.3 OFFCURVE",
"210 -312.2 OFFCURVE",
"200.9 -323.4 CURVE SMOOTH",
"197 -328 OFFCURVE",
"194 -335 OFFCURVE",
"188 -338 CURVE SMOOTH",
"185 -340 OFFCURVE",
"182 -342 OFFCURVE",
"179.2 -341.6 CURVE SMOOTH",
"168.7 -341.6 OFFCURVE",
"161.7 -329 OFFCURVE",
"156.1 -320.6 CURVE SMOOTH",
"137.9 -294.7 OFFCURVE",
"132.3 -256.9 OFFCURVE",
"128.8 -225.4 CURVE SMOOTH",
"126 -206.5 OFFCURVE",
"125.3 -186.9 OFFCURVE",
"125.3 -168 CURVE SMOOTH",
"125.3 -112 OFFCURVE",
"133.7 -56.7 OFFCURVE",
"142.8 -0.7 CURVE SMOOTH",
"150.5 51.8 OFFCURVE",
"156.8 105 OFFCURVE",
"163.1 157.5 CURVE SMOOTH",
"170.8 222.6 OFFCURVE",
"180.6 287.7 OFFCURVE",
"188.3 352.8 CURVE SMOOTH",
"193.2 389.9 OFFCURVE",
"194.6 429.8 OFFCURVE",
"203 465.5 CURVE",
"149.1 465.5 OFFCURVE",
"85.4 473.9 OFFCURVE",
"46.9 516.6 CURVE SMOOTH",
"27.3 537.6 OFFCURVE",
"20.3 566.3 OFFCURVE",
"20.3 595.7 CURVE SMOOTH",
"20.3 612.5 OFFCURVE",
"23.1 630 OFFCURVE",
"26.6 645.4 CURVE SMOOTH",
"30.8 660.1 OFFCURVE",
"39.9 683.9 OFFCURVE",
"53.2 691.6 CURVE",
"53.9 691.6 OFFCURVE",
"54.6 691.6 OFFCURVE",
"55.3 691.6 CURVE SMOOTH",
"61.6 691.6 OFFCURVE",
"72.1 677.6 OFFCURVE",
"75.6 674.1 CURVE SMOOTH",
"97.3 655.9 OFFCURVE",
"122.5 643.3 OFFCURVE",
"149.8 637.7 CURVE SMOOTH",
"170.8 632.8 OFFCURVE",
"193.2 630 OFFCURVE",
"216.3 630 CURVE SMOOTH",
"245.7 630 OFFCURVE",
"274.4 634.2 OFFCURVE",
"300.3 643.3 CURVE SMOOTH",
"328.3 653.8 OFFCURVE",
"358.4 674.8 OFFCURVE",
"380.8 694.4 CURVE"
);
}
);
width = 426;
},
{
anchors = (
{
name = bottom;
position = "{196, -300}";
}
);
layerId = m002;
paths = (
{
closed = 1;
nodes = (
"142 -340 OFFCURVE",
"125 -243 OFFCURVE",
"125 -168 CURVE SMOOTH",
"125 -58 OFFCURVE",
"198 396 OFFCURVE",
"198 449 CURVE SMOOTH",
"198 458 OFFCURVE",
"195 465 OFFCURVE",
"185 466 CURVE SMOOTH",
"118 470 OFFCURVE",
"20 489 OFFCURVE",
"20 596 CURVE SMOOTH",
"20 631 OFFCURVE",
"37 692 OFFCURVE",
"56 692 CURVE SMOOTH",
"66 692 OFFCURVE",
"96 630 OFFCURVE",
"216 630 CURVE SMOOTH",
"334 630 OFFCURVE",
"365 694 OFFCURVE",
"378 694 CURVE SMOOTH",
"384 694 OFFCURVE",
"391 682 OFFCURVE",
"391 627 CURVE SMOOTH",
"391 489 OFFCURVE",
"286 479 OFFCURVE",
"274 474 CURVE SMOOTH",
"264 470 OFFCURVE",
"260 465 OFFCURVE",
"259 458 CURVE SMOOTH",
"253 416 OFFCURVE",
"244 321 OFFCURVE",
"244 253 CURVE SMOOTH",
"244 52 OFFCURVE",
"279 25 OFFCURVE",
"279 -118 CURVE SMOOTH",
"279 -187 OFFCURVE",
"211 -341 OFFCURVE",
"179 -341 CURVE SMOOTH"
);
}
);
width = 426;
}
);
unicode = 05E5;
},
{
color = 5;
glyphname = "tsadi-hb";
layers = (
{
anchors = (
{
name = bottom;
position = "{196, 0}";
},
{
name = center;
position = "{136, 320}";
}
);
layerId = m01;
paths = (
{
closed = 1;
nodes = (
"34 -36 OFFCURVE",
"29 -3 OFFCURVE",
"29 24 CURVE SMOOTH",
"29 106 OFFCURVE",
"40 140 OFFCURVE",
"75 148 CURVE SMOOTH",
"179 172 OFFCURVE",
"282 198 OFFCURVE",
"282 323 CURVE SMOOTH",
"282 419 OFFCURVE",
"226 454 OFFCURVE",
"117 471 CURVE SMOOTH",
"78 477 OFFCURVE",
"62 506 OFFCURVE",
"62 562 CURVE SMOOTH",
"62 630 OFFCURVE",
"103 664 OFFCURVE",
"141 717 CURVE SMOOTH",
"156 738 OFFCURVE",
"170 774 OFFCURVE",
"186 800 CURVE SMOOTH",
"200 822 OFFCURVE",
"224 830 OFFCURVE",
"266 830 CURVE SMOOTH",
"298 830 OFFCURVE",
"341 817 OFFCURVE",
"341 780 CURVE SMOOTH",
"341 729 OFFCURVE",
"223 691 OFFCURVE",
"184 664 CURVE SMOOTH",
"162 649 OFFCURVE",
"158 635 OFFCURVE",
"158 630 CURVE SMOOTH",
"158 625 OFFCURVE",
"164 624 OFFCURVE",
"176 622 CURVE SMOOTH",
"197 619 OFFCURVE",
"231 611 OFFCURVE",
"260 587 CURVE SMOOTH",
"312 544 OFFCURVE",
"337 458 OFFCURVE",
"337 344 CURVE SMOOTH",
"337 155 OFFCURVE",
"247 -36 OFFCURVE",
"53 -36 CURVE SMOOTH"
);
}
);
width = 387;
},
{
anchors = (
{
name = center;
position = "{136, 320}";
}
);
associatedMasterId = m01;
layerId = "E148B189-9BC9-4CAD-AC03-66717FC8A791";
name = "May 12, 21, 23:10";
paths = (
{
closed = 1;
nodes = (
"177.1 622.3 OFFCURVE",
"200.9 621.6 OFFCURVE",
"219.8 613.2 CURVE SMOOTH",
"293.3 580.3 OFFCURVE",
"321.3 501.9 OFFCURVE",
"331.8 427.7 CURVE SMOOTH",
"335.3 400.4 OFFCURVE",
"337.4 372.4 OFFCURVE",
"337.4 344.4 CURVE SMOOTH",
"337.4 250.6 OFFCURVE",
"315 156.8 OFFCURVE",
"262.5 78.4 CURVE SMOOTH",
"233.8 35.7 OFFCURVE",
"186.9 -7.7 OFFCURVE",
"137.2 -25.2 CURVE SMOOTH",
"123.2 -30.1 OFFCURVE",
"107.8 -31.5 OFFCURVE",
"93.1 -32.9 CURVE SMOOTH",
"82.6 -34.3 OFFCURVE",
"71.4 -36.4 OFFCURVE",
"60.2 -36.4 CURVE SMOOTH",
"56.7 -36.4 OFFCURVE",
"53.9 -36.4 OFFCURVE",
"50.4 -35.7 CURVE SMOOTH",
"37.1 -33.6 OFFCURVE",
"32.2 -7 OFFCURVE",
"30.8 4.2 CURVE SMOOTH",
"29.4 10.5 OFFCURVE",
"29.4 16.8 OFFCURVE",
"29.4 23.8 CURVE SMOOTH",
"29.4 35 OFFCURVE",
"30.1 46.2 OFFCURVE",
"30.8 57.4 CURVE SMOOTH",
"32.9 82.6 OFFCURVE",
"32.2 109.2 OFFCURVE",
"47.6 131.6 CURVE SMOOTH",
"55.3 142.1 OFFCURVE",
"66.5 143.5 OFFCURVE",
"78.4 147 CURVE SMOOTH",
"95.9 150.5 OFFCURVE",
"112.7 154.7 OFFCURVE",
"129.5 159.6 CURVE SMOOTH",
"189 176.4 OFFCURVE",
"245 198.8 OFFCURVE",
"269.5 260.4 CURVE SMOOTH",
"277.9 280 OFFCURVE",
"282.1 301.7 OFFCURVE",
"282.1 323.4 CURVE SMOOTH",
"282.1 375.9 OFFCURVE",
"257.6 428.4 OFFCURVE",
"205.8 448 CURVE SMOOTH",
"179.2 457.8 OFFCURVE",
"150.5 462.7 OFFCURVE",
"122.5 469.7 CURVE SMOOTH",
"109.9 472.5 OFFCURVE",
"91.7 476 OFFCURVE",
"81.9 485.1 CURVE SMOOTH",
"74.9 491.4 OFFCURVE",
"70.7 506.1 OFFCURVE",
"68.6 515.2 CURVE SMOOTH",
"64.4 529.9 OFFCURVE",
"62.3 546 OFFCURVE",
"62.3 562.1 CURVE SMOOTH",
"62.3 575.4 OFFCURVE",
"63.7 588 OFFCURVE",
"67.2 600.6 CURVE SMOOTH",
"74.9 633.5 OFFCURVE",
"93.8 653.1 OFFCURVE",
"114.1 678.3 CURVE SMOOTH",
"130.2 698.6 OFFCURVE",
"144.9 720.3 OFFCURVE",
"157.5 742.7 CURVE SMOOTH",
"171.5 770 OFFCURVE",
"179.9 802.2 OFFCURVE",
"209.3 817.6 CURVE SMOOTH",
"224.7 826 OFFCURVE",
"245.7 830.2 OFFCURVE",
"266 830.2 CURVE SMOOTH",
"281.4 830.2 OFFCURVE",
"296.8 827.4 OFFCURVE",
"310.1 821.8 CURVE SMOOTH",
"327.6 813.4 OFFCURVE",
"340.9 798.7 OFFCURVE",
"340.9 779.8 CURVE SMOOTH",
"340.9 775.6 OFFCURVE",
"340.2 771.4 OFFCURVE",
"338.8 767.2 CURVE SMOOTH",
"331.8 746.2 OFFCURVE",
"311.5 734.3 OFFCURVE",
"294.7 721.7 CURVE SMOOTH",
"258.3 694.4 OFFCURVE",
"212.8 684.6 OFFCURVE",
"179.2 653.8 CURVE SMOOTH",
"169.4 645.4 OFFCURVE",
"163.1 635.6 OFFCURVE",
"156.8 625.1 CURVE"
);
}
);
width = 387;
},
{
anchors = (
{
name = bottom;
position = "{196, 0}";
},
{
name = center;
position = "{136, 320}";
}
);
layerId = m002;
paths = (
{
closed = 1;
nodes = (
"34 -36 OFFCURVE",
"29 -3 OFFCURVE",
"29 24 CURVE SMOOTH",
"29 106 OFFCURVE",
"40 140 OFFCURVE",
"75 148 CURVE SMOOTH",
"179 172 OFFCURVE",
"282 198 OFFCURVE",
"282 323 CURVE SMOOTH",
"282 419 OFFCURVE",
"226 454 OFFCURVE",
"117 471 CURVE SMOOTH",
"78 477 OFFCURVE",
"62 506 OFFCURVE",
"62 562 CURVE SMOOTH",
"62 630 OFFCURVE",
"103 664 OFFCURVE",
"141 717 CURVE SMOOTH",
"156 738 OFFCURVE",
"170 774 OFFCURVE",
"186 800 CURVE SMOOTH",
"200 822 OFFCURVE",
"224 830 OFFCURVE",
"266 830 CURVE SMOOTH",
"298 830 OFFCURVE",
"341 817 OFFCURVE",
"341 780 CURVE SMOOTH",
"341 729 OFFCURVE",
"223 691 OFFCURVE",
"184 664 CURVE SMOOTH",
"162 649 OFFCURVE",
"158 635 OFFCURVE",
"158 630 CURVE SMOOTH",
"158 625 OFFCURVE",
"164 624 OFFCURVE",
"176 622 CURVE SMOOTH",
"197 619 OFFCURVE",
"231 611 OFFCURVE",
"260 587 CURVE SMOOTH",
"312 544 OFFCURVE",
"337 458 OFFCURVE",
"337 344 CURVE SMOOTH",
"337 155 OFFCURVE",
"247 -36 OFFCURVE",
"53 -36 CURVE SMOOTH"
);
}
);
width = 387;
}
);
unicode = 05E6;
},
{
color = 5;
glyphname = "qof-hb";
layers = (
{
anchors = (
{
name = bottom;
position = "{386, 0}";
},
{
name = center;
position = "{311, 290}";
}
);
layerId = m01;
paths = (
{
closed = 1;
nodes = (
"166 376 OFFCURVE",
"159 381 OFFCURVE",
"148 381 CURVE SMOOTH",
"132 381 OFFCURVE",
"102 351 OFFCURVE",
"77 259 CURVE SMOOTH",
"66 219 OFFCURVE",
"61 155 OFFCURVE",
"61 -276 CURVE SMOOTH",
"61 -327 OFFCURVE",
"66 -346 OFFCURVE",
"94 -346 CURVE SMOOTH",
"146 -346 OFFCURVE",
"199 -290 OFFCURVE",
"199 -218 CURVE SMOOTH",
"199 -73 OFFCURVE",
"153 88 OFFCURVE",
"153 198 CURVE SMOOTH",
"153 305 OFFCURVE",
"166 343 OFFCURVE",
"166 365 CURVE SMOOTH"
);
},
{
closed = 1;
nodes = (
"101 686 OFFCURVE",
"85 680 OFFCURVE",
"78 670 CURVE SMOOTH",
"72 662 OFFCURVE",
"60 600 OFFCURVE",
"60 540 CURVE SMOOTH",
"60 470 OFFCURVE",
"98 455 OFFCURVE",
"166 455 CURVE SMOOTH",
"222 455 OFFCURVE",
"269 463 OFFCURVE",
"319 463 CURVE SMOOTH",
"428 463 OFFCURVE",
"473 409 OFFCURVE",
"473 313 CURVE SMOOTH",
"473 221 OFFCURVE",
"405 141 OFFCURVE",
"366 118 CURVE SMOOTH",
"318 90 OFFCURVE",
"303 78 OFFCURVE",
"303 51 CURVE SMOOTH",
"303 36 OFFCURVE",
"317 16 OFFCURVE",
"342 16 CURVE SMOOTH",
"398 16 OFFCURVE",
"452 62 OFFCURVE",
"476 109 CURVE SMOOTH",
"512 180 OFFCURVE",
"529 263 OFFCURVE",
"529 343 CURVE SMOOTH",
"529 443 OFFCURVE",
"516 632 OFFCURVE",
"336 632 CURVE SMOOTH",
"301 632 OFFCURVE",
"254 627 OFFCURVE",
"221 627 CURVE SMOOTH",
"190 627 OFFCURVE",
"140 630 OFFCURVE",
"130 659 CURVE SMOOTH",
"124 677 OFFCURVE",
"121 686 OFFCURVE",
"112 686 CURVE SMOOTH"
);
}
);
width = 580;
},
{
anchors = (
{
name = center;
position = "{311, 290}";
}
);
associatedMasterId = m01;
layerId = "0EC9E1D3-4CD9-4863-90F3-CCFF2C50AD96";
name = "May 12, 21, 23:30";
paths = (
{
closed = 1;
nodes = (
"137.2 382.2 LINE SMOOTH",
"135.1 382.2 OFFCURVE",
"132.3 382.2 OFFCURVE",
"129.5 382.2 CURVE SMOOTH",
"126.7 382.2 OFFCURVE",
"124.6 382.2 OFFCURVE",
"123.2 380.8 CURVE",
"114.8 375.9 OFFCURVE",
"109.2 358.4 OFFCURVE",
"105.7 350 CURVE SMOOTH",
"91.7 318.5 OFFCURVE",
"81.2 286.3 OFFCURVE",
"74.2 252.7 CURVE SMOOTH",
"64.4 203 OFFCURVE",
"63 152.6 OFFCURVE",
"63 102.2 CURVE SMOOTH",
"63 84 OFFCURVE",
"63 66.5 OFFCURVE",
"63 48.3 CURVE SMOOTH",
"63 44.8 OFFCURVE",
"63 40.6 OFFCURVE",
"63 37.1 CURVE SMOOTH",
"63 -11.2 OFFCURVE",
"60.9 -59.5 OFFCURVE",
"60.9 -107.1 CURVE SMOOTH",
"60.9 -126 OFFCURVE",
"61.6 -145.6 OFFCURVE",
"62.3 -164.5 CURVE SMOOTH",
"63 -182 OFFCURVE",
"64.4 -200.2 OFFCURVE",
"64.4 -218.4 CURVE SMOOTH",
"64.4 -222.6 OFFCURVE",
"64.4 -226.1 OFFCURVE",
"64.4 -230.3 CURVE SMOOTH",
"63.7 -245.7 OFFCURVE",
"62.3 -261.1 OFFCURVE",
"62.3 -276.5 CURVE SMOOTH",
"62.3 -283.5 OFFCURVE",
"62.3 -289.8 OFFCURVE",
"63 -296.8 CURVE SMOOTH",
"64.4 -309.4 OFFCURVE",
"62.3 -331.1 OFFCURVE",
"74.2 -339.5 CURVE SMOOTH",
"80.5 -343.7 OFFCURVE",
"86.8 -345.8 OFFCURVE",
"93.8 -345.8 CURVE SMOOTH",
"107.8 -345.8 OFFCURVE",
"122.5 -338.1 OFFCURVE",
"134.4 -330.4 CURVE SMOOTH",
"159.6 -315.7 OFFCURVE",
"186.2 -291.9 OFFCURVE",
"194.6 -262.5 CURVE SMOOTH",
"198.1 -249.2 OFFCURVE",
"198.1 -231.7 OFFCURVE",
"198.1 -217.7 CURVE SMOOTH",
"198.8 -211.4 OFFCURVE",
"198.8 -205.1 OFFCURVE",
"198.8 -198.8 CURVE SMOOTH",
"198.8 -123.2 OFFCURVE",
"188.3 -48.3 OFFCURVE",
"175.7 26.6 CURVE SMOOTH",
"169.4 65.1 OFFCURVE",
"159.6 104.3 OFFCURVE",
"155.4 144.2 CURVE SMOOTH",
"154 161.7 OFFCURVE",
"153.3 179.9 OFFCURVE",
"153.3 198.1 CURVE SMOOTH",
"153.3 213.5 OFFCURVE",
"154 229.6 OFFCURVE",
"154.7 245 CURVE SMOOTH",
"156.8 290.5 OFFCURVE",
"159.6 337.4 OFFCURVE",
"172.2 382.2 CURVE"
);
},
{
closed = 1;
nodes = (
"105 684.6 OFFCURVE",
"84 687.4 OFFCURVE",
"75.6 678.3 CURVE SMOOTH",
"72.1 674.8 OFFCURVE",
"72.1 667.8 OFFCURVE",
"71.4 662.9 CURVE SMOOTH",
"69.3 651 OFFCURVE",
"67.2 638.4 OFFCURVE",
"65.8 625.8 CURVE SMOOTH",
"63 600.6 OFFCURVE",
"60.2 574.7 OFFCURVE",
"60.2 549.5 CURVE SMOOTH",
"60.2 546 OFFCURVE",
"60.2 543.2 OFFCURVE",
"60.2 540.4 CURVE SMOOTH",
"60.9 515.9 OFFCURVE",
"63 494.2 OFFCURVE",
"82.6 476.7 CURVE SMOOTH",
"105 456.4 OFFCURVE",
"137.2 455 OFFCURVE",
"165.9 455 CURVE SMOOTH",
"171.5 455 OFFCURVE",
"176.4 455 OFFCURVE",
"180.6 455 CURVE SMOOTH",
"196 455 OFFCURVE",
"211.4 455.7 OFFCURVE",
"226.8 457.1 CURVE SMOOTH",
"255.5 459.2 OFFCURVE",
"287.7 462.7 OFFCURVE",
"318.5 462.7 CURVE SMOOTH",
"373.1 462.7 OFFCURVE",
"425.6 451.5 OFFCURVE",
"455.7 399.7 CURVE SMOOTH",
"466.9 380.1 OFFCURVE",
"469.7 356.3 OFFCURVE",
"471.8 334.6 CURVE SMOOTH",
"472.5 326.9 OFFCURVE",
"472.5 319.9 OFFCURVE",
"472.5 312.9 CURVE SMOOTH",
"472.5 244.3 OFFCURVE",
"441.7 179.2 OFFCURVE",
"390.6 133.7 CURVE SMOOTH",
"366.8 111.3 OFFCURVE",
"329 108.5 OFFCURVE",
"307.3 82.6 CURVE SMOOTH",
"301.7 75.6 OFFCURVE",
"296.1 63 OFFCURVE",
"296.1 51.8 CURVE SMOOTH",
"296.1 47.6 OFFCURVE",
"296.8 43.4 OFFCURVE",
"298.9 39.9 CURVE SMOOTH",
"303.1 32.9 OFFCURVE",
"310.1 28.7 OFFCURVE",
"317.1 24.5 CURVE SMOOTH",
"321.3 21.7 OFFCURVE",
"326.2 17.5 OFFCURVE",
"331.8 16.8 CURVE SMOOTH",
"335.3 16.1 OFFCURVE",
"338.8 16.1 OFFCURVE",
"342.3 16.1 CURVE SMOOTH",
"398.3 16.1 OFFCURVE",
"451.5 61.6 OFFCURVE",
"476 109.2 CURVE SMOOTH",
"511.7 181.3 OFFCURVE",
"529.2 262.5 OFFCURVE",
"529.2 343 CURVE SMOOTH",
"529.2 366.8 OFFCURVE",
"527.8 390.6 OFFCURVE",
"525 414.4 CURVE SMOOTH",
"520.8 443.1 OFFCURVE",
"515.2 471.8 OFFCURVE",
"506.1 499.8 CURVE SMOOTH",
"495.6 529.9 OFFCURVE",
"482.3 562.8 OFFCURVE",
"461.3 587.3 CURVE SMOOTH",
"437.5 614.6 OFFCURVE",
"403.2 624.4 OFFCURVE",
"368.2 627.9 CURVE SMOOTH",
"353.5 630 OFFCURVE",
"338.1 630.7 OFFCURVE",
"322.7 630.7 CURVE SMOOTH",
"288.4 630.7 OFFCURVE",
"254.1 627.2 OFFCURVE",
"220.5 627.2 CURVE SMOOTH",
"203.7 627.2 OFFCURVE",
"187.6 627.9 OFFCURVE",
"170.8 630 CURVE SMOOTH",
"154.7 632.8 OFFCURVE",
"138.6 641.2 OFFCURVE",
"130.9 656.6 CURVE SMOOTH",
"126.7 663.6 OFFCURVE",
"128.1 686 OFFCURVE",
"117.6 686 CURVE SMOOTH",
"116.9 686 LINE SMOOTH"
);
}
);
width = 580;
},
{
anchors = (
{
name = bottom;
position = "{386, 0}";
},
{
name = center;
position = "{311, 290}";
}
);
layerId = m002;
paths = (
{
closed = 1;
nodes = (
"166 376 OFFCURVE",
"159 381 OFFCURVE",
"148 381 CURVE SMOOTH",
"132 381 OFFCURVE",
"102 351 OFFCURVE",
"77 259 CURVE SMOOTH",
"66 219 OFFCURVE",
"61 155 OFFCURVE",
"61 -276 CURVE SMOOTH",
"61 -327 OFFCURVE",
"66 -346 OFFCURVE",
"94 -346 CURVE SMOOTH",
"146 -346 OFFCURVE",
"199 -290 OFFCURVE",
"199 -218 CURVE SMOOTH",
"199 -73 OFFCURVE",
"153 88 OFFCURVE",
"153 198 CURVE SMOOTH",
"153 305 OFFCURVE",
"166 343 OFFCURVE",
"166 365 CURVE SMOOTH"
);
},
{
closed = 1;
nodes = (
"101 686 OFFCURVE",
"85 680 OFFCURVE",
"78 670 CURVE SMOOTH",
"72 662 OFFCURVE",
"60 600 OFFCURVE",
"60 540 CURVE SMOOTH",
"60 470 OFFCURVE",
"98 455 OFFCURVE",
"166 455 CURVE SMOOTH",
"222 455 OFFCURVE",
"269 463 OFFCURVE",
"319 463 CURVE SMOOTH",
"428 463 OFFCURVE",
"473 409 OFFCURVE",
"473 313 CURVE SMOOTH",
"473 221 OFFCURVE",
"405 141 OFFCURVE",
"366 118 CURVE SMOOTH",
"318 90 OFFCURVE",
"303 78 OFFCURVE",
"303 51 CURVE SMOOTH",
"303 36 OFFCURVE",
"317 16 OFFCURVE",
"342 16 CURVE SMOOTH",
"398 16 OFFCURVE",
"452 62 OFFCURVE",
"476 109 CURVE SMOOTH",
"512 180 OFFCURVE",
"529 263 OFFCURVE",
"529 343 CURVE SMOOTH",
"529 443 OFFCURVE",
"516 632 OFFCURVE",
"336 632 CURVE SMOOTH",
"301 632 OFFCURVE",
"254 627 OFFCURVE",
"221 627 CURVE SMOOTH",
"190 627 OFFCURVE",
"140 630 OFFCURVE",
"130 659 CURVE SMOOTH",
"124 677 OFFCURVE",
"121 686 OFFCURVE",
"112 686 CURVE SMOOTH"
);
}
);
width = 580;
}
);
unicode = 05E7;
},
{
color = 5;
glyphname = "resh-hb";
layers = (
{
anchors = (
{
name = bottom;
position = "{256, 0}";
},
{
name = center;
position = "{270, 329}";
}
);
layerId = m01;
paths = (
{
closed = 1;
nodes = (
"243 -25 OFFCURVE",
"231 -2 OFFCURVE",
"231 19 CURVE SMOOTH",
"231 51 OFFCURVE",
"283 94 OFFCURVE",
"305 118 CURVE SMOOTH",
"349 169 OFFCURVE",
"397 243 OFFCURVE",
"397 333 CURVE SMOOTH",
"397 439 OFFCURVE",
"336 471 OFFCURVE",
"230 471 CURVE SMOOTH",
"197 471 OFFCURVE",
"160 466 OFFCURVE",
"128 466 CURVE SMOOTH",
"27 466 OFFCURVE",
"21 515 OFFCURVE",
"21 576 CURVE SMOOTH",
"21 605 OFFCURVE",
"29 676 OFFCURVE",
"35 686 CURVE SMOOTH",
"39 693 OFFCURVE",
"57 697 OFFCURVE",
"69 697 CURVE SMOOTH",
"77 697 OFFCURVE",
"81 688 OFFCURVE",
"87 667 CURVE SMOOTH",
"92 650 OFFCURVE",
"103 634 OFFCURVE",
"175 634 CURVE SMOOTH",
"202 634 OFFCURVE",
"229 637 OFFCURVE",
"255 637 CURVE SMOOTH",
"430 637 OFFCURVE",
"454 457 OFFCURVE",
"454 340 CURVE SMOOTH",
"454 218 OFFCURVE",
"396 -25 OFFCURVE",
"279 -25 CURVE SMOOTH"
);
}
);
width = 501;
},
{
anchors = (
{
name = center;
position = "{190, 297}";
}
);
associatedMasterId = m01;
layerId = "09DF9D5C-4054-429F-8739-5040694BA60A";
name = "May 13, 21, 01:02";
paths = (
{
closed = 1;
nodes = (
"39.2 697.2 OFFCURVE",
"46.2 697.2 OFFCURVE",
"52.5 697.2 CURVE SMOOTH",
"63 697.2 LINE SMOOTH",
"65.1 697.2 OFFCURVE",
"68.6 697.9 OFFCURVE",
"71.4 697.9 CURVE SMOOTH",
"72.8 697.9 OFFCURVE",
"74.2 697.9 OFFCURVE",
"74.9 697.2 CURVE SMOOTH",
"79.8 693.7 OFFCURVE",
"80.5 681.1 OFFCURVE",
"82.6 675.5 CURVE SMOOTH",
"87.5 658 OFFCURVE",
"95.9 644.7 OFFCURVE",
"114.8 639.8 CURVE SMOOTH",
"134.4 634.9 OFFCURVE",
"154.7 633.5 OFFCURVE",
"175 633.5 CURVE SMOOTH",
"201.6 633.5 OFFCURVE",
"228.9 635.6 OFFCURVE",
"254.8 635.6 CURVE SMOOTH",
"287 635.6 OFFCURVE",
"317.8 632.1 OFFCURVE",
"347.2 617.4 CURVE SMOOTH",
"389.9 595 OFFCURVE",
"414.4 541.8 OFFCURVE",
"429.1 497.7 CURVE SMOOTH",
"445.9 448 OFFCURVE",
"453.6 394.1 OFFCURVE",
"453.6 339.5 CURVE SMOOTH",
"453.6 273 OFFCURVE",
"441.7 205.8 OFFCURVE",
"421.4 144.9 CURVE SMOOTH",
"408.8 105.7 OFFCURVE",
"393.4 67.9 OFFCURVE",
"370.3 34.3 CURVE SMOOTH",
"358.4 16.1 OFFCURVE",
"345.8 -0.7 OFFCURVE",
"326.9 -11.2 CURVE SMOOTH",
"312.9 -18.9 OFFCURVE",
"295.4 -25.2 OFFCURVE",
"278.6 -25.2 CURVE SMOOTH",
"263.2 -25.2 OFFCURVE",
"249.2 -20.3 OFFCURVE",
"240.8 -7 CURVE SMOOTH",
"234.5 2.1 OFFCURVE",
"231 12.6 OFFCURVE",
"231 23.8 CURVE SMOOTH",
"231 35 OFFCURVE",
"234.5 46.2 OFFCURVE",
"241.5 55.3 CURVE SMOOTH",
"250.6 67.2 OFFCURVE",
"264.6 76.3 OFFCURVE",
"275.1 86.8 CURVE SMOOTH",
"285.6 96.6 OFFCURVE",
"295.4 107.8 OFFCURVE",
"304.5 118.3 CURVE SMOOTH",
"357 180.6 OFFCURVE",
"396.9 249.2 OFFCURVE",
"396.9 332.5 CURVE SMOOTH",
"396.9 372.4 OFFCURVE",
"388.5 410.9 OFFCURVE",
"357.7 438.2 CURVE SMOOTH",
"336.7 457.1 OFFCURVE",
"306.6 465.5 OFFCURVE",
"279.3 468.3 CURVE SMOOTH",
"262.5 470.4 OFFCURVE",
"246.4 471.1 OFFCURVE",
"229.6 471.1 CURVE SMOOTH",
"196.7 471.1 OFFCURVE",
"163.8 468.3 OFFCURVE",
"131.6 468.3 CURVE SMOOTH",
"92.4 468.3 OFFCURVE",
"44.8 471.8 OFFCURVE",
"27.3 514.5 CURVE SMOOTH",
"23.8 521.5 OFFCURVE",
"23.8 530.6 OFFCURVE",
"23.1 538.3 CURVE SMOOTH",
"21.7 550.9 OFFCURVE",
"21 563.5 OFFCURVE",
"21 576.1 CURVE SMOOTH",
"21 585.2 OFFCURVE",
"21 593.6 OFFCURVE",
"21.7 602.7 CURVE SMOOTH",
"21.7 634.2 OFFCURVE",
"28 665.7 OFFCURVE",
"32.2 697.2 CURVE"
);
}
);
width = 501;
},
{
anchors = (
{
name = bottom;
position = "{256, 0}";
},
{
name = center;
position = "{270, 329}";
}
);
layerId = m002;
paths = (
{
closed = 1;
nodes = (
"243 -25 OFFCURVE",
"231 -2 OFFCURVE",
"231 19 CURVE SMOOTH",
"231 51 OFFCURVE",
"283 94 OFFCURVE",
"305 118 CURVE SMOOTH",
"349 169 OFFCURVE",
"397 243 OFFCURVE",
"397 333 CURVE SMOOTH",
"397 439 OFFCURVE",
"336 471 OFFCURVE",
"230 471 CURVE SMOOTH",
"197 471 OFFCURVE",
"160 466 OFFCURVE",
"128 466 CURVE SMOOTH",
"27 466 OFFCURVE",
"21 515 OFFCURVE",
"21 576 CURVE SMOOTH",
"21 605 OFFCURVE",
"29 676 OFFCURVE",
"35 686 CURVE SMOOTH",
"39 693 OFFCURVE",
"57 697 OFFCURVE",
"69 697 CURVE SMOOTH",
"77 697 OFFCURVE",
"81 688 OFFCURVE",
"87 667 CURVE SMOOTH",
"92 650 OFFCURVE",
"103 634 OFFCURVE",
"175 634 CURVE SMOOTH",
"202 634 OFFCURVE",
"229 637 OFFCURVE",
"255 637 CURVE SMOOTH",
"430 637 OFFCURVE",
"454 457 OFFCURVE",
"454 340 CURVE SMOOTH",
"454 218 OFFCURVE",
"396 -25 OFFCURVE",
"279 -25 CURVE SMOOTH"
);
}
);
width = 501;
}
);
unicode = 05E8;
},
{
color = 5;
glyphname = "shin-hb";
layers = (
{
anchors = (
{
name = bottom;
position = "{333, 0}";
},
{
name = bottomleft;
position = "{44, 0}";
},
{
name = center;
position = "{310, 327}";
},
{
name = top;
position = "{319, 685}";
},
{
name = topleft;
position = "{140, 615}";
},
{
name = topright;
position = "{501, 629}";
}
);
layerId = m01;
paths = (
{
closed = 1;
nodes = (
"83 -89 OFFCURVE",
"79 -82 OFFCURVE",
"79 -72 CURVE SMOOTH",
"79 -13 OFFCURVE",
"103 241 OFFCURVE",
"103 454 CURVE SMOOTH",
"103 466 OFFCURVE",
"97 474 OFFCURVE",
"89 476 CURVE SMOOTH",
"71 480 OFFCURVE",
"47 489 OFFCURVE",
"47 505 CURVE SMOOTH",
"47 519 OFFCURVE",
"113 685 OFFCURVE",
"122 694 CURVE SMOOTH",
"128 700 OFFCURVE",
"143 702 OFFCURVE",
"159 702 CURVE SMOOTH",
"170 702 OFFCURVE",
"171 678 OFFCURVE",
"180 662 CURVE SMOOTH",
"191 641 OFFCURVE",
"218 635 OFFCURVE",
"328 635 CURVE SMOOTH",
"386 635 OFFCURVE",
"450 640 OFFCURVE",
"468 683 CURVE SMOOTH",
"473 695 OFFCURVE",
"492 702 OFFCURVE",
"509 702 CURVE SMOOTH",
"518 702 OFFCURVE",
"522 695 OFFCURVE",
"522 679 CURVE SMOOTH",
"522 593 OFFCURVE",
"486 464 OFFCURVE",
"352 464 CURVE SMOOTH",
"316 464 OFFCURVE",
"250 474 OFFCURVE",
"214 474 CURVE SMOOTH",
"179 474 OFFCURVE",
"169 470 OFFCURVE",
"169 455 CURVE SMOOTH",
"169 381 OFFCURVE",
"162 210 OFFCURVE",
"162 184 CURVE SMOOTH",
"162 169 OFFCURVE",
"185 160 OFFCURVE",
"300 160 CURVE SMOOTH",
"399 160 OFFCURVE",
"452 210 OFFCURVE",
"468 337 CURVE SMOOTH",
"469 347 OFFCURVE",
"494 355 OFFCURVE",
"509 355 CURVE SMOOTH",
"517 355 OFFCURVE",
"522 349 OFFCURVE",
"522 342 CURVE SMOOTH",
"522 183 OFFCURVE",
"492 -7 OFFCURVE",
"313 -7 CURVE SMOOTH",
"290 -7 OFFCURVE",
"223 3 OFFCURVE",
"198 3 CURVE SMOOTH",
"148 3 OFFCURVE",
"163 -46 OFFCURVE",
"136 -77 CURVE SMOOTH",
"127 -88 OFFCURVE",
"113 -89 OFFCURVE",
"99 -89 CURVE SMOOTH"
);
}
);
width = 580;
},
{
anchors = (
{
name = bottom;
position = "{313, -7}";
},
{
name = bottomleft;
position = "{44, 0}";
},
{
name = center;
position = "{310, 317}";
},
{
name = top;
position = "{319, 685}";
},
{
name = topleft;
position = "{140, 615}";
},
{
name = topright;
position = "{501, 629}";
}
);
associatedMasterId = m01;
layerId = "6C5F62C7-E032-4855-B704-3C16E4641CDE";
name = "May 13, 21, 01:24";
paths = (
{
closed = 1;
nodes = (
"169.4 702.1 LINE",
"169.4 676.2 OFFCURVE",
"178.5 653.1 OFFCURVE",
"204.4 643.3 CURVE SMOOTH",
"212.1 639.8 OFFCURVE",
"221.9 640.5 OFFCURVE",
"230.3 639.8 CURVE SMOOTH",
"244.3 638.4 OFFCURVE",
"257.6 637.7 OFFCURVE",
"271.6 637 CURVE SMOOTH",
"289.8 635.6 OFFCURVE",
"308.7 634.9 OFFCURVE",
"328.3 634.9 CURVE SMOOTH",
"356.3 634.9 OFFCURVE",
"384.3 637 OFFCURVE",
"412.3 642.6 CURVE SMOOTH",
"439.6 648.9 OFFCURVE",
"466.9 669.2 OFFCURVE",
"472.5 697.9 CURVE",
"524.3 697.9 LINE",
"524.3 670.6 OFFCURVE",
"516.6 640.5 OFFCURVE",
"509.6 614.6 CURVE SMOOTH",
"502.6 589.4 OFFCURVE",
"494.9 564.2 OFFCURVE",
"484.4 540.4 CURVE SMOOTH",
"480.9 532 OFFCURVE",
"477.4 520.8 OFFCURVE",
"471.1 513.1 CURVE SMOOTH",
"452.9 492.8 OFFCURVE",
"420.7 482.3 OFFCURVE",
"394.8 476 CURVE SMOOTH",
"370.3 469.7 OFFCURVE",
"346.5 468.3 OFFCURVE",
"322 468.3 CURVE SMOOTH",
"285.6 468.3 OFFCURVE",
"249.9 471.8 OFFCURVE",
"213.5 471.8 CURVE SMOOTH",
"198.8 471.8 OFFCURVE",
"184.1 471.1 OFFCURVE",
"169.4 469.7 CURVE",
"169.4 396.2 OFFCURVE",
"164.5 323.4 OFFCURVE",
"164.5 249.9 CURVE SMOOTH",
"164.5 249.2 LINE SMOOTH",
"164.5 245.7 OFFCURVE",
"164.5 242.2 OFFCURVE",
"164.5 238 CURVE SMOOTH",
"164.5 224.7 OFFCURVE",
"164.5 211.4 OFFCURVE",
"162.4 198.1 CURVE SMOOTH",
"162.4 196 OFFCURVE",
"161.7 191.1 OFFCURVE",
"161.7 186.2 CURVE SMOOTH",
"161.7 182 OFFCURVE",
"162.4 178.5 OFFCURVE",
"163.8 176.4 CURVE SMOOTH",
"168.7 171.5 OFFCURVE",
"181.3 170.1 OFFCURVE",
"187.6 168.7 CURVE SMOOTH",
"210.7 163.8 OFFCURVE",
"233.1 163.8 OFFCURVE",
"256.9 162.4 CURVE SMOOTH",
"270.9 161 OFFCURVE",
"285.6 160.3 OFFCURVE",
"299.6 160.3 CURVE SMOOTH",
"322.7 160.3 OFFCURVE",
"345.1 162.4 OFFCURVE",
"367.5 170.8 CURVE SMOOTH",
"439.6 198.8 OFFCURVE",
"465.5 284.2 OFFCURVE",
"468.3 354.9 CURVE",
"522.2 354.9 LINE",
"522.2 277.2 OFFCURVE",
"513.8 198.1 OFFCURVE",
"489.3 124.6 CURVE SMOOTH",
"480.2 98 OFFCURVE",
"469.7 66.5 OFFCURVE",
"452.2 44.8 CURVE SMOOTH",
"433.3 21.7 OFFCURVE",
"404.6 8.4 OFFCURVE",
"376.6 0.7 CURVE SMOOTH",
"355.6 -4.9 OFFCURVE",
"334.6 -7 OFFCURVE",
"312.9 -7 CURVE SMOOTH",
"289.8 -7 OFFCURVE",
"266.7 -4.9 OFFCURVE",
"244.3 -2.8 CURVE SMOOTH",
"230.3 -1.4 OFFCURVE",
"213.5 2.8 OFFCURVE",
"198.8 2.8 CURVE SMOOTH",
"193.2 2.8 OFFCURVE",
"187.6 2.1 OFFCURVE",
"182.7 0.7 CURVE SMOOTH",
"149.1 -10.5 OFFCURVE",
"156.1 -53.9 OFFCURVE",
"135.8 -77 CURVE SMOOTH",
"126.7 -87.5 OFFCURVE",
"112.7 -88.9 OFFCURVE",
"99.4 -88.9 CURVE SMOOTH",
"91.7 -88.9 OFFCURVE",
"84.7 -88.2 OFFCURVE",
"77.7 -88.2 CURVE",
"79.1 -81.9 OFFCURVE",
"79.8 -74.9 OFFCURVE",
"79.8 -67.9 CURVE SMOOTH",
"79.8 -65.1 OFFCURVE",
"79.8 -61.6 OFFCURVE",
"79.8 -58.1 CURVE SMOOTH",
"79.8 -49.7 LINE SMOOTH",
"80 -22 OFFCURVE",
"82.6 4.9 OFFCURVE",
"83.3 32.2 CURVE SMOOTH",
"87.5 113.4 OFFCURVE",
"91.7 195.3 OFFCURVE",
"95.2 277.2 CURVE SMOOTH",
"97.3 318.5 OFFCURVE",
"98.7 360.5 OFFCURVE",
"100.8 401.8 CURVE SMOOTH",
"102.2 415.1 OFFCURVE",
"102.2 428.4 OFFCURVE",
"102.9 442.4 CURVE SMOOTH",
"103.6 448.7 OFFCURVE",
"105 456.4 OFFCURVE",
"105 463.4 CURVE SMOOTH",
"105 465.5 OFFCURVE",
"105 467.6 OFFCURVE",
"104.3 469.7 CURVE SMOOTH",
"103.6 475.3 OFFCURVE",
"93.1 476.7 OFFCURVE",
"88.2 478.1 CURVE SMOOTH",
"76.3 481.6 OFFCURVE",
"46.9 487.9 OFFCURVE",
"46.9 505.4 CURVE",
"46.9 505.4 LINE",
"46.9 511 OFFCURVE",
"51 517 OFFCURVE",
"52.5 522.2 CURVE SMOOTH",
"66.5 560 LINE",
"98 643.3 LINE SMOOTH",
"105 662 OFFCURVE",
"114.8 682.5 OFFCURVE",
"119.7 702.1 CURVE"
);
}
);
width = 580;
},
{
anchors = (
{
name = bottom;
position = "{333, 0}";
},
{
name = bottomleft;
position = "{44, 0}";
},
{
name = center;
position = "{310, 327}";
},
{
name = top;
position = "{319, 685}";
},
{
name = topleft;
position = "{140, 615}";
},
{
name = topright;
position = "{501, 629}";
}
);
layerId = m002;
paths = (
{
closed = 1;
nodes = (
"83 -89 OFFCURVE",
"79 -82 OFFCURVE",
"79 -72 CURVE SMOOTH",
"79 -13 OFFCURVE",
"103 241 OFFCURVE",
"103 454 CURVE SMOOTH",
"103 466 OFFCURVE",
"97 474 OFFCURVE",
"89 476 CURVE SMOOTH",
"71 480 OFFCURVE",
"47 489 OFFCURVE",
"47 505 CURVE SMOOTH",
"47 519 OFFCURVE",
"113 685 OFFCURVE",
"122 694 CURVE SMOOTH",
"128 700 OFFCURVE",
"143 702 OFFCURVE",
"159 702 CURVE SMOOTH",
"170 702 OFFCURVE",
"171 678 OFFCURVE",
"180 662 CURVE SMOOTH",
"191 641 OFFCURVE",
"218 635 OFFCURVE",
"328 635 CURVE SMOOTH",
"386 635 OFFCURVE",
"450 640 OFFCURVE",
"468 683 CURVE SMOOTH",
"473 695 OFFCURVE",
"492 702 OFFCURVE",
"509 702 CURVE SMOOTH",
"518 702 OFFCURVE",
"522 695 OFFCURVE",
"522 679 CURVE SMOOTH",
"522 593 OFFCURVE",
"486 464 OFFCURVE",
"352 464 CURVE SMOOTH",
"316 464 OFFCURVE",
"250 474 OFFCURVE",
"214 474 CURVE SMOOTH",
"179 474 OFFCURVE",
"169 470 OFFCURVE",
"169 455 CURVE SMOOTH",
"169 381 OFFCURVE",
"162 210 OFFCURVE",
"162 184 CURVE SMOOTH",
"162 169 OFFCURVE",
"185 160 OFFCURVE",
"300 160 CURVE SMOOTH",
"399 160 OFFCURVE",
"452 210 OFFCURVE",
"468 337 CURVE SMOOTH",
"469 347 OFFCURVE",
"494 355 OFFCURVE",
"509 355 CURVE SMOOTH",
"517 355 OFFCURVE",
"522 349 OFFCURVE",
"522 342 CURVE SMOOTH",
"522 183 OFFCURVE",
"492 -7 OFFCURVE",
"313 -7 CURVE SMOOTH",
"290 -7 OFFCURVE",
"223 3 OFFCURVE",
"198 3 CURVE SMOOTH",
"148 3 OFFCURVE",
"163 -46 OFFCURVE",
"136 -77 CURVE SMOOTH",
"127 -88 OFFCURVE",
"113 -89 OFFCURVE",
"99 -89 CURVE SMOOTH"
);
}
);
width = 580;
}
);
unicode = 05E9;
},
{
color = 5;
glyphname = "tav-hb";
layers = (
{
anchors = (
{
name = bottom;
position = "{285, 0}";
},
{
name = center;
position = "{316, 330}";
}
);
layerId = m01;
paths = (
{
closed = 1;
nodes = (
"37 -27 OFFCURVE",
"34 1 OFFCURVE",
"34 88 CURVE SMOOTH",
"34 106 OFFCURVE",
"38 125 OFFCURVE",
"74 143 CURVE SMOOTH",
"90 151 OFFCURVE",
"97 157 OFFCURVE",
"97 168 CURVE SMOOTH",
"94 256 OFFCURVE",
"83 307 OFFCURVE",
"83 325 CURVE SMOOTH",
"84 358 OFFCURVE",
"95 391 OFFCURVE",
"108 412 CURVE SMOOTH",
"128 444 OFFCURVE",
"137 454 OFFCURVE",
"137 462 CURVE SMOOTH",
"137 467 OFFCURVE",
"131 472 OFFCURVE",
"122 475 CURVE SMOOTH",
"99 483 OFFCURVE",
"78 515 OFFCURVE",
"78 545 CURVE SMOOTH",
"78 610 OFFCURVE",
"92 671 OFFCURVE",
"94 676 CURVE SMOOTH",
"98 685 OFFCURVE",
"132 693 OFFCURVE",
"139 693 CURVE SMOOTH",
"144 693 OFFCURVE",
"147 688 OFFCURVE",
"147 679 CURVE SMOOTH",
"147 643 OFFCURVE",
"189 627 OFFCURVE",
"235 627 CURVE SMOOTH",
"255 627 OFFCURVE",
"301 630 OFFCURVE",
"341 630 CURVE SMOOTH",
"496 630 OFFCURVE",
"534 472 OFFCURVE",
"534 347 CURVE SMOOTH",
"534 223 OFFCURVE",
"471 23 OFFCURVE",
"363 23 CURVE SMOOTH",
"327 23 OFFCURVE",
"311 36 OFFCURVE",
"311 80 CURVE SMOOTH",
"311 88 OFFCURVE",
"317 102 OFFCURVE",
"342 114 CURVE SMOOTH",
"464 174 OFFCURVE",
"473 255 OFFCURVE",
"473 330 CURVE SMOOTH",
"473 452 OFFCURVE",
"395 457 OFFCURVE",
"291 457 CURVE SMOOTH",
"269 457 OFFCURVE",
"244 461 OFFCURVE",
"230 461 CURVE SMOOTH",
"205 461 OFFCURVE",
"158 392 OFFCURVE",
"158 343 CURVE SMOOTH",
"158 280 OFFCURVE",
"222 139 OFFCURVE",
"221 82 CURVE SMOOTH",
"221 48 OFFCURVE",
"211 14 OFFCURVE",
"197 0 CURVE SMOOTH",
"181 -16 OFFCURVE",
"118 -27 OFFCURVE",
"61 -27 CURVE SMOOTH"
);
}
);
width = 580;
},
{
anchors = (
{
name = center;
position = "{302, 319}";
}
);
associatedMasterId = m01;
layerId = "50D32998-DE20-41E3-A896-FD8676242B5D";
name = "May 13, 21, 11:00";
paths = (
{
closed = 1;
nodes = (
"133.7 462.7 OFFCURVE",
"115.5 468.3 OFFCURVE",
"105 478.1 CURVE SMOOTH",
"84 497 OFFCURVE",
"78.4 525.7 OFFCURVE",
"78.4 554.4 CURVE SMOOTH",
"78.4 578.9 OFFCURVE",
"82.6 604.1 OFFCURVE",
"85.4 625.1 CURVE SMOOTH",
"87.5 640.5 OFFCURVE",
"89.6 655.9 OFFCURVE",
"90.3 670.6 CURVE SMOOTH",
"90.3 671.3 OFFCURVE",
"90.3 671.3 OFFCURVE",
"90.3 672 CURVE SMOOTH",
"90.3 673.4 OFFCURVE",
"90.3 676.9 OFFCURVE",
"90.3 679 CURVE SMOOTH",
"90.3 682.5 OFFCURVE",
"90.3 684.6 OFFCURVE",
"91.7 686 CURVE SMOOTH",
"93.8 687.4 OFFCURVE",
"116 687 OFFCURVE",
"119 687 CURVE SMOOTH",
"121 687 OFFCURVE",
"130 696 OFFCURVE",
"140 688.1 CURVE SMOOTH",
"144 685 OFFCURVE",
"149.8 657.3 OFFCURVE",
"161.7 646.8 CURVE SMOOTH",
"182.7 627.9 OFFCURVE",
"218.4 627.2 OFFCURVE",
"245 627.2 CURVE SMOOTH",
"254.8 627.2 OFFCURVE",
"263.9 627.2 OFFCURVE",
"273.7 627.2 CURVE SMOOTH",
"310.1 627.2 OFFCURVE",
"346.5 626.5 OFFCURVE",
"382.9 620.2 CURVE SMOOTH",
"415.1 615.3 OFFCURVE",
"445.2 604.8 OFFCURVE",
"467.6 580.3 CURVE SMOOTH",
"478.8 568.4 OFFCURVE",
"485.1 553.7 OFFCURVE",
"492.1 538.3 CURVE SMOOTH",
"503.3 515.2 OFFCURVE",
"512.4 491.4 OFFCURVE",
"518.7 466.9 CURVE SMOOTH",
"528.5 427 OFFCURVE",
"533.4 386.4 OFFCURVE",
"533.4 346.5 CURVE SMOOTH",
"533.4 277.2 OFFCURVE",
"519.4 208.6 OFFCURVE",
"491.4 144.9 CURVE SMOOTH",
"469 93.8 OFFCURVE",
"423.5 23.1 OFFCURVE",
"362.6 23.1 CURVE SMOOTH",
"352.1 23.1 OFFCURVE",
"341.6 25.2 OFFCURVE",
"330.4 29.4 CURVE SMOOTH",
"313.6 36.4 OFFCURVE",
"312.9 60.9 OFFCURVE",
"312.2 77 CURVE SMOOTH",
"312.2 79.8 OFFCURVE",
"311.5 82.6 OFFCURVE",
"311.5 84.7 CURVE SMOOTH",
"311.5 88.9 OFFCURVE",
"312.2 92.4 OFFCURVE",
"315.7 95.9 CURVE SMOOTH",
"337.4 116.2 OFFCURVE",
"366.8 123.9 OFFCURVE",
"390.6 140 CURVE SMOOTH",
"417.9 158.2 OFFCURVE",
"439.6 187.6 OFFCURVE",
"452.9 217 CURVE SMOOTH",
"469 252.7 OFFCURVE",
"473.2 291.2 OFFCURVE",
"473.2 329.7 CURVE SMOOTH",
"473.2 331.8 OFFCURVE",
"473.2 333.9 OFFCURVE",
"473.2 336.7 CURVE SMOOTH",
"473.2 364.7 OFFCURVE",
"469.7 393.4 OFFCURVE",
"450.8 415.8 CURVE SMOOTH",
"415.8 458.5 OFFCURVE",
"364.7 462 OFFCURVE",
"313.6 462 CURVE SMOOTH",
"303.1 462 OFFCURVE",
"291.9 462 OFFCURVE",
"280.7 462 CURVE SMOOTH",
"268.1 462 OFFCURVE",
"252.7 464.1 OFFCURVE",
"238.7 464.1 CURVE SMOOTH",
"232.4 464.1 OFFCURVE",
"226.1 464.1 OFFCURVE",
"220.5 462.7 CURVE SMOOTH",
"212.1 460.6 OFFCURVE",
"204.4 447.3 OFFCURVE",
"199.5 440.3 CURVE SMOOTH",
"180.6 416.5 OFFCURVE",
"163.8 392 OFFCURVE",
"158.9 361.9 CURVE SMOOTH",
"158.2 355.6 OFFCURVE",
"158.2 349.3 OFFCURVE",
"158.2 343 CURVE SMOOTH",
"158.2 314.3 OFFCURVE",
"166.6 287 OFFCURVE",
"175 259.7 CURVE SMOOTH",
"183.4 235.2 OFFCURVE",
"188.3 210 OFFCURVE",
"196 185.5 CURVE SMOOTH",
"207.2 151.2 OFFCURVE",
"221.2 118.3 OFFCURVE",
"221.2 81.9 CURVE SMOOTH",
"221.2 77 OFFCURVE",
"221.2 72.8 OFFCURVE",
"220.5 67.9 CURVE SMOOTH",
"218.4 43.4 OFFCURVE",
"212.8 15.4 OFFCURVE",
"194.6 -2.8 CURVE SMOOTH",
"187.6 -9.8 OFFCURVE",
"172.9 -12.6 OFFCURVE",
"163.1 -14.7 CURVE SMOOTH",
"136.5 -21.7 OFFCURVE",
"109.9 -26.6 OFFCURVE",
"82.6 -26.6 CURVE SMOOTH",
"77.7 -26.6 OFFCURVE",
"70 -27.3 OFFCURVE",
"63.7 -27.3 CURVE SMOOTH",
"58.1 -27.3 OFFCURVE",
"53.2 -26.6 OFFCURVE",
"49.7 -24.5 CURVE SMOOTH",
"42 -20.3 OFFCURVE",
"38.5 -3.5 OFFCURVE",
"37.1 4.9 CURVE SMOOTH",
"35 16.8 OFFCURVE",
"35 29.4 OFFCURVE",
"35 41.3 CURVE SMOOTH",
"35 51.1 OFFCURVE",
"35 60.2 OFFCURVE",
"35 70 CURVE SMOOTH",
"35 77 OFFCURVE",
"34.3 84 OFFCURVE",
"34.3 91.7 CURVE SMOOTH",
"34.3 96.6 OFFCURVE",
"34.3 100.8 OFFCURVE",
"35.7 105 CURVE SMOOTH",
"39.9 123.2 OFFCURVE",
"58.8 134.4 OFFCURVE",
"74.2 142.8 CURVE SMOOTH",
"79.8 145.6 OFFCURVE",
"93.1 149.8 OFFCURVE",
"95.2 156.8 CURVE SMOOTH",
"95.9 160.3 OFFCURVE",
"96.6 163.8 OFFCURVE",
"96.6 168 CURVE SMOOTH",
"96.6 177.1 OFFCURVE",
"94.5 186.9 OFFCURVE",
"94.5 195.3 CURVE SMOOTH",
"93.8 221.9 OFFCURVE",
"93.8 247.8 OFFCURVE",
"91 274.4 CURVE SMOOTH",
"89.6 291.2 OFFCURVE",
"83.3 307.3 OFFCURVE",
"83.3 324.8 CURVE SMOOTH",
"83.3 374.5 OFFCURVE",
"113.4 424.2 OFFCURVE",
"147 459.2 CURVE"
);
}
);
width = 580;
},
{
anchors = (
{
name = bottom;
position = "{285, 0}";
},
{
name = center;
position = "{316, 330}";
}
);
layerId = m002;
paths = (
{
closed = 1;
nodes = (
"37 -27 OFFCURVE",
"34 1 OFFCURVE",
"34 88 CURVE SMOOTH",
"34 106 OFFCURVE",
"38 125 OFFCURVE",
"74 143 CURVE SMOOTH",
"90 151 OFFCURVE",
"97 157 OFFCURVE",
"97 168 CURVE SMOOTH",
"94 256 OFFCURVE",
"83 307 OFFCURVE",
"83 325 CURVE SMOOTH",
"84 358 OFFCURVE",
"95 391 OFFCURVE",
"108 412 CURVE SMOOTH",
"128 444 OFFCURVE",
"137 454 OFFCURVE",
"137 462 CURVE SMOOTH",
"137 467 OFFCURVE",
"131 472 OFFCURVE",
"122 475 CURVE SMOOTH",
"99 483 OFFCURVE",
"78 515 OFFCURVE",
"78 545 CURVE SMOOTH",
"78 610 OFFCURVE",
"92 671 OFFCURVE",
"94 676 CURVE SMOOTH",
"98 685 OFFCURVE",
"132 693 OFFCURVE",
"139 693 CURVE SMOOTH",
"144 693 OFFCURVE",
"147 688 OFFCURVE",
"147 679 CURVE SMOOTH",
"147 643 OFFCURVE",
"189 627 OFFCURVE",
"235 627 CURVE SMOOTH",
"255 627 OFFCURVE",
"301 630 OFFCURVE",
"341 630 CURVE SMOOTH",
"496 630 OFFCURVE",
"534 472 OFFCURVE",
"534 347 CURVE SMOOTH",
"534 223 OFFCURVE",
"471 23 OFFCURVE",
"363 23 CURVE SMOOTH",
"327 23 OFFCURVE",
"311 36 OFFCURVE",
"311 80 CURVE SMOOTH",
"311 88 OFFCURVE",
"317 102 OFFCURVE",
"342 114 CURVE SMOOTH",
"464 174 OFFCURVE",
"473 255 OFFCURVE",
"473 330 CURVE SMOOTH",
"473 452 OFFCURVE",
"395 457 OFFCURVE",
"291 457 CURVE SMOOTH",
"269 457 OFFCURVE",
"244 461 OFFCURVE",
"230 461 CURVE SMOOTH",
"205 461 OFFCURVE",
"158 392 OFFCURVE",
"158 343 CURVE SMOOTH",
"158 280 OFFCURVE",
"222 139 OFFCURVE",
"221 82 CURVE SMOOTH",
"221 48 OFFCURVE",
"211 14 OFFCURVE",
"197 0 CURVE SMOOTH",
"181 -16 OFFCURVE",
"118 -27 OFFCURVE",
"61 -27 CURVE SMOOTH"
);
}
);
width = 580;
}
);
unicode = 05EA;
},
{
color = 5;
glyphname = "yodhiriq-hb";
layers = (
{
components = (
{
name = "yod-hb";
}
);
layerId = m01;
paths = (
{
closed = 1;
nodes = (
"80 162 OFFCURVE",
"95 177 OFFCURVE",
"95 197 CURVE SMOOTH",
"95 217 OFFCURVE",
"80 232 OFFCURVE",
"60 232 CURVE SMOOTH",
"40 232 OFFCURVE",
"25 217 OFFCURVE",
"25 197 CURVE SMOOTH",
"25 177 OFFCURVE",
"40 162 OFFCURVE",
"60 162 CURVE SMOOTH"
);
}
);
width = 270;
},
{
associatedMasterId = m01;
layerId = "143AD760-3ED5-4471-B105-A28000F49672";
name = "May 13, 21, 11:45";
paths = (
{
closed = 1;
nodes = (
"97.3 688.1 LINE",
"98 687.4 LINE"
);
},
{
closed = 1;
nodes = (
"97.3 687.4 LINE",
"96.6 682.5 OFFCURVE",
"95.2 677.6 OFFCURVE",
"95.9 672.7 CURVE SMOOTH",
"97.3 664.3 OFFCURVE",
"100.1 651.7 OFFCURVE",
"105 644.7 CURVE SMOOTH",
"126.7 611.8 OFFCURVE",
"175 604.1 OFFCURVE",
"207.2 586.6 CURVE SMOOTH",
"231 573.3 OFFCURVE",
"251.3 551.6 OFFCURVE",
"256.2 524.3 CURVE SMOOTH",
"258.3 511 OFFCURVE",
"257.6 497.7 OFFCURVE",
"256.9 484.4 CURVE SMOOTH",
"252 412.3 OFFCURVE",
"224 343 OFFCURVE",
"179.2 287 CURVE SMOOTH",
"169.4 274.4 OFFCURVE",
"158.9 262.5 OFFCURVE",
"147.7 252 CURVE SMOOTH",
"140.7 245 OFFCURVE",
"133.7 238.7 OFFCURVE",
"123.2 242.9 CURVE SMOOTH",
"118.3 245 OFFCURVE",
"112.7 252.7 OFFCURVE",
"109.2 256.9 CURVE SMOOTH",
"105 260.4 OFFCURVE",
"98.7 265.3 OFFCURVE",
"97.3 270.2 CURVE SMOOTH",
"95.9 275.1 OFFCURVE",
"102.2 279.3 OFFCURVE",
"105 282.1 CURVE SMOOTH",
"113.4 290.5 OFFCURVE",
"121.8 300.3 OFFCURVE",
"130.2 310.1 CURVE SMOOTH",
"153.3 338.8 OFFCURVE",
"185.5 383.6 OFFCURVE",
"169.4 424.2 CURVE SMOOTH",
"165.2 434 OFFCURVE",
"144.2 441 OFFCURVE",
"135.1 445.2 CURVE SMOOTH",
"105.7 457.8 OFFCURVE",
"72.8 467.6 OFFCURVE",
"47.6 488.6 CURVE SMOOTH",
"2.1 526.4 OFFCURVE",
"21.7 598.5 OFFCURVE",
"39.9 645.4 CURVE SMOOTH",
"44.1 657.3 OFFCURVE",
"51.1 669.2 OFFCURVE",
"54.6 681.8 CURVE"
);
},
{
closed = 1;
nodes = (
"98.7 215.6 OFFCURVE",
"123.9 163.1 OFFCURVE",
"89.6 139.3 CURVE SMOOTH",
"84.7 135.8 OFFCURVE",
"78.4 133.7 OFFCURVE",
"72.8 133 CURVE SMOOTH",
"25.9 124.6 OFFCURVE",
"11.9 200.2 OFFCURVE",
"59.5 208.6 CURVE SMOOTH"
);
}
);
width = 270;
},
{
components = (
{
name = "yod-hb";
}
);
layerId = m002;
paths = (
{
closed = 1;
nodes = (
"80 162 OFFCURVE",
"95 177 OFFCURVE",
"95 197 CURVE SMOOTH",
"95 217 OFFCURVE",
"80 232 OFFCURVE",
"60 232 CURVE SMOOTH",
"40 232 OFFCURVE",
"25 217 OFFCURVE",
"25 197 CURVE SMOOTH",
"25 177 OFFCURVE",
"40 162 OFFCURVE",
"60 162 CURVE SMOOTH"
);
}
);
width = 270;
}
);
unicode = FB1D;
},
{
glyphname = period;
layers = (
{
layerId = m01;
width = 600;
},
{
guideLines = (
{
position = "{0, 0}";
showMeasurement = 1;
}
);
layerId = m002;
paths = (
{
closed = 1;
nodes = (
"4042 660 OFFCURVE",
"4977 880 OFFCURVE",
"4977 1151 CURVE SMOOTH",
"4977 1421 OFFCURVE",
"4042 1641 OFFCURVE",
"2888 1641 CURVE SMOOTH",
"1733 1641 OFFCURVE",
"798 1421 OFFCURVE",
"798 1151 CURVE SMOOTH",
"798 880 OFFCURVE",
"1733 660 OFFCURVE",
"2888 660 CURVE SMOOTH"
);
}
);
width = 600;
}
);
unicode = 002E;
},
{
glyphname = "shindot-hb";
layers = (
{
anchors = (
{
name = _topright;
position = "{0, 415}";
}
);
layerId = m01;
paths = (
{
closed = 1;
nodes = (
"25 528 OFFCURVE",
"45 548 OFFCURVE",
"45 573 CURVE SMOOTH",
"45 598 OFFCURVE",
"25 618 OFFCURVE",
"0 618 CURVE SMOOTH",
"-25 618 OFFCURVE",
"-45 598 OFFCURVE",
"-45 573 CURVE SMOOTH",
"-45 548 OFFCURVE",
"-25 528 OFFCURVE",
"0 528 CURVE SMOOTH"
);
}
);
width = 0;
},
{
anchors = (
{
name = _topright;
position = "{0, 415}";
}
);
layerId = m002;
paths = (
{
closed = 1;
nodes = (
"25 528 OFFCURVE",
"45 548 OFFCURVE",
"45 573 CURVE SMOOTH",
"45 598 OFFCURVE",
"25 618 OFFCURVE",
"0 618 CURVE SMOOTH",
"-25 618 OFFCURVE",
"-45 598 OFFCURVE",
"-45 573 CURVE SMOOTH",
"-45 548 OFFCURVE",
"-25 528 OFFCURVE",
"0 528 CURVE SMOOTH"
);
}
);
width = 0;
}
);
unicode = 05C1;
},
{
glyphname = "sheva-hb";
layers = (
{
anchors = (
{
name = _bottom;
position = "{1, 0}";
}
);
layerId = m01;
paths = (
{
closed = 1;
nodes = (
"25 -190 OFFCURVE",
"45 -170 OFFCURVE",
"45 -145 CURVE SMOOTH",
"45 -120 OFFCURVE",
"25 -100 OFFCURVE",
"0 -100 CURVE SMOOTH",
"-25 -100 OFFCURVE",
"-45 -120 OFFCURVE",
"-45 -145 CURVE SMOOTH",
"-45 -170 OFFCURVE",
"-25 -190 OFFCURVE",
"0 -190 CURVE SMOOTH"
);
},
{
closed = 1;
nodes = (
"25 -330 OFFCURVE",
"45 -310 OFFCURVE",
"45 -285 CURVE SMOOTH",
"45 -260 OFFCURVE",
"25 -240 OFFCURVE",
"0 -240 CURVE SMOOTH",
"-25 -240 OFFCURVE",
"-45 -260 OFFCURVE",
"-45 -285 CURVE SMOOTH",
"-45 -310 OFFCURVE",
"-25 -330 OFFCURVE",
"0 -330 CURVE SMOOTH"
);
}
);
width = 0;
},
{
anchors = (
{
name = _bottom;
position = "{1, 0}";
}
);
layerId = m002;
paths = (
{
closed = 1;
nodes = (
"25 -190 OFFCURVE",
"45 -170 OFFCURVE",
"45 -145 CURVE SMOOTH",
"45 -120 OFFCURVE",
"25 -100 OFFCURVE",
"0 -100 CURVE SMOOTH",
"-25 -100 OFFCURVE",
"-45 -120 OFFCURVE",
"-45 -145 CURVE SMOOTH",
"-45 -170 OFFCURVE",
"-25 -190 OFFCURVE",
"0 -190 CURVE SMOOTH"
);
},
{
closed = 1;
nodes = (
"25 -330 OFFCURVE",
"45 -310 OFFCURVE",
"45 -285 CURVE SMOOTH",
"45 -260 OFFCURVE",
"25 -240 OFFCURVE",
"0 -240 CURVE SMOOTH",
"-25 -240 OFFCURVE",
"-45 -260 OFFCURVE",
"-45 -285 CURVE SMOOTH",
"-45 -310 OFFCURVE",
"-25 -330 OFFCURVE",
"0 -330 CURVE SMOOTH"
);
}
);
width = 0;
}
);
unicode = 05B0;
},
{
glyphname = "hiriq-hb";
layers = (
{
anchors = (
{
name = _bottom;
position = "{0, 0}";
}
);
layerId = m01;
paths = (
{
closed = 1;
nodes = (
"25 -190 OFFCURVE",
"45 -170 OFFCURVE",
"45 -145 CURVE SMOOTH",
"45 -120 OFFCURVE",
"25 -100 OFFCURVE",
"0 -100 CURVE SMOOTH",
"-25 -100 OFFCURVE",
"-45 -120 OFFCURVE",
"-45 -145 CURVE SMOOTH",
"-45 -170 OFFCURVE",
"-25 -190 OFFCURVE",
"0 -190 CURVE SMOOTH"
);
}
);
width = 0;
},
{
anchors = (
{
name = _bottom;
position = "{0, 0}";
}
);
layerId = m002;
paths = (
{
closed = 1;
nodes = (
"25 -190 OFFCURVE",
"45 -170 OFFCURVE",
"45 -145 CURVE SMOOTH",
"45 -120 OFFCURVE",
"25 -100 OFFCURVE",
"0 -100 CURVE SMOOTH",
"-25 -100 OFFCURVE",
"-45 -120 OFFCURVE",
"-45 -145 CURVE SMOOTH",
"-45 -170 OFFCURVE",
"-25 -190 OFFCURVE",
"0 -190 CURVE SMOOTH"
);
}
);
width = 0;
}
);
unicode = 05B4;
},
{
glyphname = "tsere-hb";
layers = (
{
anchors = (
{
name = _bottom;
position = "{0, 0}";
}
);
layerId = m01;
paths = (
{
closed = 1;
nodes = (
"-55 -190 OFFCURVE",
"-35 -170 OFFCURVE",
"-35 -145 CURVE SMOOTH",
"-35 -120 OFFCURVE",
"-55 -100 OFFCURVE",
"-80 -100 CURVE SMOOTH",
"-105 -100 OFFCURVE",
"-125 -120 OFFCURVE",
"-125 -145 CURVE SMOOTH",
"-125 -170 OFFCURVE",
"-105 -190 OFFCURVE",
"-80 -190 CURVE SMOOTH"
);
},
{
closed = 1;
nodes = (
"105 -190 OFFCURVE",
"125 -170 OFFCURVE",
"125 -145 CURVE SMOOTH",
"125 -120 OFFCURVE",
"105 -100 OFFCURVE",
"80 -100 CURVE SMOOTH",
"55 -100 OFFCURVE",
"35 -120 OFFCURVE",
"35 -145 CURVE SMOOTH",
"35 -170 OFFCURVE",
"55 -190 OFFCURVE",
"80 -190 CURVE SMOOTH"
);
}
);
width = 0;
},
{
anchors = (
{
name = _bottom;
position = "{0, 0}";
}
);
layerId = m002;
paths = (
{
closed = 1;
nodes = (
"-55 -190 OFFCURVE",
"-35 -170 OFFCURVE",
"-35 -145 CURVE SMOOTH",
"-35 -120 OFFCURVE",
"-55 -100 OFFCURVE",
"-80 -100 CURVE SMOOTH",
"-105 -100 OFFCURVE",
"-125 -120 OFFCURVE",
"-125 -145 CURVE SMOOTH",
"-125 -170 OFFCURVE",
"-105 -190 OFFCURVE",
"-80 -190 CURVE SMOOTH"
);
},
{
closed = 1;
nodes = (
"105 -190 OFFCURVE",
"125 -170 OFFCURVE",
"125 -145 CURVE SMOOTH",
"125 -120 OFFCURVE",
"105 -100 OFFCURVE",
"80 -100 CURVE SMOOTH",
"55 -100 OFFCURVE",
"35 -120 OFFCURVE",
"35 -145 CURVE SMOOTH",
"35 -170 OFFCURVE",
"55 -190 OFFCURVE",
"80 -190 CURVE SMOOTH"
);
}
);
width = 0;
}
);
unicode = 05B5;
},
{
glyphname = "segol-hb";
layers = (
{
anchors = (
{
name = _bottom;
position = "{0, 0}";
}
);
layerId = m01;
paths = (
{
closed = 1;
nodes = (
"-55 -190 OFFCURVE",
"-35 -170 OFFCURVE",
"-35 -145 CURVE SMOOTH",
"-35 -120 OFFCURVE",
"-55 -100 OFFCURVE",
"-80 -100 CURVE SMOOTH",
"-105 -100 OFFCURVE",
"-125 -120 OFFCURVE",
"-125 -145 CURVE SMOOTH",
"-125 -170 OFFCURVE",
"-105 -190 OFFCURVE",
"-80 -190 CURVE SMOOTH"
);
},
{
closed = 1;
nodes = (
"105 -190 OFFCURVE",
"125 -170 OFFCURVE",
"125 -145 CURVE SMOOTH",
"125 -120 OFFCURVE",
"105 -100 OFFCURVE",
"80 -100 CURVE SMOOTH",
"55 -100 OFFCURVE",
"35 -120 OFFCURVE",
"35 -145 CURVE SMOOTH",
"35 -170 OFFCURVE",
"55 -190 OFFCURVE",
"80 -190 CURVE SMOOTH"
);
},
{
closed = 1;
nodes = (
"25 -330 OFFCURVE",
"45 -310 OFFCURVE",
"45 -285 CURVE SMOOTH",
"45 -260 OFFCURVE",
"25 -240 OFFCURVE",
"0 -240 CURVE SMOOTH",
"-25 -240 OFFCURVE",
"-45 -260 OFFCURVE",
"-45 -285 CURVE SMOOTH",
"-45 -310 OFFCURVE",
"-25 -330 OFFCURVE",
"0 -330 CURVE SMOOTH"
);
}
);
width = 0;
},
{
anchors = (
{
name = _bottom;
position = "{0, 0}";
}
);
layerId = m002;
paths = (
{
closed = 1;
nodes = (
"-55 -190 OFFCURVE",
"-35 -170 OFFCURVE",
"-35 -145 CURVE SMOOTH",
"-35 -120 OFFCURVE",
"-55 -100 OFFCURVE",
"-80 -100 CURVE SMOOTH",
"-105 -100 OFFCURVE",
"-125 -120 OFFCURVE",
"-125 -145 CURVE SMOOTH",
"-125 -170 OFFCURVE",
"-105 -190 OFFCURVE",
"-80 -190 CURVE SMOOTH"
);
},
{
closed = 1;
nodes = (
"105 -190 OFFCURVE",
"125 -170 OFFCURVE",
"125 -145 CURVE SMOOTH",
"125 -120 OFFCURVE",
"105 -100 OFFCURVE",
"80 -100 CURVE SMOOTH",
"55 -100 OFFCURVE",
"35 -120 OFFCURVE",
"35 -145 CURVE SMOOTH",
"35 -170 OFFCURVE",
"55 -190 OFFCURVE",
"80 -190 CURVE SMOOTH"
);
},
{
closed = 1;
nodes = (
"25 -330 OFFCURVE",
"45 -310 OFFCURVE",
"45 -285 CURVE SMOOTH",
"45 -260 OFFCURVE",
"25 -240 OFFCURVE",
"0 -240 CURVE SMOOTH",
"-25 -240 OFFCURVE",
"-45 -260 OFFCURVE",
"-45 -285 CURVE SMOOTH",
"-45 -310 OFFCURVE",
"-25 -330 OFFCURVE",
"0 -330 CURVE SMOOTH"
);
}
);
width = 0;
}
);
unicode = 05B6;
},
{
glyphname = "patah-hb";
layers = (
{
anchors = (
{
name = _bottom;
position = "{0, 0}";
}
);
layerId = m01;
paths = (
{
closed = 1;
nodes = (
"-117 -176 OFFCURVE",
"-85 -169 OFFCURVE",
"-1 -169 CURVE SMOOTH",
"88 -169 OFFCURVE",
"123 -176 OFFCURVE",
"143 -176 CURVE SMOOTH",
"160 -176 OFFCURVE",
"171 -161 OFFCURVE",
"171 -138 CURVE SMOOTH",
"171 -116 OFFCURVE",
"160 -100 OFFCURVE",
"143 -100 CURVE SMOOTH",
"123 -100 OFFCURVE",
"88 -106 OFFCURVE",
"-1 -106 CURVE SMOOTH",
"-85 -106 OFFCURVE",
"-117 -100 OFFCURVE",
"-139 -100 CURVE SMOOTH",
"-156 -100 OFFCURVE",
"-167 -116 OFFCURVE",
"-167 -138 CURVE SMOOTH",
"-167 -161 OFFCURVE",
"-156 -176 OFFCURVE",
"-139 -176 CURVE SMOOTH"
);
}
);
width = 0;
},
{
anchors = (
{
name = _bottom;
position = "{0, 0}";
}
);
layerId = m002;
paths = (
{
closed = 1;
nodes = (
"-117 -196 OFFCURVE",
"-84 -189 OFFCURVE",
"0 -189 CURVE SMOOTH",
"89 -189 OFFCURVE",
"123 -196 OFFCURVE",
"143 -196 CURVE SMOOTH",
"170 -196 OFFCURVE",
"191 -171 OFFCURVE",
"191 -138 CURVE SMOOTH",
"191 -106 OFFCURVE",
"170 -80 OFFCURVE",
"143 -80 CURVE SMOOTH",
"123 -80 OFFCURVE",
"89 -86 OFFCURVE",
"0 -86 CURVE SMOOTH",
"-84 -86 OFFCURVE",
"-117 -80 OFFCURVE",
"-139 -80 CURVE SMOOTH",
"-166 -80 OFFCURVE",
"-187 -106 OFFCURVE",
"-187 -138 CURVE SMOOTH",
"-187 -171 OFFCURVE",
"-166 -196 OFFCURVE",
"-139 -196 CURVE SMOOTH"
);
}
);
width = 0;
}
);
unicode = 05B7;
},
{
glyphname = "qamats-hb";
layers = (
{
anchors = (
{
name = _bottom;
position = "{0, 0}";
}
);
layerId = m01;
paths = (
{
closed = 1;
nodes = (
"-109 -176 OFFCURVE",
"-90 -166 OFFCURVE",
"-53 -166 CURVE SMOOTH",
"-29 -166 OFFCURVE",
"-19 -188 OFFCURVE",
"-19 -207 CURVE SMOOTH",
"-19 -239 OFFCURVE",
"-51 -270 OFFCURVE",
"-51 -303 CURVE SMOOTH",
"-51 -327 OFFCURVE",
"-32 -348 OFFCURVE",
"-2 -348 CURVE SMOOTH",
"28 -348 OFFCURVE",
"50 -327 OFFCURVE",
"50 -303 CURVE SMOOTH",
"50 -270 OFFCURVE",
"19 -239 OFFCURVE",
"19 -207 CURVE SMOOTH",
"19 -188 OFFCURVE",
"28 -166 OFFCURVE",
"54 -166 CURVE SMOOTH",
"92 -166 OFFCURVE",
"113 -174 OFFCURVE",
"151 -174 CURVE SMOOTH",
"168 -174 OFFCURVE",
"182 -159 OFFCURVE",
"182 -135 CURVE SMOOTH",
"182 -111 OFFCURVE",
"168 -100 OFFCURVE",
"151 -100 CURVE SMOOTH",
"113 -100 OFFCURVE",
"75 -111 OFFCURVE",
"-2 -111 CURVE SMOOTH",
"-72 -111 OFFCURVE",
"-115 -100 OFFCURVE",
"-147 -100 CURVE SMOOTH",
"-164 -100 OFFCURVE",
"-178 -113 OFFCURVE",
"-178 -137 CURVE SMOOTH",
"-178 -161 OFFCURVE",
"-164 -176 OFFCURVE",
"-147 -176 CURVE SMOOTH"
);
}
);
width = 0;
},
{
anchors = (
{
name = _bottom;
position = "{0, 0}";
}
);
layerId = m002;
paths = (
{
closed = 1;
nodes = (
"-109 -196 OFFCURVE",
"-100 -186 OFFCURVE",
"-63 -186 CURVE SMOOTH",
"-39 -186 OFFCURVE",
"-29 -208 OFFCURVE",
"-29 -227 CURVE SMOOTH",
"-29 -259 OFFCURVE",
"-61 -267 OFFCURVE",
"-61 -303 CURVE SMOOTH",
"-61 -331 OFFCURVE",
"-42 -358 OFFCURVE",
"-2 -358 CURVE SMOOTH",
"38 -358 OFFCURVE",
"60 -331 OFFCURVE",
"60 -303 CURVE SMOOTH",
"60 -267 OFFCURVE",
"29 -259 OFFCURVE",
"29 -227 CURVE SMOOTH",
"29 -208 OFFCURVE",
"38 -186 OFFCURVE",
"64 -186 CURVE SMOOTH",
"102 -186 OFFCURVE",
"113 -194 OFFCURVE",
"151 -194 CURVE SMOOTH",
"178 -194 OFFCURVE",
"192 -169 OFFCURVE",
"192 -135 CURVE SMOOTH",
"192 -101 OFFCURVE",
"178 -80 OFFCURVE",
"151 -80 CURVE SMOOTH",
"113 -80 OFFCURVE",
"77 -91 OFFCURVE",
"0 -91 CURVE SMOOTH",
"-70 -91 OFFCURVE",
"-115 -80 OFFCURVE",
"-147 -80 CURVE SMOOTH",
"-174 -80 OFFCURVE",
"-188 -103 OFFCURVE",
"-188 -137 CURVE SMOOTH",
"-188 -171 OFFCURVE",
"-174 -196 OFFCURVE",
"-147 -196 CURVE SMOOTH"
);
}
);
width = 0;
},
{
anchors = (
{
name = _bottom;
position = "{0, 0}";
}
);
associatedMasterId = m002;
layerId = "B1E3EFBE-4B81-471A-B0D6-58DFB65C7D2D";
name = "Aug 18, 21, 15:36";
paths = (
{
closed = 1;
nodes = (
"-117 -196 OFFCURVE",
"-84 -189 OFFCURVE",
"0 -189 CURVE SMOOTH",
"89 -189 OFFCURVE",
"123 -196 OFFCURVE",
"143 -196 CURVE SMOOTH",
"170 -196 OFFCURVE",
"191 -171 OFFCURVE",
"191 -138 CURVE SMOOTH",
"191 -106 OFFCURVE",
"170 -80 OFFCURVE",
"143 -80 CURVE SMOOTH",
"123 -80 OFFCURVE",
"89 -86 OFFCURVE",
"0 -86 CURVE SMOOTH",
"-84 -86 OFFCURVE",
"-117 -80 OFFCURVE",
"-139 -80 CURVE SMOOTH",
"-166 -80 OFFCURVE",
"-187 -106 OFFCURVE",
"-187 -138 CURVE SMOOTH",
"-187 -171 OFFCURVE",
"-166 -196 OFFCURVE",
"-139 -196 CURVE SMOOTH"
);
}
);
visible = 1;
width = 0;
}
);
unicode = 05B8;
},
{
glyphname = "holam-hb";
layers = (
{
anchors = (
{
name = _topleft;
position = "{0, 415}";
}
);
layerId = m01;
paths = (
{
closed = 1;
nodes = (
"25 493 OFFCURVE",
"45 513 OFFCURVE",
"45 538 CURVE SMOOTH",
"45 563 OFFCURVE",
"25 583 OFFCURVE",
"0 583 CURVE SMOOTH",
"-25 583 OFFCURVE",
"-45 563 OFFCURVE",
"-45 538 CURVE SMOOTH",
"-45 513 OFFCURVE",
"-25 493 OFFCURVE",
"0 493 CURVE SMOOTH"
);
}
);
width = 0;
},
{
anchors = (
{
name = _topleft;
position = "{0, 415}";
}
);
layerId = m002;
paths = (
{
closed = 1;
nodes = (
"32 492 OFFCURVE",
"58 518 OFFCURVE",
"58 550 CURVE SMOOTH",
"58 582 OFFCURVE",
"32 608 OFFCURVE",
"0 608 CURVE SMOOTH",
"-32 608 OFFCURVE",
"-58 582 OFFCURVE",
"-58 550 CURVE SMOOTH",
"-58 518 OFFCURVE",
"-32 492 OFFCURVE",
"0 492 CURVE SMOOTH"
);
}
);
width = 0;
}
);
unicode = 05B9;
},
{
glyphname = "dagesh-hb";
layers = (
{
anchors = (
{
name = _center;
position = "{0, 317}";
}
);
layerId = m01;
paths = (
{
closed = 1;
nodes = (
"25 273 OFFCURVE",
"45 293 OFFCURVE",
"45 318 CURVE SMOOTH",
"45 343 OFFCURVE",
"25 363 OFFCURVE",
"0 363 CURVE SMOOTH",
"-25 363 OFFCURVE",
"-45 343 OFFCURVE",
"-45 318 CURVE SMOOTH",
"-45 293 OFFCURVE",
"-25 273 OFFCURVE",
"0 273 CURVE SMOOTH"
);
}
);
width = 0;
},
{
anchors = (
{
name = _center;
position = "{0, 317}";
}
);
layerId = m002;
paths = (
{
closed = 1;
nodes = (
"32 260 OFFCURVE",
"58 286 OFFCURVE",
"58 318 CURVE SMOOTH",
"58 350 OFFCURVE",
"32 376 OFFCURVE",
"0 376 CURVE SMOOTH",
"-32 376 OFFCURVE",
"-58 350 OFFCURVE",
"-58 318 CURVE SMOOTH",
"-58 286 OFFCURVE",
"-32 260 OFFCURVE",
"0 260 CURVE SMOOTH"
);
}
);
width = 0;
}
);
unicode = 05BC;
},
{
glyphname = "sindot-hb";
layers = (
{
anchors = (
{
name = _topleft;
position = "{0, 415}";
}
);
layerId = m01;
paths = (
{
closed = 1;
nodes = (
"25 544 OFFCURVE",
"45 564 OFFCURVE",
"45 589 CURVE SMOOTH",
"45 614 OFFCURVE",
"25 634 OFFCURVE",
"0 634 CURVE SMOOTH",
"-25 634 OFFCURVE",
"-45 614 OFFCURVE",
"-45 589 CURVE SMOOTH",
"-45 564 OFFCURVE",
"-25 544 OFFCURVE",
"0 544 CURVE SMOOTH"
);
}
);
width = 0;
},
{
anchors = (
{
name = _topleft;
position = "{0, 415}";
}
);
layerId = m002;
paths = (
{
closed = 1;
nodes = (
"25 544 OFFCURVE",
"45 564 OFFCURVE",
"45 589 CURVE SMOOTH",
"45 614 OFFCURVE",
"25 634 OFFCURVE",
"0 634 CURVE SMOOTH",
"-25 634 OFFCURVE",
"-45 614 OFFCURVE",
"-45 589 CURVE SMOOTH",
"-45 564 OFFCURVE",
"-25 544 OFFCURVE",
"0 544 CURVE SMOOTH"
);
}
);
width = 0;
}
);
unicode = 05C2;
},
{
glyphname = "qamatsqatan-hb";
layers = (
{
anchors = (
{
name = _bottom;
position = "{0, 0}";
}
);
layerId = m01;
paths = (
{
closed = 1;
nodes = (
"-24.944 -131 LINE SMOOTH",
"-16 -131 OFFCURVE",
"-15 -145 OFFCURVE",
"-15 -154 CURVE SMOOTH",
"-15 -177 OFFCURVE",
"-25 -200 OFFCURVE",
"-25 -223 CURVE SMOOTH",
"-25 -236 OFFCURVE",
"-16 -245 OFFCURVE",
"-3 -245 CURVE SMOOTH",
"4 -245 LINE SMOOTH",
"17 -245 OFFCURVE",
"26 -236 OFFCURVE",
"26 -223 CURVE SMOOTH",
"26 -200 OFFCURVE",
"16 -177 OFFCURVE",
"16 -154 CURVE SMOOTH",
"16 -145 OFFCURVE",
"17 -131 OFFCURVE",
"25.944 -131 CURVE SMOOTH",
"106 -131 LINE SMOOTH",
"119 -131 OFFCURVE",
"128 -122 OFFCURVE",
"128 -109 CURVE SMOOTH",
"128 -101 LINE SMOOTH",
"128 -88 OFFCURVE",
"119 -79 OFFCURVE",
"106 -79 CURVE SMOOTH",
"-102 -79 LINE SMOOTH",
"-115 -79 OFFCURVE",
"-124 -88 OFFCURVE",
"-124 -101 CURVE SMOOTH",
"-124 -109 LINE SMOOTH",
"-124 -122 OFFCURVE",
"-115 -131 OFFCURVE",
"-102 -131 CURVE SMOOTH"
);
}
);
width = 0;
},
{
anchors = (
{
name = _bottom;
position = "{0, 0}";
}
);
layerId = m002;
paths = (
{
closed = 1;
nodes = (
"-24.944 -131 LINE SMOOTH",
"-16 -131 OFFCURVE",
"-15 -145 OFFCURVE",
"-15 -154 CURVE SMOOTH",
"-15 -177 OFFCURVE",
"-25 -200 OFFCURVE",
"-25 -223 CURVE SMOOTH",
"-25 -236 OFFCURVE",
"-16 -245 OFFCURVE",
"-3 -245 CURVE SMOOTH",
"4 -245 LINE SMOOTH",
"17 -245 OFFCURVE",
"26 -236 OFFCURVE",
"26 -223 CURVE SMOOTH",
"26 -200 OFFCURVE",
"16 -177 OFFCURVE",
"16 -154 CURVE SMOOTH",
"16 -145 OFFCURVE",
"17 -131 OFFCURVE",
"25.944 -131 CURVE SMOOTH",
"106 -131 LINE SMOOTH",
"119 -131 OFFCURVE",
"128 -122 OFFCURVE",
"128 -109 CURVE SMOOTH",
"128 -101 LINE SMOOTH",
"128 -88 OFFCURVE",
"119 -79 OFFCURVE",
"106 -79 CURVE SMOOTH",
"-102 -79 LINE SMOOTH",
"-115 -79 OFFCURVE",
"-124 -88 OFFCURVE",
"-124 -101 CURVE SMOOTH",
"-124 -109 LINE SMOOTH",
"-124 -122 OFFCURVE",
"-115 -131 OFFCURVE",
"-102 -131 CURVE SMOOTH"
);
}
);
width = 0;
}
);
unicode = 05C7;
},
